SplineFontDB: 3.0
FontName: NinaDalMedium
FullName: NinaDal Medium
FamilyName: Nina-dal
Weight: Medium
Copyright: This work is licensed under a Creative Commons Attribution-ShareAlike 3.0 Unported License.\n\n(c) Nina Paley  http://www.archive.org/details/NinaPaleyFonts
Version: nina-dal 1.0
ItalicAngle: 0
UnderlinePosition: -123
UnderlineWidth: 20
Ascent: 800
Descent: 200
sfntRevision: 0x00010000
LayerCount: 2
Layer: 0 1 "Back"  1
Layer: 1 1 "Fore"  0
NeedsXUIDChange: 1
XUID: [1021 289 695065309 11834653]
FSType: 0
OS2Version: 0
OS2_WeightWidthSlopeOnly: 0
OS2_UseTypoMetrics: 1
CreationTime: 919545717
ModificationTime: 1330492863
PfmFamily: 81
TTFWeight: 500
TTFWidth: 5
LineGap: 0
VLineGap: 0
Panose: 0 0 5 0 0 0 0 0 0 0
OS2TypoAscent: 136
OS2TypoAOffset: 1
OS2TypoDescent: 0
OS2TypoDOffset: 1
OS2TypoLinegap: 0
OS2WinAscent: 0
OS2WinAOffset: 1
OS2WinDescent: 0
OS2WinDOffset: 1
HheadAscent: 0
HheadAOffset: 1
HheadDescent: -10
HheadDOffset: 1
OS2SubXSize: 700
OS2SubYSize: 650
OS2SubXOff: 0
OS2SubYOff: 143
OS2SupXSize: 700
OS2SupYSize: 650
OS2SupXOff: 0
OS2SupYOff: 453
OS2StrikeYSize: 50
OS2StrikeYPos: 259
OS2Vendor: 'Alts'
OS2UnicodeRanges: 00000000.00000000.00000000.00000000
MarkAttachClasses: 1
DEI: 91125
TtTable: prep
NPUSHB
 9
 7
 7
 2
 2
 1
 1
 0
 0
 1
SCANTYPE
PUSHW_1
 511
SCANCTRL
RCVT
ROUND[Grey]
WCVTP
RCVT
ROUND[Grey]
WCVTP
RCVT
ROUND[Grey]
WCVTP
RCVT
ROUND[Grey]
WCVTP
PUSHB_4
 4
 3
 70
 0
CALL
PUSHB_4
 6
 5
 70
 0
CALL
PUSHB_2
 3
 3
RCVT
ROUND[Grey]
WCVTP
PUSHB_2
 5
 5
RCVT
ROUND[Grey]
WCVTP
EndTTInstrs
TtTable: fpgm
NPUSHB
 1
 0
FDEF
SROUND
RCVT
DUP
PUSHB_1
 3
CINDEX
RCVT
SWAP
SUB
ROUND[Grey]
RTG
SWAP
ROUND[Grey]
ADD
WCVTP
ENDF
EndTTInstrs
ShortTable: cvt  8
  -38
  810
  856
  100
  114
  101
  88
  94
EndShort
ShortTable: maxp 16
  1
  0
  86
  104
  4
  0
  0
  2
  8
  64
  10
  0
  64
  120
  1
  1
EndShort
LangName: 1033 "" "" "" "" "" "1.0" 
Encoding: UnicodeBmp
UnicodeInterp: none
NameList: Adobe Glyph List
DisplaySize: -48
AntiAlias: 1
FitToEm: 1

StartChar: .notdef
Encoding: 65536 -1 0
Width: 500
Flags: W
LayerCount: 2
Fore
SplineSet
63 0 m 1,0,-1
 63 800 l 1,1,-1
 438 800 l 1,2,-1
 438 0 l 1,3,-1
 63 0 l 1,0,-1
125 63 m 1,4,-1
 375 63 l 1,5,-1
 375 738 l 1,6,-1
 125 738 l 1,7,-1
 125 63 l 1,4,-1
EndSplineSet
Validated: 1
EndChar

StartChar: exclam
Encoding: 33 33 4
Width: 504
Flags: W
LayerCount: 2
Fore
SplineSet
504 748 m 0,0,1
 504 734 504 734 449 662 c 0,2,3
 372 559 372 559 366 550 c 0,4,5
 349 526 349 526 302 427 c 0,6,7
 252 323 252 323 225 278 c 0,8,9
 180 206 180 206 150 206 c 0,10,11
 137 206 137 206 126 219 c 1,12,13
 123 220 123 220 123 228 c 0,14,15
 123 268 123 268 188.5 414.5 c 128,-1,16
 254 561 254 561 325 675 c 0,17,18
 407 808 407 808 444 808 c 0,19,20
 473 808 473 808 490 785 c 0,21,22
 504 767 504 767 504 748 c 0,0,1
144 8 m 0,23,24
 144 -31 144 -31 110 -41 c 1,25,-1
 35 -41 l 1,26,27
 35 -38 35 -38 29.5 -21.5 c 128,-1,28
 24 -5 24 -5 24 8 c 0,29,30
 24 68 24 68 79 68 c 0,31,32
 104 68 104 68 124 46.5 c 128,-1,33
 144 25 144 25 144 8 c 0,23,24
EndSplineSet
Validated: 1
EndChar

StartChar: quotedbl
Encoding: 34 34 5
Width: 446
Flags: W
LayerCount: 2
Fore
SplineSet
453 826 m 0,0,1
 453 783 453 783 362.5 669.5 c 128,-1,2
 272 556 272 556 236 551 c 1,3,4
 213 570 213 570 213 596 c 0,5,6
 213 629 213 629 286 749 c 128,-1,7
 359 869 359 869 393 881 c 0,8,9
 398 883 398 883 403 883 c 0,10,11
 422 883 422 883 439 859 c 0,12,13
 453 839 453 839 453 826 c 0,0,1
233 846 m 1,14,15
 183 763 183 763 153 686 c 0,16,17
 126 614 126 614 118 603 c 0,18,19
 99 574 99 574 47 551 c 1,20,21
 24 572 24 572 22 574 c 0,22,23
 13 584 13 584 13 601 c 0,24,25
 13 624 13 624 71 749 c 0,26,27
 136 891 136 891 178 891 c 0,28,29
 210 891 210 891 216 884 c 1,30,31
 225 865 225 865 233 846 c 1,14,15
EndSplineSet
Validated: 1
EndChar

StartChar: dollar
Encoding: 36 36 6
Width: 710
Flags: W
LayerCount: 2
Fore
SplineSet
668 268 m 0,0,1
 668 197 668 197 544 153 c 0,2,3
 452 121 452 121 377 121 c 1,4,5
 376.6 117 376.6 117 376.6 111.56 c 0,6,7
 376.6 89.8 376.6 89.8 383 45 c 0,8,9
 391 -14 391 -14 391 -20 c 2,10,-1
 387 -80 l 1,11,12
 346 -106 346 -106 330 -106 c 0,13,14
 304 -106 304 -106 283 -73 c 1,15,16
 309 -3 309 -3 309 46 c 0,17,18
 309 125 309 125 238 155 c 0,19,20
 223 162 223 162 107 184 c 0,21,22
 36 198 36 198 36 236 c 0,23,24
 36 245 36 245 39 255 c 1,25,26
 45 257 45 257 74 279 c 0,27,28
 98 297 98 297 112 297 c 0,29,30
 124 297 124 297 186 262.5 c 128,-1,31
 248 228 248 228 260 228 c 2,32,-1
 295 228 l 1,33,34
 299 249.333 299 249.333 299 279.111 c 0,35,36
 299 294 299 294 298 311 c 0,37,38
 294 390 294 390 294 397 c 1,39,40
 224 408 224 408 155 419 c 1,41,42
 39 447 39 447 39 523 c 0,43,44
 39 588 39 588 136 666 c 0,45,46
 217 730 217 730 275 746 c 1,47,48
 275 748 275 748 265 763.5 c 128,-1,49
 255 779 255 779 255 793 c 2,50,-1
 255 884 l 1,51,52
 275 911 275 911 314 911 c 0,53,54
 347 911 347 911 369 885 c 1,55,56
 346 829 346 829 346 793 c 0,57,58
 346 740 346 740 399 718 c 1,59,60
 448 702 448 702 497 685 c 1,61,62
 550 662 550 662 550 608 c 0,63,64
 550 598 550 598 548 586 c 0,65,66
 543 551 543 551 503 544 c 1,67,68
 473 549 473 549 439 579 c 0,69,70
 400 612 400 612 373 621 c 1,71,72
 363 611 363 611 363 578 c 0,73,74
 363 551 363 551 369 518 c 0,75,76
 374 489 374 489 377 488 c 0,77,78
 450 478 450 478 551 413 c 0,79,80
 668 337 668 337 668 268 c 0,0,1
292 513 m 1,81,-1
 282 624 l 1,82,83
 275.75 624.625 275.75 624.625 269.656 624.625 c 0,84,85
 227 624.625 227 624.625 192 594 c 0,86,87
 176 579 176 579 146 537 c 1,88,89
 156 527 156 527 159 513 c 1,90,91
 158 513 158 513 176 511.5 c 128,-1,92
 194 510 194 510 216 509 c 1,93,94
 249 509 249 509 292 513 c 1,81,-1
547 250 m 1,95,96
 548.08 256.6 548.08 256.6 548.08 262.984 c 0,97,98
 548.08 309.8 548.08 309.8 490 345 c 0,99,100
 443 373 443 373 382 384 c 1,101,102
 379 323 379 323 379 283 c 0,103,104
 379 255 379 255 381 236.5 c 128,-1,105
 383 218 383 218 383 220 c 1,106,107
 428 224 428 224 474 228 c 0,108,109
 525 233 525 233 547 250 c 1,95,96
EndSplineSet
Validated: 1
EndChar

StartChar: percent
Encoding: 37 37 7
Width: 863
Flags: W
LayerCount: 2
Fore
SplineSet
818 195 m 1,0,1
 818 143 818 143 734 62 c 128,-1,2
 650 -19 650 -19 593 -19 c 0,3,4
 538 -19 538 -19 496 14 c 1,5,6
 448 50 448 50 448 106 c 0,7,8
 448 173 448 173 505 268 c 0,9,10
 572 381 572 381 653 381 c 0,11,12
 656 381 656 381 670.5 382 c 128,-1,13
 685 383 685 383 696 383 c 0,14,15
 790 383 790 383 818 319 c 1,16,17
 831 295 831 295 831 264 c 0,18,19
 831 231 831 231 818 195 c 1,0,1
718 721 m 0,20,21
 718 705 718 705 510 394 c 0,22,23
 298 77 298 77 286 22 c 1,24,-1
 239 22 l 1,25,26
 222 49 222 49 222 70 c 0,27,28
 222 93 222 93 239 115 c 1,29,30
 239 115 239 115 239 115 c 128,-1,31
 239 115 239 115 239 115 c 128,-1,32
 238.994 115.089 238.994 115.089 238.994 115.186 c 0,33,34
 238.994 130.525 238.994 130.525 395 370 c 1,35,36
 566 637 566 637 568 641 c 1,37,38
 511 624 511 624 431 624 c 0,39,40
 378 624 378 624 332 631 c 0,41,42
 291 638 291 638 289 644 c 1,43,44
 299 625 299 625 299 583 c 0,45,46
 299 498 299 498 262 434 c 1,47,48
 216 351 216 351 128 351 c 0,49,50
 68 351 68 351 38 424 c 0,51,52
 18 472 18 472 18 521 c 0,53,54
 18 606 18 606 72 678.5 c 128,-1,55
 126 751 126 751 198 751 c 1,56,57
 198 751 198 751 198 751 c 0,58,59
 198 750 198 750 281 721 c 0,60,61
 367 691 367 691 408 691 c 0,62,63
 437 691 437 691 547 726 c 0,64,65
 654 760 654 760 654 760 c 0,66,-1
 654 760 l 2,67,-1
 707 760 l 1,68,69
 707 757 707 757 712.5 746 c 128,-1,70
 718 735 718 735 718 721 c 0,20,21
751 253 m 0,71,72
 737 301 737 301 718 301 c 0,73,74
 713 301 713 301 702 296 c 128,-1,75
 691 291 691 291 684 291 c 0,76,77
 644 291 644 291 593 241 c 0,78,79
 538 187 538 187 538 131 c 0,80,81
 538 81 538 81 588 81 c 0,82,83
 621 81 621 81 685 134 c 1,84,85
 753 192 753 192 753 239 c 0,86,87
 753 246 753 246 751 253 c 0,71,72
228 571 m 0,88,89
 228 585 228 585 222.5 600.5 c 128,-1,90
 217 616 217 616 217 620 c 1,91,92
 213 620 213 620 202.5 625.5 c 128,-1,93
 192 631 192 631 178 631 c 0,94,95
 143 631 143 631 115.5 590 c 128,-1,96
 88 549 88 549 88 506 c 0,97,98
 88 493 88 493 104 469 c 128,-1,99
 120 445 120 445 120 442 c 1,100,101
 174 446 174 446 205 495 c 0,102,103
 228 533 228 533 228 571 c 0,88,89
EndSplineSet
Validated: 5
EndChar

StartChar: quotesingle
Encoding: 39 39 8
Width: 291
Flags: W
LayerCount: 2
Fore
SplineSet
230 865 m 0,0,1
 231 860 231 860 231 857 c 0,2,3
 231 812 231 812 168 695 c 0,4,5
 98 567 98 567 64 557 c 1,6,7
 55 562 55 562 51 566 c 0,8,9
 33 583 33 583 33 597 c 0,10,11
 33 603 33 603 33 604 c 0,12,13
 33 608 33 608 33 609 c 0,14,15
 33 611 33 611 33 612 c 0,16,17
 33 642 33 642 78 758 c 0,18,19
 129 891 129 891 161 909 c 0,20,21
 168 912 168 912 176 912 c 0,22,23
 194 912 194 912 211 894 c 0,24,25
 227 877 227 877 230 865 c 0,0,1
EndSplineSet
Validated: 1
EndChar

StartChar: parenleft
Encoding: 40 40 9
Width: 328
Flags: W
LayerCount: 2
Fore
SplineSet
222 805 m 1,0,-1
 222 805 l 1,1,-1
 222 805 l 1,0,-1
305 -43 m 1,2,3
 305 -102 305 -102 251 -102 c 0,4,5
 155 -102 155 -102 87 116 c 0,6,7
 30 298 30 298 31 452 c 0,8,9
 31 479 31 479 60 580 c 0,10,11
 94 698 94 698 132 776 c 0,12,13
 183 878 183 878 227 878 c 0,14,15
 261 878 261 878 269 873 c 0,16,17
 282 865 282 865 285 834 c 1,18,19
 217 735 217 735 173 625 c 1,20,21
 129 511 129 511 129 427 c 0,22,23
 129 316 129 316 174 197 c 1,24,25
 206 116 206 116 259 30 c 0,26,27
 305 -43 305 -43 305 -43 c 1,2,3
EndSplineSet
Validated: 33
EndChar

StartChar: parenright
Encoding: 41 41 10
Width: 318
Flags: W
LayerCount: 2
Fore
SplineSet
290 476 m 0,0,1
 290.075 468.83 290.075 468.83 290.075 461.692 c 0,2,3
 290.075 279.66 290.075 279.66 241 118 c 0,4,5
 183 -73 183 -73 94 -73 c 0,6,7
 56 -73 56 -73 45 -19 c 0,8,9
 44.4318 -16.6136 44.4318 -16.6136 44.4318 -13.6849 c 0,10,11
 44.4318 9.15909 44.4318 9.15909 79 65 c 1,12,13
 134 150 134 150 155 205 c 0,14,15
 189.043 292.66 189.043 292.66 189.043 387.562 c 0,16,17
 189.043 404.17 189.043 404.17 188 421 c 0,18,19
 182 526 182 526 182 528 c 0,20,21
 173 603 173 603 141 665 c 0,22,23
 99 745 99 745 16 810 c 1,24,-1
 16 878 l 1,25,26
 20 877 20 877 37.5 887 c 128,-1,27
 55 897 55 897 69 897 c 0,28,29
 118 897 118 897 174 805 c 0,30,31
 219 730 219 730 256 619 c 0,32,33
 289 519 289 519 290 476 c 0,0,1
EndSplineSet
Validated: 1
EndChar

StartChar: plus
Encoding: 43 43 11
Width: 643
Flags: W
LayerCount: 2
Fore
SplineSet
616 374 m 1,0,1
 543 340 543 340 503 338 c 0,2,3
 408 333 408 333 376 329 c 1,4,5
 376 299 376 299 381.5 212.5 c 128,-1,6
 387 126 387 126 387 79 c 1,7,8
 381 70 381 70 375 62 c 1,9,10
 363 50 363 50 331 47 c 1,11,12
 304 64 304 64 297 130 c 0,13,14
 297 135 297 135 294 241 c 0,15,16
 292 297 292 297 277 297 c 0,17,18
 267 297 267 297 185 282 c 128,-1,19
 103 267 103 267 87 267 c 0,20,21
 62 267 62 267 28 299 c 1,22,-1
 28 336 l 1,23,24
 87 355 87 355 155 365 c 0,25,26
 247 379 247 379 284 387 c 1,27,28
 286 396 286 396 286 410 c 0,29,30
 286 427 286 427 282.5 476.5 c 128,-1,31
 279 526 279 526 279 551 c 0,32,33
 279 635 279 635 309 647 c 1,34,-1
 356 647 l 1,35,36
 377 614 377 614 377 572 c 0,37,38
 377 554 377 554 372 517.5 c 128,-1,39
 367 481 367 481 367 462 c 0,40,41
 367 427 367 427 379 398 c 1,42,43
 395 406 395 406 445 414 c 0,44,45
 505 424 505 424 557 442 c 0,46,47
 564 444 564 444 572 444 c 0,48,49
 587 444 587 444 616 430 c 1,50,51
 623 420 623 420 623 407 c 1,52,53
 623 408 623 408 623 408 c 0,54,55
 622 408 622 408 616 374 c 1,0,1
EndSplineSet
Validated: 5
EndChar

StartChar: comma
Encoding: 44 44 12
Width: 334
Flags: W
LayerCount: 2
Fore
SplineSet
258 104 m 0,0,1
 258 61 258 61 167.5 -52.5 c 128,-1,2
 77 -166 77 -166 42 -171 c 1,3,4
 18 -152 18 -152 18 -126 c 0,5,6
 18 -93 18 -93 91 27 c 128,-1,7
 164 147 164 147 198 159 c 0,8,9
 203 161 203 161 208 161 c 0,10,11
 227 161 227 161 244 137 c 0,12,13
 258 117 258 117 258 104 c 0,0,1
EndSplineSet
Validated: 1
EndChar

StartChar: hyphen
Encoding: 45 45 13
AltUni2: 002010.ffffffff.0 002010.ffffffff.0 002010.ffffffff.0 002010.ffffffff.0 002010.ffffffff.0 002010.ffffffff.0 002010.ffffffff.0 002010.ffffffff.0 002010.ffffffff.0 002010.ffffffff.0 002010.ffffffff.0 002010.ffffffff.0
Width: 490
Flags: W
LayerCount: 2
Fore
SplineSet
35 334 m 5,0,1
 58 364 58 364 80 364 c 4,2,3
 99 364 99 364 193 368.5 c 132,-1,4
 287 373 287 373 311 373 c 4,5,6
 319 373 319 373 358 382 c 132,-1,7
 397 391 397 391 405 391 c 4,8,9
 443 391 443 391 452 377 c 4,10,11
 454 374 454 374 454 342 c 4,12,13
 454 342 454 342 454 341 c 132,-1,14
 454 340 454 340 454 340 c 132,-1,15
 454 340 454 340 454 339 c 4,16,17
 454 339 454 339 454 338 c 4,18,19
 454.01 337.695 454.01 337.695 454.01 337.391 c 4,20,21
 454.01 305.8 454.01 305.8 351 285 c 5,22,23
 262 266 262 266 153 266 c 4,24,25
 48 266 48 266 35 284 c 5,26,-1
 35 334 l 5,0,1
EndSplineSet
Validated: 1
EndChar

StartChar: period
Encoding: 46 46 14
Width: 258
Flags: HW
LayerCount: 2
Fore
SplineSet
212 52 m 0,0,1
 212 -12 212 -12 129 -12 c 0,2,3
 100 -12 100 -12 79 0 c 0,4,5
 55 14 55 14 55 37 c 0,6,7
 55 72 55 72 90 96 c 0,8,9
 119 116 119 116 149 116 c 0,10,11
 167 116 167 116 189.5 93 c 128,-1,12
 212 70 212 70 212 52 c 0,0,1
EndSplineSet
EndChar

StartChar: slash
Encoding: 47 47 15
Width: 467
Flags: W
LayerCount: 2
Fore
SplineSet
451 723 m 5,0,1
 451 723 451 723 451 723 c 4,2,3
 448 723 448 723 341 504 c 4,4,5
 205 225 205 225 90 10 c 5,6,7
 83 6 83 6 70 6 c 4,8,9
 45 6 45 6 21 21 c 132,-1,10
 -3 36 -3 36 -3 57 c 4,11,12
 -3 67 -3 67 3 77 c 4,13,14
 70 197 70 197 164 407 c 4,15,16
 272 648 272 648 294 692 c 4,17,18
 356 814 356 814 389 814 c 4,19,20
 397 814 397 814 404 807 c 5,21,22
 451 807 451 807 451 723 c 5,0,1
EndSplineSet
Validated: 1
EndChar

StartChar: zero
Encoding: 48 48 16
Width: 653
Flags: W
LayerCount: 2
Fore
SplineSet
618 519 m 0,0,1
 618 334 618 334 528 201 c 0,2,3
 425 49 425 49 248 49 c 0,4,5
 37.9813 49 37.9813 49 37.9813 269.814 c 0,6,7
 37.9813 271.897 37.9813 271.897 38 274 c 0,8,9
 39 364 39 364 97 505 c 0,10,11
 161 659 161 659 228 689 c 0,12,13
 232 690 232 690 235 690 c 0,14,15
 241 690 241 690 245 681.5 c 128,-1,16
 249 673 249 673 251 673 c 0,17,18
 254 673 254 673 258 679 c 0,19,20
 301 738 301 738 354 767 c 0,21,22
 394 789 394 789 428 789 c 0,23,24
 538 789 538 789 586 688 c 0,25,26
 618 621 618 621 618 519 c 0,0,1
528 519 m 0,27,28
 528 568 528 568 508 616 c 0,29,30
 478 689 478 689 418 689 c 0,31,32
 321 689 321 689 221 536 c 0,33,34
 127 394 127 394 122 278 c 0,35,36
 121.743 273.029 121.743 273.029 121.743 268.175 c 0,37,38
 121.743 216.4 121.743 216.4 151 178 c 0,39,40
 189 129 189 129 258 129 c 0,41,42
 387 129 387 129 466 276 c 1,43,44
 528 394 528 394 528 519 c 0,27,28
EndSplineSet
Validated: 1
EndChar

StartChar: one
Encoding: 49 49 17
Width: 365
Flags: W
LayerCount: 2
Fore
SplineSet
264.763 87.334 m 6,0,1
 260.635 13.3232 260.635 13.3232 238.773 4.6123 c 4,2,3
 220.63 -2.67285 220.63 -2.67285 197.123 27.458 c 4,4,5
 134.861 107.641 134.861 107.641 173.799 424.815 c 4,6,7
 178.8 465.549 178.8 465.549 191.405 574.536 c 5,8,9
 112.783 473.744 112.783 473.744 44.7959 450.992 c 5,10,11
 23.8008 459.428 23.8008 459.428 28.1719 504.429 c 4,12,13
 31.3975 540.231 31.3975 540.231 131.878 652.856 c 4,14,15
 228.848 764.414 228.848 764.414 246.822 762.675 c 4,16,17
 250.932 762.277 250.932 762.277 254.581 760.022 c 6,18,-1
 255.528 759.438 l 5,19,20
 258.68 759.942 258.68 759.942 262.051 759.771 c 4,21,22
 282.05 758.759 282.05 758.759 301.057 738.151 c 5,23,-1
 264.763 87.334 l 6,0,1
EndSplineSet
Validated: 33
EndChar

StartChar: two
Encoding: 50 50 18
Width: 672
Flags: W
LayerCount: 2
Fore
SplineSet
622 655 m 0,0,1
 622 543 622 543 489 363 c 0,2,3
 417 264 417 264 259 95 c 1,4,5
 292 98 292 98 404 135 c 0,6,7
 509 170 509 170 541 170 c 0,8,9
 556 170 556 170 562 164.5 c 128,-1,10
 568 159 568 159 590 150 c 0,11,12
 606 143 606 143 612 132 c 1,13,-1
 612 86 l 1,14,15
 585 65 585 65 426.5 30 c 128,-1,16
 268 -5 268 -5 212 -5 c 0,17,18
 153 -5 153 -5 139 -1 c 0,19,20
 102 11 102 11 102 60 c 0,21,22
 102 102 102 102 208 196 c 0,23,24
 363 332 363 332 406 382 c 0,25,26
 512 506 512 506 512 621 c 1,27,-1
 496 663 l 1,28,29
 492 667 492 667 487.5 671 c 128,-1,30
 483 675 483 675 467 675 c 0,31,32
 405 675 405 675 313 615 c 0,33,34
 272 588 272 588 167 504 c 0,35,36
 92 445 92 445 72 445 c 0,37,38
 58 445 58 445 47.5 450.5 c 128,-1,39
 37 456 37 456 33 456 c 1,40,41
 33 459 33 459 27.5 472 c 128,-1,42
 22 485 22 485 22 500 c 0,43,44
 22 553 22 553 235 676 c 0,45,46
 440 795 440 795 502 795 c 0,47,48
 559 795 559 795 593 748 c 0,49,50
 622 709 622 709 622 655 c 0,0,1
EndSplineSet
Validated: 1
EndChar

StartChar: three
Encoding: 51 51 19
Width: 751
Flags: W
LayerCount: 2
Fore
SplineSet
720 169 m 0,0,1
 720 64 720 64 548 9 c 0,2,3
 421 -32 421 -32 295 -28 c 0,4,5
 285 -28 285 -28 256.5 -22 c 128,-1,6
 228 -16 228 -16 215 -16 c 0,7,8
 188 -16 188 -16 131 2 c 0,9,10
 80 19 80 19 51 35 c 1,11,12
 42 67 42 67 42 87 c 0,13,14
 42 144 42 144 115 144 c 0,15,16
 121 144 121 144 134 135 c 1,17,18
 153 124 153 124 183 114 c 0,19,20
 233 98 233 98 320 84 c 0,21,22
 328 82 328 82 344 82 c 0,23,24
 444 82 444 82 485 104 c 1,25,26
 523 122 523 122 561 139 c 1,27,28
 587 152 587 152 610 179 c 1,29,30
 584 232 584 232 500 259 c 0,31,32
 462 271 462 271 336 293 c 0,33,34
 232 312 232 312 191 335 c 1,35,36
 175 350 175 350 175 370 c 0,37,38
 175 389 175 389 191 403 c 1,39,40
 288 450 288 450 386 498 c 1,41,42
 503 557 503 557 560 638 c 1,43,44
 537 654 537 654 480 654 c 0,45,46
 401 654 401 654 85 494 c 1,47,48
 78 493 78 493 72 493 c 0,49,50
 30 493 30 493 30 549 c 0,51,52
 30 595 30 595 140 647 c 0,53,54
 227 689 227 689 357 723 c 1,55,56
 470 754 470 754 510 754 c 0,57,58
 568 754 568 754 628 739 c 0,59,60
 710 719 710 719 710 684 c 0,61,62
 710 620 710 620 555 507 c 0,63,64
 476 449 476 449 374 391 c 1,65,66
 479 379 479 379 578 333 c 0,67,68
 720 267 720 267 720 169 c 0,0,1
EndSplineSet
Validated: 33
EndChar

StartChar: four
Encoding: 52 52 20
Width: 625
Flags: W
LayerCount: 2
Fore
SplineSet
614 421 m 1,0,1
 619 385 619 385 591 361 c 0,2,3
 573 346 573 346 530 329.5 c 128,-1,4
 487 313 487 313 477 305 c 1,5,6
 461 272 461 272 447 109 c 0,7,8
 435 -25 435 -25 400 -27 c 1,9,10
 340 2 340 2 340 85 c 0,11,12
 340 118 340 118 352.5 187.5 c 128,-1,13
 365 257 365 257 365 286 c 1,14,15
 363 288 363 288 361 298 c 0,16,17
 360 303 360 303 345 303 c 0,18,19
 334 303 334 303 313.5 298 c 128,-1,20
 293 293 293 293 280 293 c 0,21,22
 178 293 178 293 112 326 c 0,23,24
 25 369 25 369 25 463 c 0,25,26
 25 491 25 491 88 636 c 0,27,28
 156 793 156 793 190 793 c 0,29,30
 209 793 209 793 232 769.5 c 128,-1,31
 255 746 255 746 255 728 c 0,32,33
 255 715 255 715 200 613 c 128,-1,34
 145 511 145 511 145 499 c 2,35,-1
 145 420 l 1,36,37
 170 411 170 411 225 402 c 0,38,39
 284 393 284 393 323 393 c 0,40,41
 358 393 358 393 363 402 c 0,42,43
 378 430 378 430 394 523 c 0,44,45
 412 634 412 634 426 678 c 0,46,47
 452 762 452 762 498 792 c 1,48,-1
 554 781 l 1,49,50
 557 768 557 768 557 753 c 0,51,52
 557 714 557 714 518.5 613 c 128,-1,53
 480 512 480 512 480 457 c 0,54,55
 480 439 480 439 483 422 c 1,56,57
 496 418 496 418 522.5 435.5 c 128,-1,58
 549 453 549 453 560 453 c 0,59,60
 572 453 572 453 588 440 c 0,61,62
 609 423 609 423 614 421 c 1,0,1
EndSplineSet
Validated: 33
EndChar

StartChar: five
Encoding: 53 53 21
Width: 711
Flags: W
LayerCount: 2
Fore
SplineSet
683 695 m 1,0,1
 656 685 656 685 636 685 c 0,2,3
 619 685 619 685 602.5 694.5 c 128,-1,4
 586 704 586 704 579 704 c 0,5,6
 578 704 578 704 467 679.5 c 128,-1,7
 356 655 356 655 303 655 c 0,8,9
 264 655 264 655 253 667 c 1,10,11
 234 631 234 631 213 542 c 0,12,13
 194 462 194 462 194 439 c 0,14,15
 194 424 194 424 198.5 419.5 c 128,-1,16
 203 415 203 415 203 412 c 1,17,18
 256 412 256 412 368 418 c 128,-1,19
 480 424 480 424 484 424 c 0,20,21
 547 424 547 424 605.5 374.5 c 128,-1,22
 664 325 664 325 664 279 c 0,23,24
 664 177 664 177 563 94 c 0,25,26
 481 27 481 27 352 -14 c 0,27,28
 242 -50 242 -50 174 -46 c 0,29,30
 157 -46 157 -46 110 -20 c 0,31,32
 59 7 59 7 45 27 c 1,33,34
 18 47 18 47 18 74 c 0,35,36
 18 103 18 103 45 133 c 1,37,38
 104 123 104 123 135 102 c 0,39,40
 137 101 137 101 170 69 c 0,41,42
 186 54 186 54 214 54 c 0,43,44
 311 54 311 54 437 126 c 0,45,46
 576 206 576 206 565 286 c 1,47,48
 546 297 546 297 467 311 c 0,49,50
 399 324 399 324 384 324 c 0,51,52
 373 324 373 324 299 314 c 128,-1,53
 225 304 225 304 214 304 c 0,54,55
 167 304 167 304 127 336 c 1,56,57
 84 372 84 372 84 424 c 0,58,59
 84 441 84 441 97.5 475.5 c 128,-1,60
 111 510 111 510 127 530 c 1,61,62
 127 537 127 537 125 576 c 0,63,64
 123 607 123 607 123 626 c 0,65,66
 123 794 123 794 249 794 c 0,67,68
 261 794 261 794 285.5 779 c 128,-1,69
 310 764 310 764 319 764 c 0,70,71
 331 764 331 764 448.5 784 c 128,-1,72
 566 804 566 804 579 804 c 0,73,74
 624 804 624 804 645 791 c 1,75,76
 659 784 659 784 667 769 c 128,-1,77
 675 754 675 754 683 752 c 1,78,-1
 683 695 l 1,0,1
EndSplineSet
Validated: 33
EndChar

StartChar: six
Encoding: 54 54 22
Width: 644
Flags: W
LayerCount: 2
Fore
SplineSet
621 313 m 0,0,1
 629 176 629 176 523 81 c 0,2,3
 425 -7 425 -7 301 -7 c 0,4,5
 181 -7 181 -7 105 96 c 0,6,7
 44 179 44 179 31 298 c 0,8,9
 21 386 21 386 100 519 c 0,10,11
 176 648 176 648 286 742 c 1,12,13
 406 843 406 843 501 843 c 0,14,15
 537 843 537 843 560 821 c 1,16,-1
 560 764 l 1,17,18
 492 744 492 744 352 638 c 0,19,20
 174 503 174 503 121 375 c 1,21,22
 111 340 111 340 111 303 c 0,23,24
 111 240 111 240 134 221 c 1,25,26
 139 221 139 221 144 209 c 0,27,28
 151 194 151 194 155 190 c 1,29,30
 179 293 179 293 273 380 c 0,31,32
 364 463 364 463 441 463 c 0,33,34
 525 463 525 463 558 444 c 0,35,36
 615 413 615 413 621 313 c 0,0,1
521 283 m 0,37,38
 521 312 521 312 503 331 c 0,39,40
 482 353 482 353 441 353 c 0,41,42
 357 353 357 353 294 266 c 0,43,44
 241 193 241 193 241 137 c 2,45,-1
 241 95 l 1,46,47
 264 83 264 83 306 83 c 0,48,49
 379 83 379 83 450 145.5 c 128,-1,50
 521 208 521 208 521 283 c 0,37,38
EndSplineSet
Validated: 33
EndChar

StartChar: seven
Encoding: 55 55 23
Width: 672
Flags: W
LayerCount: 2
Fore
SplineSet
689 752 m 1,0,1
 514 549 514 549 406 346 c 0,2,3
 382 299 382 299 290 90 c 0,4,5
 251 1 251 1 209 -1 c 0,6,7
 185 -2 185 -2 171 25 c 0,8,9
 159 47 159 47 159 74 c 0,10,11
 159 120 159 120 333 396 c 1,12,13
 431 549 431 549 530 701 c 1,14,15
 527 701 527 701 523 705 c 128,-1,16
 519 709 519 709 504 709 c 0,17,18
 485 709 485 709 298 669 c 0,19,20
 108 629 108 629 89 619 c 0,21,22
 77 612 77 612 63 612 c 0,23,24
 32 612 32 612 0 641 c 1,25,-1
 0 687 l 1,26,27
 37 739 37 739 300 783 c 0,28,29
 516 819 516 819 629 819 c 0,30,31
 643 819 643 819 689 797 c 1,32,-1
 689 752 l 1,0,1
EndSplineSet
Validated: 33
EndChar

StartChar: eight
Encoding: 56 56 24
Width: 602
Flags: W
LayerCount: 2
Fore
SplineSet
575 662 m 0,0,1
 575 635 575 635 467 513.5 c 128,-1,2
 359 392 359 392 359 375 c 0,3,4
 359 372 359 372 361 370 c 0,5,6
 447 309 447 309 471 286 c 0,7,8
 555 207 555 207 555 132 c 0,9,10
 555 76 555 76 464 30 c 0,11,12
 388 -8 388 -8 335 -8 c 2,13,-1
 270 -8 l 2,14,15
 226 -8 226 -8 160.5 46 c 128,-1,16
 95 100 95 100 95 142 c 0,17,18
 95 167 95 167 131 231 c 0,19,20
 170 299 170 299 212 342 c 0,21,22
 214 344 214 344 214 347 c 0,23,24
 214 357 214 357 168 393 c 1,25,26
 107 439 107 439 81 468 c 0,27,28
 35 519 35 519 35 567 c 0,29,30
 35 626 35 626 181 702 c 0,31,32
 315 772 315 772 380 772 c 0,33,34
 575 772 575 772 575 662 c 0,0,1
474 684 m 1,35,36
 443 692 443 692 423 692 c 0,37,38
 405 692 405 692 371 684 c 1,39,40
 347 686 347 686 274 655 c 1,41,42
 186 619 186 619 136 571 c 1,43,44
 131 544 131 544 177 490 c 1,45,46
 225 432 225 432 265 432 c 0,47,48
 308 432 308 432 377 531 c 1,49,50
 426 608 426 608 474 684 c 1,35,36
445 137 m 0,51,52
 445 173 445 173 381 232 c 0,53,54
 331 278 331 278 289 302 c 1,55,56
 265 272 265 272 242 242 c 0,57,58
 210 199 210 199 210 164 c 0,59,60
 210 148 210 148 216 133 c 1,61,62
 249 82 249 82 325 82 c 0,63,64
 338 82 338 82 358 92 c 128,-1,65
 378 102 378 102 390 102 c 0,66,67
 411 102 411 102 428 111.5 c 128,-1,68
 445 121 445 121 445 137 c 0,51,52
EndSplineSet
Validated: 33
EndChar

StartChar: nine
Encoding: 57 57 25
Width: 538
Flags: W
LayerCount: 2
Fore
SplineSet
517 649 m 0,0,1
 517 619 517 619 476 441 c 0,2,3
 428 236 428 236 381 97 c 0,4,5
 320 -85 320 -85 277 -91 c 0,6,7
 227 -99 227 -99 227 -31 c 0,8,9
 227 2 227 2 337 304 c 1,10,-1
 358 379 l 1,11,12
 331 349 331 349 265 318 c 0,13,14
 204 289 204 289 182 289 c 0,15,16
 113 289 113 289 63 342 c 0,17,18
 17 391 17 391 17 449 c 0,19,20
 17 581 17 581 122 702 c 0,21,22
 232 829 232 829 362 829 c 0,23,24
 443 829 443 829 485 766 c 0,25,26
 517 717 517 717 517 649 c 0,0,1
417 664 m 0,27,28
 415 683 415 683 397.5 701 c 128,-1,29
 380 719 380 719 362 719 c 0,30,31
 259 719 259 719 182 620 c 0,32,33
 117 537 117 537 117 464 c 0,34,35
 117 430 117 430 139 389 c 1,36,37
 170 376 170 376 201 389 c 1,38,39
 284 389 284 389 354.5 480.5 c 128,-1,40
 425 572 425 572 417 664 c 0,27,28
EndSplineSet
Validated: 33
EndChar

StartChar: colon
Encoding: 58 58 26
Width: 232
Flags: W
LayerCount: 2
Fore
SplineSet
173 417 m 5,0,1
 159 405 159 405 132 395 c 4,2,3
 109 387 109 387 100 387 c 4,4,5
 37 387 37 387 37 436 c 4,6,7
 37 456 37 456 52 483 c 4,8,9
 69 514 69 514 91 514 c 4,10,11
 131 514 131 514 173 473 c 5,12,13
 187 442 187 442 173 417 c 5,0,1
203 117 m 4,14,15
 203 53 203 53 120 53 c 4,16,17
 91 53 91 53 70 65 c 4,18,19
 46 79 46 79 46 102 c 4,20,21
 46 137 46 137 81 161 c 4,22,23
 110 181 110 181 140 181 c 4,24,25
 158 181 158 181 180.5 158 c 132,-1,26
 203 135 203 135 203 117 c 4,14,15
EndSplineSet
Validated: 33
EndChar

StartChar: semicolon
Encoding: 59 59 27
Width: 266
Flags: W
LayerCount: 2
Fore
SplineSet
194 351 m 1,0,1
 179 338 179 338 152 328 c 0,2,3
 129 320 129 320 121 320 c 0,4,5
 57 320 57 320 57 369 c 0,6,7
 57 389 57 389 72 416 c 0,8,9
 89 447 89 447 111 447 c 0,10,11
 151 447 151 447 194 406 c 1,12,13
 200 372 200 372 194 351 c 1,0,1
224 109 m 0,14,15
 224 66 224 66 155 -56 c 0,16,17
 79 -190 79 -190 28 -190 c 0,18,19
 -31 -190 -31 -190 -31 -120 c 0,20,21
 -31 -111 -31 -111 -30 -102 c 1,22,23
 48 -46 48 -46 71 18 c 0,24,25
 73 24 73 24 87 114 c 0,26,27
 94 161 94 161 135 183 c 1,28,29
 169 183 169 183 198 155 c 0,30,31
 224 130 224 130 224 109 c 0,14,15
EndSplineSet
Validated: 33
EndChar

StartChar: equal
Encoding: 61 61 28
Width: 726
Flags: W
LayerCount: 2
Fore
SplineSet
625 505 m 1,0,1
 633 488 633 488 633 475 c 0,2,3
 633 430 633 430 542 430 c 0,4,5
 529 430 529 430 436.5 435 c 128,-1,6
 344 440 344 440 332 440 c 0,7,8
 254 440 254 440 192.5 415 c 128,-1,9
 131 390 131 390 117 390 c 0,10,11
 87 390 87 390 66.5 408.5 c 128,-1,12
 46 427 46 427 46 459 c 0,13,14
 46 469 46 469 48 480 c 1,15,16
 69 503 69 503 179 521 c 0,17,18
 302 540 302 540 472 540 c 0,19,20
 563 540 563 540 625 505 c 1,0,1
676 231 m 1,21,22
 629 207 629 207 394 177 c 0,23,24
 190 150 190 150 142 150 c 0,25,26
 123 150 123 150 102 170 c 128,-1,27
 81 190 81 190 77 210 c 0,28,29
 69 250 69 250 143 265 c 0,30,31
 185 273 185 273 340 283 c 0,32,33
 508 293 508 293 612 310 c 0,34,35
 619 311 619 311 625 311 c 0,36,37
 653 311 653 311 676 289 c 0,38,39
 685 280 685 280 685 265 c 0,40,41
 685 249 685 249 676 231 c 1,21,22
EndSplineSet
Validated: 33
EndChar

StartChar: question
Encoding: 63 63 29
Width: 588
Flags: W
LayerCount: 2
Fore
SplineSet
589 650 m 0,0,1
 589 592 589 592 507 531 c 0,2,3
 448 488 448 488 346 443 c 1,4,5
 291 420 291 420 236 397 c 1,6,7
 189 334 189 334 153 306 c 1,8,9
 139 299 139 299 126 291 c 1,10,-1
 80 291 l 1,11,12
 80 294 80 294 74.5 313.5 c 128,-1,13
 69 333 69 333 69 345 c 0,14,15
 69 412 69 412 175 468 c 1,16,17
 274 510 274 510 373 552 c 0,18,19
 479 598 479 598 479 645 c 0,20,21
 479 717 479 717 324 744 c 1,22,23
 290 744 290 744 162 686 c 0,24,25
 38 630 38 630 15 633 c 0,26,27
 -21 638 -21 638 -30 657 c 0,28,29
 -31 661 -31 661 -31 680 c 0,30,31
 -31 755 -31 755 139 795 c 0,32,33
 268 825 268 825 374 820 c 0,34,35
 435 817 435 817 507 770 c 0,36,37
 589 716 589 716 589 650 c 0,0,1
198 61 m 1,38,39
 148 30 148 30 109 30 c 0,40,41
 93 30 93 30 81 46 c 128,-1,42
 69 62 69 62 69 80 c 0,43,44
 69 111 69 111 89 136 c 128,-1,45
 109 161 109 161 126 161 c 0,46,47
 174 161 174 161 206 131 c 1,48,-1
 198 61 l 1,38,39
EndSplineSet
Validated: 33
EndChar

StartChar: at
Encoding: 64 64 30
Width: 1004
Flags: W
LayerCount: 2
Fore
SplineSet
957 555 m 0,0,1
 957 433 957 433 876 278 c 0,2,3
 785 105 785 105 681 105 c 2,4,-1
 652 105 l 2,5,6
 565 105 565 105 565 231 c 0,7,8
 565 269 565 269 575 312 c 1,9,10
 548 266 548 266 522.5 222 c 128,-1,11
 497 178 497 178 471 162 c 1,12,13
 440 141 440 141 386 141 c 0,14,15
 340 141 340 141 309 181 c 0,16,17
 282 216 282 216 282 258 c 0,18,19
 282 355 282 355 382 452 c 0,20,21
 479 546 479 546 570 546 c 0,22,23
 586 546 586 546 713 517 c 1,24,25
 713 514 713 514 718 507 c 128,-1,26
 723 500 723 500 723 487 c 0,27,28
 723 477 723 477 694 385 c 0,29,30
 663 286 663 286 656 229 c 1,31,32
 659 210 659 210 669 210 c 0,33,34
 673 210 673 210 678 213 c 0,35,36
 837 285 837 285 879 536 c 0,37,38
 881 546 881 546 881 556 c 0,39,40
 881 637 881 637 779 691 c 0,41,42
 695 735 695 735 615 735 c 0,43,44
 526 735 526 735 405 665.5 c 128,-1,45
 284 596 284 596 202 498 c 0,46,47
 111 389 111 389 111 294 c 0,48,49
 111 214 111 214 196 143 c 0,50,51
 264 87 264 87 370 48 c 0,52,53
 459 15 459 15 507 15 c 0,54,55
 509 15 509 15 556 4 c 0,56,57
 600 -7 600 -7 638 -3 c 1,58,59
 690 1 690 1 740 35.5 c 128,-1,60
 790 70 790 70 811 70 c 0,61,62
 829 70 829 70 850 59 c 2,63,-1
 866 50 l 1,64,65
 866 50 866 50 876 0 c 1,66,67
 831 -38 831 -38 775 -59 c 0,68,69
 733 -75 733 -75 708 -75 c 1,70,71
 653 -88 653 -88 582 -88 c 0,72,73
 509 -88 509 -88 441 -75 c 1,74,75
 420 -75 420 -75 330 -40 c 0,76,77
 226 1 226 1 156 44 c 1,78,79
 66 101 66 101 66 146 c 1,80,81
 32 214 32 214 32 292 c 0,82,83
 32 367 32 367 66 443 c 0,84,85
 122 566 122 566 285 690 c 0,86,87
 463 825 463 825 606 825 c 0,88,89
 744 825 744 825 838 769 c 0,90,91
 957 697 957 697 957 555 c 0,0,1
613 455 m 1,92,-1
 531 446 l 1,93,94
 482 446 482 446 428 372 c 0,95,96
 381 306 381 306 381 276 c 0,97,98
 381 264 381 264 387 249 c 128,-1,99
 393 234 393 234 393 231 c 1,100,101
 455 252 455 252 524 331 c 0,102,103
 574 387 574 387 613 455 c 1,92,-1
EndSplineSet
Validated: 33
EndChar

StartChar: A
Encoding: 65 65 31
Width: 531
Flags: W
LayerCount: 2
Fore
SplineSet
492 318 m 0,0,1
 521 169 521 169 521 110 c 0,2,3
 521 22 521 22 471 22 c 0,4,5
 457 22 457 22 439 29 c 1,6,7
 411 35 411 35 405 104 c 0,8,9
 404 117 404 117 404 242 c 1,10,11
 398 249 398 249 392 249 c 1,12,13
 395 249 395 249 369 249 c 0,14,15
 357 249 357 249 276 214 c 1,16,17
 166 168 166 168 145 160 c 1,18,19
 140 146 140 146 119 42 c 0,20,21
 105 -31 105 -31 71 -71 c 1,22,23
 51 -75 51 -75 36 -75 c 0,24,25
 -4 -75 -4 -75 -17 -45 c 1,26,27
 -26 -27 -26 -27 -26 14 c 0,28,29
 -26 23 -26 23 42 232 c 0,30,31
 120 470 120 470 179 627 c 0,32,33
 259 839 259 839 282 839 c 0,34,35
 389 839 389 839 492 318 c 0,0,1
394 373 m 1,36,37
 361 521 361 521 337 570 c 1,38,39
 313 609 313 609 289 649 c 1,40,41
 184 386 184 386 185 353 c 1,42,-1
 185 310 l 1,43,44
 226 323 226 323 317 344 c 0,45,46
 374 357 374 357 394 373 c 1,36,37
EndSplineSet
Validated: 37
EndChar

StartChar: B
Encoding: 66 66 32
Width: 616
Flags: W
LayerCount: 2
Fore
SplineSet
609 366 m 0,0,1
 609 290 609 290 515 182 c 0,2,3
 426 80 426 80 304 5 c 0,4,5
 177 -74 177 -74 89 -74 c 0,6,7
 39 -74 39 -74 39 -19 c 0,8,9
 39 -6 39 -6 67.5 27 c 128,-1,10
 96 60 96 60 96 71 c 0,11,12
 96 74 96 74 90 138.5 c 128,-1,13
 84 203 84 203 84 243 c 0,14,15
 84 264 84 264 86 279 c 1,16,17
 66 299 66 299 47.5 318.5 c 128,-1,18
 29 338 29 338 29 356 c 0,19,20
 29 366 29 366 86 438 c 1,21,22
 86 470 86 470 57.5 568.5 c 128,-1,23
 29 667 29 667 29 681 c 0,24,25
 29 715 29 715 53 748 c 0,26,27
 84 791 84 791 135 791 c 1,28,29
 159 797 159 797 286 838 c 0,30,31
 375 866 375 866 389 866 c 0,32,33
 569 866 569 866 569 726 c 0,34,35
 569 660 569 660 545 629 c 0,36,37
 480 541 480 541 459 503 c 1,38,39
 540 487 540 487 574.5 456.5 c 128,-1,40
 609 426 609 426 609 366 c 0,0,1
469 690 m 1,41,-1
 469 734 l 1,42,43
 423 756 423 756 394 756 c 0,44,45
 318 756 318 756 243 721 c 0,46,47
 153 679 153 679 153 614 c 0,48,49
 153 602 153 602 167 542.5 c 128,-1,50
 181 483 181 483 181 467 c 1,51,52
 270 489 270 489 317 516 c 0,53,54
 420 574 420 574 469 690 c 1,41,-1
509 351 m 0,55,56
 509 406 509 406 439 406 c 0,57,58
 354 406 354 406 328 395 c 0,59,60
 217 347 217 347 180 335 c 1,61,62
 180 315 180 315 183 208 c 0,63,64
 185 130 185 130 180 87 c 1,65,-1
 225 87 l 1,66,67
 271 102 271 102 373 177 c 0,68,69
 509 277 509 277 509 351 c 0,55,56
EndSplineSet
Validated: 33
EndChar

StartChar: C
Encoding: 67 67 33
Width: 524
Flags: W
LayerCount: 2
Fore
SplineSet
511 146 m 0,0,1
 511 62 511 62 413 10 c 0,2,3
 333 -32 333 -32 256 -29 c 0,4,5
 134 -24 134 -24 63 144 c 1,6,7
 7 273 7 273 11 381 c 0,8,9
 17 546 17 546 93 667 c 1,10,11
 182 811 182 811 331 811 c 0,12,13
 406 811 406 811 454 724 c 0,14,15
 491 658 491 658 491 601 c 0,16,17
 491 552 491 552 475 501 c 0,18,19
 455 441 455 441 426 441 c 0,20,21
 356 441 356 441 356 502 c 0,22,23
 356 523 356 523 366.5 571 c 128,-1,24
 377 619 377 619 377 640 c 0,25,26
 377 701 377 701 306 701 c 0,27,28
 203 701 203 701 148 553 c 0,29,30
 111 456 111 456 111 381 c 0,31,32
 111 291 111 291 145 198 c 0,33,34
 192 71 192 71 276 71 c 0,35,36
 341 71 341 71 383 95 c 0,37,38
 406 109 406 109 440 147 c 1,39,40
 472 180 472 180 497 191 c 1,41,42
 511 177 511 177 511 146 c 0,0,1
EndSplineSet
Validated: 33
EndChar

StartChar: D
Encoding: 68 68 34
Width: 556
Flags: W
LayerCount: 2
Fore
SplineSet
542 470 m 0,0,1
 542 375 542 375 455 261 c 0,2,3
 377 159 377 159 266 85 c 128,-1,4
 155 11 155 11 83 14 c 0,5,6
 25 17 25 17 25 216 c 0,7,8
 25 259 25 259 28.5 360.5 c 128,-1,9
 32 462 32 462 32 514 c 0,10,11
 32 654 32 654 13 727 c 0,12,13
 6 752 6 752 6 768 c 0,14,15
 6 820 6 820 72 820 c 0,16,17
 161 820 161 820 273 769.5 c 128,-1,18
 385 719 385 719 459 643 c 0,19,20
 542 557 542 557 542 470 c 0,0,1
156 699 m 1,21,-1
 115 699 l 1,22,23
 126 616 126 616 135 436 c 0,24,25
 144 269 144 269 144 161 c 1,26,27
 263 181 263 181 353.5 271.5 c 128,-1,28
 444 362 444 362 444 455 c 0,29,30
 444 544 444 544 340 616 c 0,31,32
 263 669 263 669 156 699 c 1,21,-1
EndSplineSet
Validated: 33
EndChar

StartChar: E
Encoding: 69 69 35
Width: 602
Flags: W
LayerCount: 2
Fore
SplineSet
636 773 m 1,0,1
 576 694 576 694 445 659 c 0,2,3
 268 613 268 613 249 603 c 0,4,5
 159 554 159 554 159 424 c 0,6,7
 159 402 159 402 162 377 c 1,8,9
 162 380 162 380 185 380 c 0,10,11
 197 380 197 380 328 430 c 128,-1,12
 459 480 459 480 471 479 c 1,13,-1
 544 479 l 1,14,-1
 544 423 l 1,15,16
 449 352 449 352 335 314 c 1,17,18
 244 288 244 288 153 261 c 1,19,20
 145 247 145 247 145 190 c 0,21,22
 145 112 145 112 169 78 c 1,23,24
 194 40 194 40 255 40 c 0,25,26
 313 40 313 40 409 80 c 0,27,28
 550 138 550 138 553 139 c 1,29,30
 553 136 553 136 559 125 c 128,-1,31
 565 114 565 114 565 100 c 0,32,33
 565 57 565 57 492 13 c 0,34,35
 437 -20 437 -20 352 -47 c 1,36,37
 283 -70 283 -70 265 -70 c 0,38,39
 122 -70 122 -70 74 38 c 0,40,41
 45 102 45 102 45 245 c 0,42,43
 45 360 45 360 68 498 c 0,44,45
 105 720 105 720 180 720 c 0,46,47
 191 720 191 720 206.5 715 c 128,-1,48
 222 710 222 710 235 710 c 0,49,50
 272 710 272 710 407.5 760 c 128,-1,51
 543 810 543 810 600 810 c 0,52,53
 617 810 617 810 628 798.5 c 128,-1,54
 639 787 639 787 639 778 c 0,55,56
 639 773 639 773 636 773 c 1,0,1
EndSplineSet
Validated: 33
EndChar

StartChar: F
Encoding: 70 70 36
Width: 566
Flags: W
LayerCount: 2
Fore
SplineSet
571 757 m 0,0,1
 571 741 571 741 563 732.5 c 128,-1,2
 555 724 555 724 547 717 c 1,3,4
 519 718 519 718 480 727.5 c 128,-1,5
 441 737 441 737 431 737 c 0,6,7
 357 737 357 737 297 713 c 1,8,9
 223 682 223 682 150 651 c 1,10,11
 154 632 154 632 154 580 c 1,12,13
 156 502 156 502 157 473 c 1,14,15
 186 480 186 480 280 520 c 0,16,17
 365 556 365 556 377 556 c 1,18,19
 424 569 424 569 470 556 c 1,20,21
 470 552 470 552 475.5 544 c 128,-1,22
 481 536 481 536 481 522 c 0,23,24
 481 495 481 495 401 457 c 0,25,26
 375 445 375 445 248 396 c 0,27,28
 163 364 163 364 157 350 c 1,29,30
 189 97 189 97 189 59 c 0,31,32
 189 -13 189 -13 148 -43 c 1,33,34
 129 -45 129 -45 94 -18 c 1,35,36
 76 91 76 91 52 395 c 0,37,38
 31 668 31 668 31 727 c 0,39,40
 31 757 31 757 54 774 c 0,41,42
 71 787 71 787 86 787 c 0,43,44
 99 787 99 787 116.5 772 c 128,-1,45
 134 757 134 757 146 757 c 0,46,47
 152 757 152 757 194 777 c 1,48,49
 245 803 245 803 286 816 c 0,50,51
 350 837 350 837 411 837 c 0,52,53
 425 837 425 837 437.5 830.5 c 128,-1,54
 450 824 450 824 459 822 c 1,55,56
 468 823 468 823 478 823 c 0,57,58
 514 823 514 823 542.5 801.5 c 128,-1,59
 571 780 571 780 571 757 c 0,0,1
EndSplineSet
Validated: 33
EndChar

StartChar: G
Encoding: 71 71 37
Width: 609
Flags: W
LayerCount: 2
Fore
SplineSet
584 694 m 0,0,1
 584 664 584 664 570 632 c 0,2,3
 552 592 552 592 524 584 c 0,4,5
 507 579 507 579 493 579 c 0,6,7
 443 579 443 579 443 630 c 0,8,9
 443 638 443 638 444 648 c 0,10,11
 444 654 444 654 475 680 c 1,12,-1
 475 718 l 1,13,14
 403 754 403 754 379 754 c 0,15,16
 278 754 278 754 200 633 c 0,17,18
 134 530 134 530 134 440 c 1,19,20
 122 328 122 328 122 291 c 0,21,22
 122 263 122 263 134 178 c 1,23,24
 134 132 134 132 163 89 c 0,25,26
 195 40 195 40 239 44 c 0,27,28
 309 51 309 51 385.5 132 c 128,-1,29
 462 213 462 213 464 287 c 1,30,31
 434 319 434 319 421 319 c 0,32,33
 416 319 416 319 411 318 c 0,34,35
 363 305 363 305 314 277 c 0,36,37
 274 254 274 254 264 254 c 0,38,39
 246 254 246 254 230 265 c 128,-1,40
 214 276 214 276 214 294 c 0,41,42
 214 355 214 355 300 394 c 0,43,44
 366 424 366 424 419 424 c 0,45,46
 462 424 462 424 508 400 c 0,47,48
 564 370 564 370 564 329 c 0,49,50
 564 207 564 207 461 83 c 1,51,52
 355 -47 355 -47 239 -46 c 0,53,54
 149 -45 149 -45 89 24 c 0,55,56
 34 87 34 87 34 170 c 1,57,58
 20 213 20 213 20 278 c 0,59,60
 20 345 20 345 34 418 c 1,61,62
 34 501 34 501 76 602 c 0,63,64
 122 713 122 713 195 783 c 1,65,66
 282 864 282 864 384 864 c 0,67,68
 460 864 460 864 518 822 c 0,69,70
 584 773 584 773 584 694 c 0,0,1
EndSplineSet
Validated: 33
EndChar

StartChar: H
Encoding: 72 72 38
Width: 633
Flags: W
LayerCount: 2
Fore
SplineSet
594 123 m 1,0,1
 594 75 594 75 587 57 c 0,2,3
 575 28 575 28 529 8 c 0,4,5
 525 6 525 6 520 6 c 0,6,7
 494 6 494 6 480 83 c 0,8,9
 473 123 473 123 463 237 c 1,10,11
 456 330 456 330 447 349 c 1,12,13
 275 321 275 321 218 291 c 0,14,15
 165 264 165 264 165 208 c 0,16,17
 165 191 165 191 174.5 125 c 128,-1,18
 184 59 184 59 184 6 c 0,19,20
 184 -46 184 -46 175 -60 c 128,-1,21
 166 -74 166 -74 157 -87 c 1,22,-1
 116 -71 l 1,23,24
 92 -64 92 -64 73 127 c 1,25,26
 61 234 61 234 45 494 c 0,27,28
 31 709 31 709 24 738 c 1,29,30
 21 755 21 755 44.5 776.5 c 128,-1,31
 68 798 68 798 89 798 c 0,32,33
 133 798 133 798 147 627 c 0,34,35
 150 589 150 589 154 414 c 1,36,37
 162 396 162 396 196 396 c 0,38,39
 223 396 223 396 292.5 412 c 128,-1,40
 362 428 362 428 384 428 c 0,41,42
 396 428 396 428 411 417.5 c 128,-1,43
 426 407 426 407 436 407 c 1,44,45
 436 441 436 441 446.5 532.5 c 128,-1,46
 457 624 457 624 457 668 c 0,47,48
 457 741 457 741 435 774 c 0,49,50
 435 775 435 775 453 800 c 0,51,52
 466 818 466 818 479 818 c 0,53,54
 521 818 521 818 554 785 c 1,55,-1
 554 322 l 2,56,57
 554 265 554 265 565 215 c 0,58,59
 572 179 572 179 584 148 c 0,60,61
 594 122 594 122 594 123 c 1,0,1
EndSplineSet
Validated: 33
EndChar

StartChar: I
Encoding: 73 73 39
Width: 403
Flags: W
LayerCount: 2
Fore
SplineSet
304.156 811.566 m 4,0,1
 340.886 811.762 340.886 811.762 351.125 804.578 c 4,2,3
 355.403 801.87 355.403 801.87 358.219 797.729 c 4,4,5
 369.002 781.871 369.002 781.871 361.562 750.031 c 4,6,7
 355.28 723.689 355.28 723.689 346 714.084 c 4,8,9
 326.005 693.392 326.005 693.392 218.781 686.028 c 5,10,11
 246.445 567.878 246.445 567.878 251 445.45 c 4,12,13
 257.528 270.248 257.528 270.248 253.406 134.367 c 5,14,15
 352.212 147.902 352.212 147.902 377.875 131.203 c 4,16,17
 382.596 128.416 382.596 128.416 385.844 124.146 c 4,18,19
 398.117 108.01 398.117 108.01 390.781 76.3428 c 4,20,21
 384.561 50.0967 384.561 50.0967 374.625 40.7432 c 4,22,23
 341.799 9.84277 341.799 9.84277 196.688 5.14355 c 132,-1,24
 51.584 0.438477 51.584 0.438477 25.1875 26.5586 c 5,25,26
 24.1904 60.5859 24.1904 60.5859 44.0312 79.2637 c 132,-1,27
 63.7217 97.7988 63.7217 97.7988 152.875 116.672 c 5,28,29
 148.178 235.747 148.178 235.747 135 441 c 4,30,31
 122.974 624.487 122.974 624.487 121.281 679.771 c 5,32,33
 39.0801 674.836 39.0801 674.836 25.875 689.227 c 5,34,35
 25.7617 734.646 25.7617 734.646 44.5938 754.134 c 4,36,37
 56.3408 766.29 56.3408 766.29 75.4727 772.892 c 132,-1,38
 94.6055 779.496 94.6055 779.496 157.969 793.245 c 4,39,40
 240.845 811.23 240.845 811.23 304.156 811.566 c 4,0,1
EndSplineSet
EndChar

StartChar: J
Encoding: 74 74 40
Width: 590
Flags: W
LayerCount: 2
Fore
SplineSet
629 812 m 1,0,1
 614 772 614 772 559 744 c 0,2,3
 514 721 514 721 469 698 c 1,4,-1
 469 410 l 2,5,6
 469 258 469 258 437 137 c 0,7,8
 384 -62 384 -62 263 -54 c 1,9,10
 184 -62 184 -62 89 90 c 0,11,12
 -1 235 -1 235 -1 336 c 0,13,14
 -1 359 -1 359 25 391 c 1,15,16
 37 397 37 397 48 397 c 0,17,18
 88 397 88 397 123 302 c 0,19,20
 154 216 154 216 184 130 c 1,21,22
 224 39 224 39 274 46 c 1,23,24
 343 90 343 90 361 217 c 0,25,26
 368 269 368 269 368 449 c 0,27,28
 368 581 368 581 363 611 c 0,29,30
 349 691 349 691 289 691 c 0,31,32
 266 691 266 691 235 680 c 1,33,34
 230 699 230 699 230 714 c 0,35,36
 230 745 230 745 256 760 c 0,37,38
 288 778 288 778 292 785 c 1,39,40
 325 780 325 780 413 812 c 0,41,42
 507 846 507 846 549 846 c 0,43,44
 584 846 584 846 629 812 c 1,0,1
EndSplineSet
Validated: 33
EndChar

StartChar: K
Encoding: 75 75 41
Width: 601
Flags: W
LayerCount: 2
Fore
SplineSet
600 716 m 1,0,1
 527 641 527 641 402 580 c 0,2,3
 217 489 217 489 180 466 c 1,4,5
 194 451 194 451 296 382 c 0,6,7
 412 303 412 303 464 259 c 0,8,9
 550 187 550 187 550 147 c 0,10,11
 550 130 550 130 528 107 c 128,-1,12
 506 84 506 84 485 82 c 0,13,14
 459 80 459 80 433 112 c 0,15,16
 378 182 378 182 357 202 c 0,17,18
 287 271 287 271 174 333 c 1,19,-1
 140 333 l 1,20,-1
 140 16 l 2,21,22
 140 0 140 0 129 -9.5 c 128,-1,23
 118 -19 118 -19 107 -26 c 0,24,25
 84 -42 84 -42 67 -42 c 256,26,27
 50 -42 50 -42 42 -26 c 1,28,29
 38 -32 38 -32 35 -32 c 0,30,31
 28 -32 28 -32 28 -2 c 0,32,33
 28 24 28 24 32.5 56.5 c 128,-1,34
 37 89 37 89 39 89 c 1,35,36
 40 88 40 88 40 78 c 2,37,-1
 55 358 l 1,38,39
 23 378 23 378 23 422 c 0,40,41
 23 452 23 452 31 459 c 0,42,43
 89 507 89 507 69 604 c 1,44,45
 50 677 50 677 32 750 c 1,46,47
 29 818 29 818 125 822 c 0,48,49
 174 824 174 824 174 681 c 0,50,51
 174 671 174 671 174 651 c 128,-1,52
 174 631 174 631 174 622 c 0,53,54
 174 579 174 579 177 562 c 1,55,56
 286 628 286 628 401 692 c 0,57,58
 528 762 528 762 545 762 c 0,59,60
 578 762 578 762 600 716 c 1,0,1
EndSplineSet
Validated: 33
EndChar

StartChar: L
Encoding: 76 76 42
Width: 539
Flags: W
LayerCount: 2
Fore
SplineSet
563 120 m 1,0,1
 493 69 493 69 378.5 26 c 128,-1,2
 264 -17 264 -17 195 -17 c 0,3,4
 114 -17 114 -17 65.5 32 c 128,-1,5
 17 81 17 81 17 158 c 0,6,7
 17 177 17 177 20 198 c 0,8,9
 42 334 42 334 63 471 c 1,10,11
 92 647 92 647 120 736 c 1,12,13
 156 857 156 857 200 863 c 0,14,15
 230 867 230 867 248 832 c 0,16,17
 260 809 260 809 260 793 c 0,18,19
 260 761 260 761 224 652 c 0,20,21
 172 497 172 497 157 439 c 0,22,23
 120 305 120 305 120 213 c 0,24,25
 120 69 120 69 198 69 c 0,26,27
 211 69 211 69 225 73 c 0,28,29
 283 87 283 87 390 146 c 0,30,31
 478 195 478 195 509 190 c 0,32,33
 520 188 520 188 538 181 c 0,34,35
 552 176 552 176 563 176 c 1,36,-1
 563 120 l 1,0,1
EndSplineSet
Validated: 33
EndChar

StartChar: M
Encoding: 77 77 43
Width: 891
Flags: W
LayerCount: 2
Fore
SplineSet
847 484 m 1,0,1
 847 32 847 32 763 32 c 0,2,3
 743 32 743 32 725 52.5 c 128,-1,4
 707 73 707 73 707 94 c 0,5,6
 707 107 707 107 723 167 c 0,7,8
 743 239 743 239 747 259 c 1,9,10
 747 252 747 252 750 307 c 128,-1,11
 753 362 753 362 753 416 c 0,12,13
 753 518 753 518 742 604 c 1,14,15
 688 545 688 545 603 347 c 0,16,17
 500 106 500 106 464 44 c 1,18,19
 434 22 434 22 420 22 c 0,20,21
 404 22 404 22 389 44 c 1,22,23
 360 114 360 114 355 273 c 0,24,25
 348 467 348 467 321 594 c 1,26,27
 268 547 268 547 216 387 c 1,28,29
 175 249 175 249 135 112 c 1,30,31
 91 -31 91 -31 57 -46 c 0,32,33
 51 -49 51 -49 45 -49 c 0,34,35
 36 -49 36 -49 23.5 -42 c 128,-1,36
 11 -35 11 -35 9.5 -33.5 c 128,-1,37
 8 -32 8 -32 2.5 -15.5 c 128,-1,38
 -3 1 -3 1 -3 14 c 0,39,40
 -3 47 -3 47 61 228 c 0,41,42
 131 428 131 428 200 567 c 0,43,44
 287 744 287 744 337 744 c 0,45,46
 389 744 389 744 422 539 c 1,47,48
 437 406 437 406 453 273 c 1,49,50
 477 310 477 310 554 454 c 0,51,52
 635 605 635 605 676 669 c 0,53,54
 742 774 742 774 772 774 c 0,55,56
 849 774 849 774 849 554 c 0,57,58
 849 533 849 533 848 508.5 c 128,-1,59
 847 484 847 484 847 484 c 1,0,1
EndSplineSet
Validated: 33
EndChar

StartChar: N
Encoding: 78 78 44
Width: 685
Flags: W
LayerCount: 2
Fore
SplineSet
656 406 m 0,0,1
 656 249 656 249 644 180 c 0,2,3
 620 46 620 46 546 46 c 0,4,5
 482 46 482 46 329 275 c 1,6,7
 251 400 251 400 172 526 c 1,8,9
 166 420 166 420 159 314 c 0,10,11
 152 204 152 204 133 154 c 0,12,13
 108 88 108 88 50 76 c 1,14,15
 26 95 26 95 26 116 c 0,16,17
 26 125 26 125 49.5 230.5 c 128,-1,18
 73 336 73 336 73 397 c 0,19,20
 73 497 73 497 61 563 c 0,21,22
 53 602 53 602 38 639 c 0,23,24
 26 668 26 668 26 681 c 0,25,26
 26 700 26 700 58 727 c 0,27,28
 87 751 87 751 106 756 c 0,29,30
 150 767 150 767 238 625 c 1,31,32
 317 486 317 486 397 346 c 1,33,34
 490 186 490 186 540 166 c 1,35,36
 556 209 556 209 556 272 c 1,37,38
 564 328 564 328 564 399 c 0,39,40
 564 468 564 468 556 520 c 1,41,42
 556 532 556 532 521 652.5 c 128,-1,43
 486 773 486 773 486 786 c 0,44,45
 486 819 486 819 491 825 c 0,46,47
 499 836 499 836 541 836 c 0,48,49
 609 836 609 836 639 623 c 0,50,51
 656 506 656 506 656 406 c 0,0,1
EndSplineSet
Validated: 33
EndChar

StartChar: O
Encoding: 79 79 45
Width: 671
Flags: W
LayerCount: 2
Fore
SplineSet
652 502 m 0,0,1
 652 424 652 424 586 303 c 128,-1,2
 520 182 520 182 429 98 c 0,3,4
 324 2 324 2 232 2 c 0,5,6
 22 2 22 2 22 307 c 0,7,8
 22 472 22 472 107 612 c 0,9,10
 211 782 211 782 382 782 c 0,11,12
 501 782 501 782 576.5 705 c 128,-1,13
 652 628 652 628 652 502 c 0,0,1
552 497 m 0,14,15
 552 544 552 544 526 599 c 0,16,17
 491 672 491 672 432 672 c 0,18,19
 420 672 420 672 407.5 662 c 128,-1,20
 395 652 395 652 382 652 c 0,21,22
 366 652 366 652 360 658.5 c 128,-1,23
 354 665 354 665 348 672 c 1,24,25
 237 672 237 672 174 543 c 0,26,27
 122 435 122 435 122 292 c 0,28,29
 122 216 122 216 130 184 c 0,30,31
 153 91 153 91 232 92 c 1,32,33
 340 95 340 95 448 237 c 0,34,35
 552 374 552 374 552 497 c 0,14,15
EndSplineSet
Validated: 33
EndChar

StartChar: P
Encoding: 80 80 46
Width: 601
Flags: W
LayerCount: 2
Fore
SplineSet
155 287 m 1,0,1
 150 249 150 249 150 202 c 0,2,3
 150 168 150 168 153 110.5 c 128,-1,4
 156 53 156 53 156 30 c 0,5,6
 156 -29 156 -29 141 -55 c 0,7,8
 123 -87 123 -87 78 -84 c 1,9,10
 60 -60 60 -60 60 4 c 0,11,12
 60 28 60 28 63.5 84.5 c 128,-1,13
 67 141 67 141 67 170 c 0,14,15
 67 280 67 280 24 319 c 1,16,17
 44 418 44 418 44 487 c 256,18,19
 44 556 44 556 24 643 c 1,20,21
 71 681 71 681 158 712 c 0,22,23
 258 748 258 748 364 756 c 0,24,25
 380 757 380 757 394 757 c 0,26,27
 434 757 434 757 463.5 746.5 c 128,-1,28
 493 736 493 736 499 736 c 1,29,30
 499 736 499 736 499 736 c 129,-1,31
 499 736 499 736 499 736 c 1,32,33
 528 723 528 723 553 695 c 1,34,35
 568 676 568 676 582 658 c 1,36,37
 587 630 587 630 587 605 c 0,38,39
 587 455 587 455 429 371 c 1,40,41
 338 324 338 324 155 287 c 1,0,1
474 566 m 0,42,43
 474 622 474 622 451.5 644 c 128,-1,44
 429 666 429 666 369 666 c 0,45,46
 304 666 304 666 231 640 c 1,47,48
 134 604 134 604 134 546 c 0,49,50
 134 529 134 529 144 493 c 128,-1,51
 154 457 154 457 154 440 c 0,52,53
 154 414 154 414 135 398 c 1,54,-1
 287 398 l 1,55,56
 330 396 330 396 399 452 c 0,57,58
 474 513 474 513 474 566 c 0,42,43
EndSplineSet
Validated: 33
EndChar

StartChar: Q
Encoding: 81 81 47
Width: 657
Flags: W
LayerCount: 2
Fore
SplineSet
633 485 m 0,0,1
 633 267 633 267 435 108 c 1,2,3
 433 99 433 99 433 89 c 0,4,5
 433 69 433 69 441.5 20.5 c 128,-1,6
 450 -28 450 -28 450 -53 c 0,7,8
 450 -117 450 -117 409 -155 c 1,9,10
 370 -144 370 -144 357 -101 c 0,11,12
 354 -91 354 -91 344 -17 c 0,13,14
 337 33 337 33 316 52 c 1,15,16
 125 43 125 43 57 139 c 0,17,18
 13 202 13 202 13 345 c 0,19,20
 13 479 13 479 78 603 c 0,21,22
 169 775 169 775 343 775 c 0,23,24
 385 775 385 775 407 760 c 0,25,26
 409 759 409 759 434 732 c 0,27,28
 447 717 447 717 470 717 c 0,29,30
 571 720 571 720 608 645 c 0,31,32
 633 594 633 594 633 485 c 0,0,1
553 505 m 0,33,34
 556 550 556 550 488 635 c 1,35,36
 468 615 468 615 443 615 c 0,37,38
 422 615 422 615 402 630 c 128,-1,39
 382 645 382 645 378 645 c 0,40,41
 365 645 365 645 338 629 c 128,-1,42
 311 613 311 613 296 613 c 0,43,44
 289 613 289 613 283 615 c 0,45,46
 272 619 272 619 266.5 627 c 128,-1,47
 261 635 261 635 248 635 c 0,48,49
 184 635 184 635 143 511 c 0,50,51
 113 418 113 418 113 350 c 0,52,53
 113 260 113 260 142 205 c 0,54,55
 179 135 179 135 258 135 c 0,56,57
 272 135 272 135 280.5 141 c 128,-1,58
 289 147 289 147 292 147 c 1,59,-1
 292 212 l 1,60,61
 293 224 293 224 273 263.5 c 128,-1,62
 253 303 253 303 253 315 c 0,63,64
 253 328 253 328 264 349 c 0,65,66
 279 375 279 375 298 375 c 0,67,68
 334 375 334 375 355 340 c 0,69,70
 368 319 368 319 382.5 265.5 c 128,-1,71
 397 212 397 212 407 195 c 1,72,73
 465 229 465 229 503 307 c 0,74,75
 545 391 545 391 553 505 c 0,33,34
EndSplineSet
Validated: 33
EndChar

StartChar: R
Encoding: 82 82 48
Width: 640
Flags: W
LayerCount: 2
Fore
SplineSet
664 683 m 0,0,1
 666 574 666 574 482 482 c 0,2,3
 359 420 359 420 224 391 c 1,4,5
 320 302 320 302 415 212 c 1,6,7
 594 36 594 36 594 -22 c 0,8,9
 594 -81 594 -81 556 -81 c 0,10,11
 542 -81 542 -81 529 -72 c 1,12,13
 529 -72 529 -72 371 97 c 0,14,15
 204 275 204 275 159 313 c 1,16,17
 158 296 158 296 158 264 c 2,18,-1
 158 182 l 1,19,20
 156 -30 156 -30 102 -42 c 1,21,-1
 67 -42 l 1,22,23
 41 -36 41 -36 41 47 c 0,24,25
 41 94 41 94 49 151 c 0,26,27
 57 204 57 204 65 224 c 1,28,-1
 65 350 l 1,29,30
 40 360 40 360 -15 389 c 1,31,-1
 -15 446 l 1,32,33
 11 470 11 470 42 470 c 0,34,35
 55 470 55 470 72 467 c 1,36,-1
 65 734 l 1,37,38
 83 780 83 780 175.5 809 c 128,-1,39
 268 838 268 838 399 838 c 0,40,41
 474 838 474 838 546 813 c 0,42,43
 663 772 663 772 664 683 c 0,0,1
564 663 m 0,44,45
 561 748 561 748 389 748 c 0,46,47
 348 748 348 748 265 723 c 0,48,49
 190 701 190 701 165 686 c 1,50,-1
 171 462 l 1,51,52
 267 480 267 480 380 521 c 0,53,54
 567 590 567 590 564 663 c 0,44,45
EndSplineSet
Validated: 33
EndChar

StartChar: S
Encoding: 83 83 49
Width: 575
Flags: W
LayerCount: 2
Fore
SplineSet
555 665 m 0,0,1
 555 630 555 630 512 595 c 0,2,3
 476 566 476 566 444.5 560 c 128,-1,4
 413 554 413 554 398 554 c 0,5,6
 371 554 371 554 371 579 c 0,7,8
 371 589 371 589 375 611 c 1,9,10
 418 622 418 622 435 655 c 1,11,12
 423 682 423 682 397 688 c 0,13,14
 388 690 388 690 350 690 c 0,15,16
 128 690 128 690 125 590 c 0,17,18
 123 525 123 525 229 455 c 1,19,20
 328 394 328 394 428 334 c 1,21,22
 535 256 535 256 535 175 c 1,23,24
 534 100 534 100 418 59 c 0,25,26
 336 30 336 30 260 30 c 0,27,28
 -5 30 -5 30 -5 150 c 0,29,30
 -5 182 -5 182 -2 188 c 0,31,32
 9 211 9 211 55 210 c 0,33,34
 80 209 80 209 97 189 c 0,35,36
 120 160 120 160 139 150 c 0,37,38
 179 130 179 130 260 130 c 0,39,40
 334 130 334 130 343 132 c 0,41,42
 378 138 378 138 425 176 c 1,43,44
 402 238 402 238 293 310 c 0,45,46
 116 426 116 426 108 433 c 0,47,48
 15 510 15 510 15 595 c 0,49,50
 15 703 15 703 155 756 c 0,51,52
 262 797 262 797 380 790 c 0,53,54
 440 787 440 787 492 756 c 0,55,56
 555 719 555 719 555 665 c 0,0,1
EndSplineSet
Validated: 33
EndChar

StartChar: T
Encoding: 84 84 50
Width: 623
Flags: W
LayerCount: 2
Fore
SplineSet
437 768 m 0,0,1
 380 660 380 660 350 488 c 0,2,3
 350 487 350 487 307 177 c 0,4,5
 302 137 302 137 302 99 c 0,6,7
 302 70 302 70 305.5 32.5 c 128,-1,8
 309 -5 309 -5 309 -15 c 0,9,10
 309 -59 309 -59 261 -77 c 1,11,-1
 217 -77 l 1,12,13
 195 -17 195 -17 195 13 c 1,14,15
 218 229 218 229 250 409 c 1,16,17
 273 529 273 529 295 649 c 1,18,-1
 295 716 l 1,19,20
 292 719 292 719 288 723 c 1,21,22
 290 723 290 723 270 723 c 0,23,24
 255 723 255 723 144 688 c 0,25,26
 45 657 45 657 17 647 c 0,27,28
 11 645 11 645 5 645 c 0,29,30
 -13 645 -13 645 -26.5 661 c 128,-1,31
 -40 677 -40 677 -40 698 c 0,32,33
 -40 710 -40 710 -36 720 c 0,34,35
 -17 760 -17 760 200 827 c 0,36,37
 424 896 424 896 554 896 c 0,38,39
 651 896 651 896 645 850 c 1,40,41
 631 816 631 816 583 807 c 1,42,43
 541 803 541 803 498 798 c 0,44,45
 450 792 450 792 437 768 c 0,0,1
EndSplineSet
Validated: 33
EndChar

StartChar: U
Encoding: 85 85 51
Width: 519
Flags: W
LayerCount: 2
Fore
SplineSet
502 560 m 0,0,1
 502 484 502 484 469 374 c 0,2,3
 429 243 429 243 365 161 c 0,4,5
 286 60 286 60 187 60 c 0,6,7
 97 60 97 60 53 156 c 0,8,9
 21 226 21 226 21 318 c 0,10,11
 21 333 21 333 22 345 c 0,12,13
 28 425 28 425 34 506 c 1,14,15
 43 608 43 608 61 658 c 0,16,17
 84 724 84 724 127 720 c 0,18,19
 182 714 182 714 182 665 c 0,20,21
 182 652 182 652 152 514.5 c 128,-1,22
 122 377 122 377 122 365 c 0,23,24
 124 253 124 253 127 236 c 0,25,26
 141 165 141 165 200 164 c 0,27,28
 300 161 300 161 358 334 c 0,29,30
 398 454 398 454 398 540 c 0,31,32
 398 551 398 551 385 637 c 128,-1,33
 372 723 372 723 372 735 c 0,34,35
 372 750 372 750 388.5 765 c 128,-1,36
 405 780 405 780 422 780 c 0,37,38
 465 780 465 780 487 677 c 0,39,40
 502 611 502 611 502 560 c 0,0,1
EndSplineSet
Validated: 33
EndChar

StartChar: V
Encoding: 86 86 52
Width: 641
Flags: W
LayerCount: 2
Fore
SplineSet
649 726 m 0,0,1
 649 685 649 685 583 497 c 0,2,3
 510 288 510 288 435 144 c 0,4,5
 340 -40 340 -40 280 -40 c 0,6,7
 217 -40 217 -40 140 156 c 0,8,9
 88 290 88 290 32 512 c 0,10,11
 -11 680 -11 680 -11 681 c 0,12,13
 -11 696 -11 696 5.5 712.5 c 128,-1,14
 22 729 22 729 39 736 c 0,15,16
 51 741 51 741 61 741 c 0,17,18
 98 741 98 741 119 653 c 1,19,20
 146 534 146 534 172 415 c 1,21,22
 219 231 219 231 298 70 c 1,23,24
 364 167 364 167 425 346 c 1,25,26
 468 486 468 486 511 626 c 0,27,28
 553 760 553 760 581 775 c 1,29,-1
 636 775 l 1,30,31
 649 763 649 763 649 726 c 0,0,1
EndSplineSet
Validated: 1
EndChar

StartChar: W
Encoding: 87 87 53
Width: 810
Flags: W
LayerCount: 2
Fore
SplineSet
792 860 m 0,0,1
 780 834 780 834 759 587 c 1,2,3
 734 307 734 307 709 180 c 1,4,5
 667 -24 667 -24 602 -5 c 0,6,7
 547 11 547 11 473 192 c 1,8,9
 439 284 439 284 406 375 c 1,10,11
 376 333 376 333 332 213 c 0,12,13
 284 83 284 83 259 39 c 0,14,15
 212 -41 212 -41 156 -35 c 1,16,17
 60 -6 60 -6 32 342 c 0,18,19
 22 464 22 464 22 710 c 0,20,21
 22 781 22 781 65 781 c 0,22,23
 75 781 75 781 87 775 c 0,24,25
 132 752 132 752 132 691 c 2,26,-1
 132 339 l 2,27,28
 132 332 132 332 137 291.5 c 128,-1,29
 142 251 142 251 142 235 c 0,30,31
 142 216 142 216 152 172 c 0,32,33
 163 124 163 124 177 95 c 1,34,35
 236 172 236 172 293 359 c 0,36,37
 347 539 347 539 396 595 c 1,38,39
 431 598 431 598 461 517 c 1,40,41
 488 424 488 424 516 332 c 0,42,43
 554 204 554 204 597 135 c 1,44,45
 643 202 643 202 648 391 c 0,46,47
 652 551 652 551 655 710 c 1,48,49
 668 877 668 877 736 915 c 1,50,51
 793 886 793 886 793 867 c 0,52,53
 793 863 793 863 792 860 c 0,0,1
EndSplineSet
Validated: 33
EndChar

StartChar: X
Encoding: 88 88 54
Width: 658
Flags: W
LayerCount: 2
Fore
SplineSet
636 687 m 1,0,1
 561 624 561 624 485 562 c 1,2,3
 347 443 347 443 347 399 c 0,4,5
 347 347 347 347 442 151 c 1,6,7
 490 55 490 55 537 -41 c 1,8,9
 538 -74 538 -74 526.5 -85 c 128,-1,10
 515 -96 515 -96 504 -106 c 1,11,12
 496 -108 496 -108 489 -108 c 0,13,14
 449 -108 449 -108 410 -28 c 0,15,16
 391 10 391 10 343 143 c 0,17,18
 302 259 302 259 273 303 c 1,19,20
 242 299 242 299 201 226 c 1,21,22
 166 160 166 160 131 94 c 1,23,24
 90 27 90 27 57 34 c 0,25,26
 45 37 45 37 34 41.5 c 128,-1,27
 23 46 23 46 18 46 c 1,28,-1
 18 118 l 2,29,30
 18 124 18 124 122.5 265.5 c 128,-1,31
 227 407 227 407 227 424 c 0,32,33
 227 456 227 456 175 578 c 1,34,35
 120 704 120 704 97 704 c 0,36,37
 83 704 83 704 71.5 707 c 128,-1,38
 60 710 60 710 57 710 c 1,39,40
 57 796 57 796 73 822 c 0,41,42
 86 844 86 844 127 844 c 0,43,44
 173 844 173 844 241 687 c 1,45,46
 277 595 277 595 313 504 c 1,47,48
 378 583 378 583 443 661 c 1,49,50
 535 764 535 764 597 764 c 0,51,52
 612 764 612 764 622.5 758.5 c 128,-1,53
 633 753 633 753 636 753 c 1,54,-1
 636 687 l 1,0,1
EndSplineSet
Validated: 33
EndChar

StartChar: Y
Encoding: 89 89 55
Width: 623
Flags: W
LayerCount: 2
Fore
SplineSet
618 712 m 0,0,1
 618 651 618 651 521 454 c 1,2,3
 432 276 432 276 324 105 c 0,4,5
 212 -74 212 -74 173 -93 c 1,6,7
 137 -85 137 -85 132.5 -78.5 c 128,-1,8
 128 -72 128 -72 128 -23 c 0,9,10
 128 5 128 5 172 77 c 128,-1,11
 216 149 216 149 216 162 c 0,12,13
 216 165 216 165 215 167 c 0,14,15
 167 238 167 238 100 412 c 0,16,17
 20 621 20 621 20 733 c 0,18,19
 20 749 20 749 22 762 c 1,20,21
 55 797 55 797 77 797 c 1,22,23
 112 774 112 774 141 665 c 128,-1,24
 170 556 170 556 199 446 c 1,25,26
 239 308 239 308 294 233 c 1,27,28
 340 298 340 298 430 523 c 0,29,30
 511 723 511 723 551 756 c 1,31,-1
 605 756 l 1,32,33
 618 744 618 744 618 712 c 0,0,1
EndSplineSet
Validated: 1
EndChar

StartChar: Z
Encoding: 90 90 56
Width: 656
Flags: W
LayerCount: 2
Fore
SplineSet
645 703 m 0,0,1
 645 595 645 595 544 469 c 0,2,3
 473 381 473 381 329 259 c 0,4,5
 154 112 154 112 135 92 c 1,6,7
 147 58 147 58 195 58 c 0,8,9
 208 58 208 58 380.5 93 c 128,-1,10
 553 128 553 128 565 128 c 0,11,12
 579 128 579 128 589.5 122.5 c 128,-1,13
 600 117 600 117 604 117 c 1,14,15
 620 92 620 92 620 71 c 0,16,17
 620 48 620 48 604 40 c 1,18,19
 522 11 522 11 400 -14 c 0,20,21
 262 -42 262 -42 175 -42 c 0,22,23
 111 -42 111 -42 66 -23 c 0,24,25
 6 3 6 3 5 58 c 0,26,27
 4 103 4 103 137 222 c 0,28,29
 263 335 263 335 388 448 c 1,30,31
 527 585 527 585 536 670 c 1,32,33
 533 678 533 678 510 678 c 0,34,35
 498 678 498 678 334 608 c 128,-1,36
 170 538 170 538 160 538 c 0,37,38
 139 538 139 538 118 557 c 128,-1,39
 97 576 97 576 95 593 c 0,40,41
 91 641 91 641 202 686 c 0,42,43
 270 713 270 713 422 752 c 0,44,45
 556 786 556 786 575 798 c 0,46,47
 584 804 584 804 593 804 c 0,48,49
 617 804 617 804 633 759 c 0,50,51
 645 725 645 725 645 703 c 0,0,1
EndSplineSet
Validated: 33
EndChar

StartChar: a
Encoding: 97 97 57
Width: 565
Flags: W
LayerCount: 2
Fore
SplineSet
563 -43 m 0,0,1
 563 -58 563 -58 541 -102 c 1,2,-1
 475 -102 l 1,3,4
 442 -56 442 -56 429 54 c 128,-1,5
 416 164 416 164 386 207 c 1,6,7
 241 163 241 163 120 104 c 1,8,9
 98 92 98 92 90 44 c 0,10,11
 81 -9 81 -9 76 -14 c 0,12,13
 68 -23 68 -23 38 -23 c 0,14,15
 7 -23 7 -23 -12 -1 c 0,16,17
 -27 17 -27 17 -27 37 c 0,18,19
 -27 79 -27 79 42 254 c 1,20,21
 81 349 81 349 119 443 c 1,22,23
 207 696 207 696 216 718 c 0,24,25
 272 851 272 851 320 851 c 0,26,27
 330 851 330 851 340 846 c 1,28,29
 376 783 376 783 472 377 c 0,30,31
 563 -7 563 -7 563 -43 c 0,0,1
372 299 m 1,32,33
 365 389 365 389 345 489 c 0,34,35
 323 603 323 603 298 657 c 1,36,37
 293 646 293 646 202 438 c 0,38,39
 143 305 143 305 144 291 c 1,40,-1
 144 238 l 1,41,42
 258 282 258 282 372 299 c 1,32,33
EndSplineSet
Validated: 33
EndChar

StartChar: b
Encoding: 98 98 58
Width: 648
Flags: W
LayerCount: 2
Fore
SplineSet
658 337 m 0,0,1
 658 249 658 249 543 155 c 0,2,3
 450 79 450 79 311 20 c 0,4,5
 186 -33 186 -33 128 -33 c 0,6,7
 87 -33 87 -33 61 -8 c 0,8,9
 38 13 38 13 38 37 c 0,10,11
 38 44 38 44 58 107.5 c 128,-1,12
 78 171 78 171 78 192 c 0,13,14
 78 267 78 267 66 308 c 0,15,16
 59 331 59 331 43 352 c 0,17,18
 30 370 30 370 28 387 c 0,19,20
 26 410 26 410 39 427 c 1,21,22
 63 455 63 455 66 460 c 0,23,24
 80 487 80 487 78 537 c 0,25,26
 74 633 74 633 65 641 c 1,27,28
 32 649 32 649 -1 658 c 1,29,-1
 -1 713 l 1,30,31
 40 767 40 767 127 809 c 0,32,33
 228 857 228 857 333 857 c 0,34,35
 414 857 414 857 452 837 c 0,36,37
 498 812 498 812 498 752 c 0,38,39
 498 701 498 701 438 629 c 0,40,41
 393 576 393 576 348 523 c 1,42,43
 404 511 404 511 460 499 c 0,44,45
 547 479 547 479 593 448 c 0,46,47
 658 405 658 405 658 337 c 0,0,1
377 744 m 1,48,49
 352 757 352 757 308 757 c 0,50,51
 270 757 270 757 245 745 c 1,52,53
 207 724 207 724 169 704 c 1,54,55
 181 616 181 616 181 507 c 1,56,57
 285 571 285 571 325 613 c 0,58,59
 381 673 381 673 377 744 c 1,48,49
558 344 m 1,60,61
 529 371 529 371 474 394 c 128,-1,62
 419 417 419 417 388 417 c 0,63,64
 313 417 313 417 246 395 c 0,65,66
 158 365 158 365 158 312 c 0,67,68
 158 299 158 299 171 217 c 0,69,70
 186 122 186 122 190 88 c 1,71,72
 289 109 289 109 390 166 c 0,73,74
 528 245 528 245 558 344 c 1,60,61
EndSplineSet
Validated: 33
EndChar

StartChar: c
Encoding: 99 99 59
Width: 553
Flags: W
LayerCount: 2
Fore
SplineSet
543 177 m 0,0,1
 522 105 522 105 434 53 c 0,2,3
 359 8 359 8 298 7 c 0,4,5
 142 5 142 5 65 193 c 0,6,7
 13 320 13 320 13 457 c 0,8,9
 13 568 13 568 76 680 c 0,10,11
 153 817 153 817 273 817 c 0,12,13
 356 817 356 817 405 735 c 0,14,15
 443 672 443 672 443 607 c 0,16,17
 443 582 443 582 422 531 c 0,18,19
 396 470 396 470 368 467 c 0,20,21
 284 460 284 460 284 519 c 0,22,23
 284 538 284 538 293 562 c 0,24,25
 296 570 296 570 316 588 c 0,26,27
 333 603 333 603 333 617 c 0,28,29
 333 649 333 649 306.5 678 c 128,-1,30
 280 707 280 707 253 707 c 0,31,32
 188 707 188 707 141 596 c 0,33,34
 102 503 102 503 103 427 c 0,35,36
 104 321 104 321 158 221 c 1,37,38
 218 107 218 107 303 107 c 0,39,40
 366 107 366 107 425 146.5 c 128,-1,41
 484 186 484 186 512 247 c 1,42,43
 526 255 526 255 535 255 c 0,44,45
 552 255 552 255 552 229 c 0,46,47
 552 210 552 210 543 177 c 0,0,1
EndSplineSet
Validated: 33
EndChar

StartChar: d
Encoding: 100 100 60
Width: 611
Flags: W
LayerCount: 2
Fore
SplineSet
595 481 m 0,0,1
 604 385 604 385 509 243 c 0,2,3
 421 111 421 111 298 15 c 0,4,5
 168 -87 168 -87 85 -79 c 0,6,7
 71 -78 71 -78 55.5 -73 c 128,-1,8
 40 -68 40 -68 36 -68 c 1,9,-1
 36 -2 l 1,10,11
 37 0 37 0 83 29 c 1,12,13
 118 53 118 53 118 72 c 0,14,15
 118 78 118 78 115 84 c 1,16,-1
 35 671 l 1,17,18
 20 724 20 724 20 753 c 0,19,20
 20 801 20 801 65 813 c 0,21,22
 91 819 91 819 205 821 c 0,23,24
 317 822 317 822 444 724 c 1,25,26
 582 616 582 616 595 481 c 0,0,1
495 451 m 0,27,28
 491 574 491 574 401 644 c 0,29,30
 316 711 316 711 185 711 c 0,31,32
 153 711 153 711 142 688 c 0,33,34
 135 673 135 673 135 636 c 0,35,36
 135 612 135 612 160 418 c 0,37,38
 187 206 187 206 207 92 c 1,39,40
 298 114 298 114 395 227 c 0,41,42
 498 347 498 347 495 451 c 0,27,28
EndSplineSet
Validated: 33
EndChar

StartChar: e
Encoding: 101 101 61
Width: 620
Flags: W
LayerCount: 2
Fore
SplineSet
653 813 m 1,0,1
 636 777 636 777 490 760 c 0,2,3
 315 739 315 739 244 699 c 0,4,5
 120 628 120 628 132 456 c 1,6,7
 138 450 138 450 144.5 444.5 c 128,-1,8
 151 439 151 439 168 439 c 0,9,10
 170 439 170 439 323 489 c 128,-1,11
 476 539 476 539 530 539 c 1,12,13
 546 527 546 527 543 504 c 0,14,15
 535 446 535 446 419 412 c 1,16,17
 316 386 316 386 212 360 c 1,18,19
 105 323 105 323 113 254 c 0,20,21
 126 129 126 129 203 129 c 0,22,23
 249 129 249 129 334 150 c 0,24,25
 431 174 431 174 446 199 c 1,26,-1
 516 185 l 1,27,28
 518 179 518 179 518 173 c 0,29,30
 518 118 518 118 387 70 c 0,31,32
 277 29 277 29 208 29 c 0,33,34
 116 29 116 29 60 98 c 1,35,36
 12 159 12 159 12 239 c 0,37,38
 12 261 12 261 16 280 c 0,39,40
 24 316 24 316 34.5 462 c 128,-1,41
 45 608 45 608 58 673 c 0,42,43
 80 776 80 776 123 779 c 0,44,45
 135 780 135 780 140 774.5 c 128,-1,46
 145 769 145 769 158 769 c 0,47,48
 173 769 173 769 299 814 c 128,-1,49
 425 859 425 859 488 859 c 0,50,51
 498 859 498 859 523.5 862.5 c 128,-1,52
 549 866 549 866 563 866 c 0,53,54
 622 866 622 866 653 813 c 1,0,1
EndSplineSet
Validated: 33
EndChar

StartChar: f
Encoding: 102 102 62
Width: 536
Flags: W
LayerCount: 2
Fore
SplineSet
568 840 m 1,0,1
 543 818 543 818 523 818 c 0,2,3
 517 818 517 818 505 816.5 c 128,-1,4
 493 815 493 815 487 815 c 0,5,6
 467 815 467 815 452 828 c 0,7,8
 440 838 440 838 304 790 c 1,9,10
 163 739 163 739 148 703 c 1,11,12
 154 685 154 685 157 633.5 c 128,-1,13
 160 582 160 582 167 562 c 1,14,15
 177 528 177 528 203 528 c 0,16,17
 262 528 262 528 322 558 c 0,18,19
 376 585 376 585 409 585 c 0,20,21
 449 585 449 585 497 547 c 1,22,-1
 178 368 l 1,23,24
 178 359 178 359 198 211.5 c 128,-1,25
 218 64 218 64 218 48 c 0,26,27
 218 37 218 37 213 9 c 128,-1,28
 208 -19 208 -19 208 -29 c 1,29,30
 195 -42 195 -42 173 -42 c 0,31,32
 124 -42 124 -42 100 130 c 0,33,34
 89 209 89 209 72 482 c 0,35,36
 58 707 58 707 38 773 c 0,37,38
 36 780 36 780 36 794 c 0,39,40
 36 878 36 878 93 878 c 0,41,42
 104 878 104 878 125.5 858 c 128,-1,43
 147 838 147 838 158 838 c 0,44,45
 171 838 171 838 293.5 883 c 128,-1,46
 416 928 416 928 428 928 c 0,47,48
 431 928 431 928 453 932 c 128,-1,49
 475 936 475 936 491 936 c 0,50,51
 545 936 545 936 568 897 c 1,52,53
 579 885 579 885 579 871 c 0,54,55
 579 858 579 858 568 840 c 1,0,1
EndSplineSet
Validated: 33
EndChar

StartChar: g
Encoding: 103 103 63
Width: 740
Flags: W
LayerCount: 2
Fore
SplineSet
725 690 m 0,0,1
 725 648 725 648 671 594.5 c 128,-1,2
 617 541 617 541 580 535 c 0,3,4
 558 532 558 532 546 532 c 0,5,6
 504 532 504 532 504 579 c 0,7,8
 504 589 504 589 506 603 c 1,9,10
 509 614 509 614 531 616 c 0,11,12
 561 619 561 619 573 626 c 0,13,14
 597 639 597 639 606 679 c 1,15,16
 591 695 591 695 545 695 c 0,17,18
 410 694 410 694 306 599 c 0,19,20
 220 520 220 520 169 393 c 0,21,22
 125 284 125 284 125 195 c 0,23,24
 125 123 125 123 153 75 c 0,25,26
 189 11 189 11 265 5 c 0,27,28
 339 -1 339 -1 415 35 c 0,29,30
 505 77 505 77 505 150 c 0,31,32
 505 215 505 215 385 215 c 0,33,34
 377 215 377 215 333.5 200 c 128,-1,35
 290 185 290 185 259 185 c 1,36,37
 236 226 236 226 236 254 c 1,38,39
 278 299 278 299 305 311 c 0,40,41
 338 325 338 325 415 325 c 0,42,43
 478 325 478 325 533 289 c 1,44,45
 595 247 595 247 595 185 c 0,46,47
 595 57 595 57 480 -16 c 0,48,49
 388 -75 388 -75 275 -75 c 0,50,51
 149 -75 149 -75 75 13 c 0,52,53
 10 90 10 90 15 190 c 0,54,55
 23 333 23 333 99 476.5 c 128,-1,56
 175 620 175 620 292 709 c 0,57,58
 420 805 420 805 560 805 c 0,59,60
 613 805 613 805 663 779 c 0,61,62
 725 746 725 746 725 690 c 0,0,1
EndSplineSet
Validated: 33
EndChar

StartChar: h
Encoding: 104 104 64
Width: 636
Flags: W
LayerCount: 2
Fore
SplineSet
585 218 m 0,0,1
 586 201 586 201 586 185 c 0,2,3
 586 49 586 49 514 10 c 0,4,5
 496 1 496 1 485 1 c 0,6,7
 471 1 471 1 464 17 c 0,8,9
 464 18 464 18 454 55 c 1,10,11
 462 107 462 107 487 218 c 1,12,13
 472 367 472 367 463 438 c 0,14,15
 444 589 444 589 424 646 c 1,16,17
 425 651 425 651 425 656 c 0,18,19
 425 669 425 669 414.5 697.5 c 128,-1,20
 404 726 404 726 404 740 c 0,21,22
 404 763 404 763 427 777 c 1,23,24
 443 790 443 790 457 790 c 0,25,26
 518 790 518 790 553 557 c 0,27,28
 570 448 570 448 585 218 c 0,0,1
463 303 m 1,29,30
 312 269 312 269 163 242 c 1,31,32
 162 205 162 205 178 118 c 128,-1,33
 194 31 194 31 194 25 c 0,34,35
 194 12 194 12 186 -2 c 0,36,37
 173 -26 173 -26 172 -29 c 1,38,39
 154 -29 154 -29 131 -23.5 c 128,-1,40
 108 -18 108 -18 106 -18 c 1,41,42
 76 134 76 134 42 339 c 0,43,44
 -6 628 -6 628 -6 705 c 0,45,46
 -6 728 -6 728 18 739 c 1,47,48
 36 745 36 745 54 750 c 0,49,50
 59 752 59 752 64 752 c 0,51,52
 97 752 97 752 110 668 c 0,53,54
 114 643 114 643 126 494 c 0,55,56
 134 384 134 384 152 350 c 1,57,58
 282 372 282 372 376 372 c 0,59,60
 392 372 392 372 399 370 c 0,61,62
 429 364 429 364 459 357 c 0,63,64
 474 353 474 353 474 347 c 0,65,66
 474 346 474 346 469 332 c 128,-1,67
 464 318 464 318 463 303 c 1,29,30
EndSplineSet
Validated: 37
EndChar

StartChar: i
Encoding: 105 105 65
Width: 331
Flags: W
LayerCount: 2
Fore
SplineSet
234 191 m 0,0,1
 234 131 234 131 212 22 c 1,2,3
 188 9 188 9 172 9 c 0,4,5
 151 9 151 9 136 32 c 1,6,-1
 124 406 l 1,7,8
 119 465 119 465 100 603 c 0,9,10
 84 725 84 725 84 736 c 0,11,12
 84 748 84 748 89.5 764 c 128,-1,13
 95 780 95 780 95 790 c 1,14,15
 126 790 126 790 144 801 c 0,16,17
 152 806 152 806 158 806 c 0,18,19
 215 806 215 806 230 501 c 0,20,21
 234 421 234 421 234 191 c 0,0,1
EndSplineSet
Validated: 1
EndChar

StartChar: j
Encoding: 106 106 66
Width: 590
Flags: W
LayerCount: 2
Fore
SplineSet
574 709 m 1,0,1
 568 701 568 701 561.5 693.5 c 128,-1,2
 555 686 555 686 539 686 c 0,3,4
 527 686 527 686 521 682 c 128,-1,5
 515 678 515 678 502 678 c 0,6,7
 495 678 495 678 486.5 680 c 128,-1,8
 478 682 478 682 475 682 c 0,9,10
 465 682 465 682 454 670 c 1,11,12
 487 625 487 625 512 471 c 0,13,14
 534 339 534 339 534 251 c 0,15,16
 534 145 534 145 481 80.5 c 128,-1,17
 428 16 428 16 339 16 c 0,18,19
 303 16 303 16 228 42 c 0,20,21
 137 74 137 74 79 119 c 0,22,23
 4 178 4 178 4 246 c 0,24,25
 4 249 4 249 3 260.5 c 128,-1,26
 2 272 2 272 2 279 c 0,27,28
 2 327 2 327 49 336 c 1,29,30
 77 334 77 334 108 283 c 0,31,32
 153 209 153 209 181 182 c 0,33,34
 242 123 242 123 339 106 c 0,35,36
 345 105 345 105 351 105 c 0,37,38
 399 105 399 105 425 174 c 0,39,40
 444 223 444 223 444 271 c 0,41,42
 444 411 444 411 337 676 c 1,43,44
 283 656 283 656 254 656 c 0,45,46
 250 656 250 656 242 655 c 0,47,48
 235 655 235 655 232 655 c 0,49,50
 204 655 204 655 194 717 c 1,51,52
 219 786 219 786 459 786 c 0,53,54
 512 786 512 786 563 744 c 1,55,56
 563 739 563 739 568.5 726.5 c 128,-1,57
 574 714 574 714 574 709 c 1,0,1
EndSplineSet
Validated: 1
EndChar

StartChar: k
Encoding: 107 107 67
Width: 590
Flags: W
LayerCount: 2
Fore
SplineSet
578 699 m 1,0,1
 570 634 570 634 494 581 c 0,2,3
 446 548 446 548 330 497 c 0,4,5
 210 445 210 445 168 417 c 1,6,7
 277 353 277 353 385 290 c 1,8,9
 566 174 566 174 558 103 c 0,10,11
 556 88 556 88 542.5 69 c 128,-1,12
 529 50 529 50 514 43 c 1,13,-1
 470 43 l 1,14,15
 424 116 424 116 332 191 c 0,16,17
 249 258 249 258 161 302 c 1,18,19
 154 275 154 275 148 219 c 0,20,21
 142 159 142 159 138 137 c 1,22,23
 157 10 157 10 157 -64 c 0,24,25
 157 -122 157 -122 145 -122 c 0,26,27
 141 -122 141 -122 136 -116 c 1,28,-1
 61 -116 l 1,29,30
 36 -88 36 -88 36 9 c 0,31,32
 36 83 36 83 54 228 c 0,33,34
 59 273 59 273 59 307 c 0,35,36
 59 354 59 354 49 381 c 0,37,38
 43 396 43 396 29 413 c 0,39,40
 18 426 18 426 18 438 c 256,41,42
 18 450 18 450 35 469.5 c 128,-1,43
 52 489 52 489 54 499 c 0,44,45
 61 532 61 532 61 573 c 0,46,47
 61 621 61 621 49.5 697.5 c 128,-1,48
 38 774 38 774 38 793 c 0,49,50
 38 833 38 833 98 853 c 0,51,52
 104 855 104 855 110 855 c 0,53,54
 158 855 158 855 158 674 c 2,55,-1
 158 616 l 2,56,57
 158 544 158 544 165 522 c 1,58,59
 227 553 227 553 385 643 c 0,60,61
 525 723 525 723 528 723 c 0,62,63
 554 723 554 723 578 699 c 1,0,1
EndSplineSet
Validated: 33
EndChar

StartChar: l
Encoding: 108 108 68
Width: 473
Flags: W
LayerCount: 2
Fore
SplineSet
468 38 m 1,0,1
 436 -16 436 -16 380 -38 c 1,2,3
 333 -55 333 -55 256 -55 c 0,4,5
 154 -55 154 -55 93 -15 c 0,6,7
 24 29 24 29 24 114 c 0,8,9
 24 127 24 127 26 140 c 0,10,11
 41 285 41 285 57.5 432.5 c 128,-1,12
 74 580 74 580 94 645 c 0,13,14
 119 727 119 727 161 725 c 1,15,16
 181 723 181 723 198.5 702 c 128,-1,17
 216 681 216 681 216 660 c 0,18,19
 216 647 216 647 166 417 c 128,-1,20
 116 187 116 187 116 175 c 0,21,22
 116 53 116 53 225 53 c 0,23,24
 247 53 247 53 284 59 c 1,25,26
 303 61 303 61 406 87 c 1,27,28
 438 87 438 87 447 80 c 128,-1,29
 456 73 456 73 468 38 c 1,0,1
EndSplineSet
Validated: 33
EndChar

StartChar: m
Encoding: 109 109 69
Width: 912
Flags: W
LayerCount: 2
Fore
SplineSet
871 517 m 0,0,1
 871 298 871 298 858 220 c 0,2,3
 847 154 847 154 800 58 c 1,4,5
 782 52 782 52 768 52 c 0,6,7
 721 52 721 52 721 122 c 0,8,9
 721 126 721 126 734 179 c 0,10,11
 749 241 749 241 758 310 c 0,12,13
 771 413 771 413 771 542 c 0,14,15
 771 585 771 585 754 652 c 1,16,17
 672 600 672 600 605 439 c 1,18,19
 556 307 556 307 507 175 c 1,20,21
 453 46 453 46 394 47 c 1,22,23
 354 40 354 40 354 201 c 0,24,25
 354 233 354 233 356 312.5 c 128,-1,26
 358 392 358 392 358 434 c 0,27,28
 358 596 358 596 334 672 c 1,29,30
 264 672 264 672 208 502 c 0,31,32
 201 480 201 480 127 186 c 0,33,34
 85 16 85 16 47 17 c 1,35,36
 -9 25 -9 25 -9 107 c 0,37,38
 -9 201 -9 201 37 359 c 0,39,40
 89 534 89 534 161 649 c 0,41,42
 248 787 248 787 338 787 c 0,43,44
 363 787 363 787 388 776 c 1,45,46
 441 717 441 717 449 591 c 1,47,48
 453 437 453 437 456 284 c 1,49,50
 506 446 506 446 584 591 c 0,51,52
 689 787 689 787 771 787 c 0,53,54
 871 787 871 787 871 517 c 0,0,1
EndSplineSet
Validated: 33
EndChar

StartChar: n
Encoding: 110 110 70
Width: 662
Flags: W
LayerCount: 2
Fore
SplineSet
628 331 m 0,0,1
 628 213 628 213 621 170 c 0,2,3
 602 42 602 42 533 51 c 1,4,5
 455 60 455 60 326 245 c 1,6,7
 245 370 245 370 164 496 c 1,8,9
 166 457 166 457 166 413 c 0,10,11
 166 254 166 254 147 118 c 0,12,13
 127 -33 127 -33 96 -58 c 1,14,15
 54 -67 54 -67 40 -58 c 1,16,17
 23 -58 23 -58 23 -4 c 256,18,19
 23 50 23 50 47.5 220 c 128,-1,20
 72 390 72 390 72 438 c 0,21,22
 72 502 72 502 45 586 c 128,-1,23
 18 670 18 670 18 676 c 0,24,25
 18 716 18 716 73 721 c 1,26,27
 126 724 126 724 216 603 c 0,28,29
 252 555 252 555 375 361 c 0,30,31
 466 217 466 217 504 190 c 1,32,33
 525 202 525 202 529 255 c 1,34,35
 528 245 528 245 528 346 c 0,36,37
 528 486 528 486 512 578 c 0,38,39
 505 624 505 624 484 691 c 0,40,41
 468 741 468 741 468 781 c 0,42,43
 468 800 468 800 483.5 820.5 c 128,-1,44
 499 841 499 841 523 841 c 0,45,46
 578 841 578 841 608 586 c 0,47,48
 628 423 628 423 628 331 c 0,0,1
EndSplineSet
Validated: 33
EndChar

StartChar: o
Encoding: 111 111 71
Width: 644
Flags: W
LayerCount: 2
Fore
SplineSet
650 497 m 0,0,1
 650 402 650 402 602 293 c 0,2,3
 550 175 550 175 465 102 c 0,4,5
 367 17 367 17 250 17 c 0,6,7
 130 17 130 17 63 119 c 0,8,9
 10 201 10 201 10 302 c 0,10,11
 10 386 10 386 47 496 c 1,12,13
 91 631 91 631 167 714 c 0,14,15
 260 817 260 817 385 817 c 0,16,17
 529 817 529 817 598 707 c 0,18,19
 650 623 650 623 650 497 c 0,0,1
550 487 m 0,20,21
 550 593 550 593 534 631 c 0,22,23
 500 707 500 707 385 707 c 0,24,25
 297 707 297 707 226 621 c 0,26,27
 169 551 169 551 135 442 c 0,28,29
 105 347 105 347 110 287 c 0,30,31
 115 228 115 228 142 181 c 0,32,33
 185 107 185 107 270 107 c 0,34,35
 401 107 401 107 484 256 c 0,36,37
 550 374 550 374 550 487 c 0,20,21
EndSplineSet
Validated: 33
EndChar

StartChar: p
Encoding: 112 112 72
Width: 580
Flags: W
LayerCount: 2
Fore
SplineSet
592 642 m 0,0,1
 594 551 594 551 485 482 c 0,2,3
 415 438 415 438 283 397 c 0,4,5
 174 364 174 364 174 357 c 0,6,7
 173 343 173 343 173 327 c 0,8,9
 173 289 173 289 182 204 c 128,-1,10
 191 119 191 119 191 82 c 0,11,12
 191 -11 191 -11 149 -37 c 1,13,14
 129 -51 129 -51 121 -51 c 0,15,16
 110 -51 110 -51 93 -15 c 1,17,18
 93 148 93 148 69 325 c 1,19,20
 57 340 57 340 35 347 c 1,21,22
 22 350 22 350 22 382 c 0,23,24
 22 416 22 416 73 448 c 1,25,26
 76 504 76 504 44 634.5 c 128,-1,27
 12 765 12 765 12 762 c 1,28,29
 12 803 12 803 39 823 c 0,30,31
 75 849 75 849 178 862 c 1,32,-1
 376 862 l 2,33,34
 453 862 453 862 522 794 c 128,-1,35
 591 726 591 726 592 642 c 0,0,1
492 637 m 0,36,37
 492 705 492 705 414 743 c 0,38,39
 353 772 353 772 282 772 c 0,40,41
 270 772 270 772 229 766.5 c 128,-1,42
 188 761 188 761 174 761 c 1,43,44
 172 754 172 754 160 734 c 0,45,46
 152 720 152 720 152 707 c 0,47,48
 152 702 152 702 163 601 c 128,-1,49
 174 500 174 500 174 454 c 1,50,51
 225 455 225 455 347 511 c 1,52,53
 492 576 492 576 492 637 c 0,36,37
EndSplineSet
Validated: 33
EndChar

StartChar: q
Encoding: 113 113 73
Width: 651
Flags: W
LayerCount: 2
Fore
SplineSet
641 473 m 0,0,1
 641 254 641 254 443 96 c 1,2,3
 441 87 441 87 441 76 c 0,4,5
 441 56 441 56 449.5 8 c 128,-1,6
 458 -40 458 -40 458 -66 c 0,7,8
 458 -129 458 -129 417 -167 c 1,9,10
 411 -168 411 -168 405 -168 c 0,11,12
 370 -168 370 -168 359 -124 c 0,13,14
 357 -117 357 -117 349 -34 c 0,15,16
 344 22 344 22 324 40 c 1,17,18
 133 31 133 31 65 127 c 0,19,20
 21 189 21 189 21 333 c 0,21,22
 21 461 21 461 87 580 c 0,23,24
 177 744 177 744 351 763 c 0,25,26
 367 765 367 765 380 765 c 0,27,28
 420 765 420 765 437 749 c 0,29,30
 445 741 445 741 451 719 c 0,31,32
 456 703 456 703 467 703 c 0,33,34
 471 703 471 703 478 705 c 0,35,36
 499 711 499 711 517 711 c 0,37,38
 585 711 585 711 617 630 c 0,39,40
 641 568 641 568 641 473 c 0,0,1
561 493 m 0,41,42
 561 541 561 541 496 623 c 1,43,44
 476 603 476 603 451 603 c 0,45,46
 439 603 439 603 419 618 c 128,-1,47
 399 633 399 633 386 633 c 0,48,49
 370 633 370 633 335.5 618 c 128,-1,50
 301 603 301 603 291 603 c 0,51,52
 279 603 279 603 274 613 c 128,-1,53
 269 623 269 623 256 623 c 0,54,55
 192 623 192 623 151 499 c 0,56,57
 121 406 121 406 121 338 c 0,58,59
 121 248 121 248 150 193 c 0,60,61
 187 123 187 123 266 123 c 0,62,63
 280 123 280 123 288.5 128.5 c 128,-1,64
 297 134 297 134 300 134 c 1,65,-1
 300 199 l 1,66,67
 301 212 301 212 281 251.5 c 128,-1,68
 261 291 261 291 261 303 c 256,69,70
 261 315 261 315 272 336 c 0,71,72
 287 363 287 363 306 363 c 0,73,74
 342 363 342 363 363 328 c 0,75,76
 376 306 376 306 390.5 253 c 128,-1,77
 405 200 405 200 415 183 c 1,78,79
 473 217 473 217 516 302 c 0,80,81
 561 392 561 392 561 493 c 0,41,42
EndSplineSet
Validated: 33
EndChar

StartChar: r
Encoding: 114 114 74
Width: 668
Flags: W
LayerCount: 2
Fore
SplineSet
665 578 m 0,0,1
 665 497 665 497 542 423 c 0,2,3
 433 357 433 357 315 341 c 1,4,5
 372 280 372 280 461.5 216.5 c 128,-1,6
 551 153 551 153 571 131 c 1,7,8
 615 86 615 86 615 28 c 0,9,10
 615 -42 615 -42 568 -52 c 1,11,12
 544 -45 544 -45 470 44 c 0,13,14
 371 162 371 162 325 205 c 0,15,16
 233 292 233 292 163 299 c 1,17,18
 153 284 153 284 153 255 c 0,19,20
 153 228 153 228 165.5 162 c 128,-1,21
 178 96 178 96 178 69 c 0,22,23
 178 33 178 33 162 19 c 1,24,25
 134 12 134 12 122 12 c 0,26,27
 106 12 106 12 97 19 c 1,28,29
 65 54 65 54 38 318 c 0,30,31
 15 534 15 534 15 633 c 0,32,33
 15 697 15 697 148 751 c 1,34,35
 256 796 256 796 325 798 c 0,36,37
 434 800 434 800 544 738 c 0,38,39
 665 669 665 669 665 578 c 0,0,1
565 563 m 0,40,41
 550 637 550 637 457 673 c 0,42,43
 389 699 389 699 310 698 c 0,44,45
 272 697 272 697 213 680 c 1,46,47
 145 659 145 659 125 634 c 1,48,49
 130 608 130 608 135 526 c 0,50,51
 139 457 139 457 150 425 c 1,52,53
 166 429 166 429 199 430 c 0,54,55
 221 431 221 431 255 429 c 1,56,57
 293 428 293 428 295 428 c 0,58,59
 343 428 343 428 448 467 c 0,60,61
 574 515 574 515 565 563 c 0,40,41
EndSplineSet
Validated: 33
EndChar

StartChar: s
Encoding: 115 115 75
Width: 669
Flags: W
LayerCount: 2
Fore
SplineSet
685 177 m 0,0,1
 690 63 690 63 539 21 c 1,2,3
 464 -1 464 -1 365 -1 c 0,4,5
 254 -1 254 -1 158 12 c 0,6,7
 -15 35 -15 35 -15 89 c 0,8,9
 -15 121 -15 121 -5.5 135 c 128,-1,10
 4 149 4 149 35 149 c 0,11,12
 48 149 48 149 133.5 124 c 128,-1,13
 219 99 219 99 231 99 c 2,14,-1
 469 99 l 2,15,16
 496 99 496 99 526 109 c 0,17,18
 576 126 576 126 585 164 c 1,19,20
 570 246 570 246 428 299 c 0,21,22
 301 347 301 347 175 394 c 1,23,24
 42 465 42 465 42 594 c 0,25,26
 42 615 42 615 45 638 c 1,27,28
 137 710 137 710 233 730 c 0,29,30
 278 739 278 739 390 739 c 0,31,32
 452 739 452 739 505 717 c 0,33,34
 575 687 575 687 575 629 c 0,35,36
 575 590 575 590 539.5 554.5 c 128,-1,37
 504 519 504 519 470 519 c 0,38,39
 464 519 464 519 449 516.5 c 128,-1,40
 434 514 434 514 426 514 c 0,41,42
 397 514 397 514 385 542 c 1,43,44
 392 562 392 562 418 572 c 0,45,46
 452 585 452 585 465 596 c 1,47,48
 467 649 467 649 395 649 c 0,49,50
 205 649 205 649 159 580 c 1,51,52
 160 518 160 518 294 461 c 0,53,54
 420 408 420 408 545 355 c 1,55,56
 681 281 681 281 685 177 c 0,0,1
EndSplineSet
Validated: 33
EndChar

StartChar: t
Encoding: 116 116 76
Width: 705
Flags: W
LayerCount: 2
Fore
SplineSet
756 781 m 1,0,1
 724 746 724 746 636 724 c 0,2,3
 586 712 586 712 489 699 c 0,4,5
 419 690 419 690 419 684 c 0,6,7
 401 527 401 527 390 315 c 0,8,9
 381 138 381 138 372 93 c 0,10,11
 358 19 358 19 317 19 c 0,12,13
 302 19 302 19 291.5 24.5 c 128,-1,14
 281 30 281 30 278 30 c 1,15,16
 264 61 264 61 264 86 c 0,17,18
 264 94 264 94 265.5 106 c 128,-1,19
 267 118 267 118 267 124 c 0,20,21
 267 137 267 137 292 335 c 128,-1,22
 317 533 317 533 317 545 c 2,23,-1
 317 670 l 1,24,25
 262 670 262 670 186 641 c 0,26,27
 140 624 140 624 70 588 c 0,28,29
 14 559 14 559 7 559 c 0,30,31
 -4 559 -4 559 -27.5 564.5 c 128,-1,32
 -51 570 -51 570 -61 570 c 1,33,34
 -73 592 -73 592 -73 637 c 1,35,36
 -58 657 -58 657 -30.5 673 c 128,-1,37
 -3 689 -3 689 17 689 c 0,38,39
 29 689 29 689 33.5 692 c 128,-1,40
 38 695 38 695 51 695 c 1,41,42
 51 695 51 695 135 728.5 c 128,-1,43
 219 762 219 762 289 764 c 1,44,45
 343 772 343 772 475 802 c 0,46,47
 591 828 591 828 603 828 c 1,48,49
 626 839 626 839 662 839 c 0,50,51
 686 839 686 839 756 828 c 1,52,53
 763 803 763 803 756 781 c 1,0,1
EndSplineSet
Validated: 33
EndChar

StartChar: u
Encoding: 117 117 77
Width: 596
Flags: W
LayerCount: 2
Fore
SplineSet
581 644 m 0,0,1
 581 460 581 460 506 297 c 0,2,3
 407 81 407 81 226 89 c 0,4,5
 118 94 118 94 63 215 c 0,6,7
 21 309 21 309 21 434 c 0,8,9
 21 441 21 441 18 479 c 128,-1,10
 15 517 15 517 15 543 c 0,11,12
 15 672 15 672 81 679 c 0,13,14
 138 686 138 686 138 594 c 0,15,16
 138 567 138 567 131.5 495.5 c 128,-1,17
 125 424 125 424 125 385 c 0,18,19
 125 214 125 214 236 179 c 0,20,21
 248 176 248 176 260 176 c 0,22,23
 347 176 347 176 421 344 c 0,24,25
 489 498 489 498 489 638 c 0,26,27
 489 708 489 708 467 736 c 1,28,29
 465 746 465 746 465 754 c 0,30,31
 465 782 465 782 483 799 c 0,32,33
 485 801 485 801 515 819 c 1,34,35
 563 807 563 807 576 739 c 0,36,37
 581 714 581 714 581 644 c 0,0,1
EndSplineSet
Validated: 33
EndChar

StartChar: v
Encoding: 118 118 78
Width: 674
Flags: W
LayerCount: 2
Fore
SplineSet
702 820 m 0,0,1
 702 810 702 810 593 527 c 0,2,3
 408 47 408 47 399 23 c 0,4,5
 387 -9 387 -9 355 -25 c 1,6,7
 334 -33 334 -33 313 -40 c 1,8,9
 308 -43 308 -43 303 -43 c 0,10,11
 256 -43 256 -43 170 142 c 1,12,13
 107 280 107 280 35 490 c 0,14,15
 -27 671 -27 671 -27 690 c 0,16,17
 -27 717 -27 717 -3 733 c 1,18,19
 13 741 13 741 28 750 c 1,20,21
 36 757 36 757 45 757 c 0,22,23
 78 757 78 757 120 621 c 1,24,25
 161 479 161 479 202 336 c 1,26,27
 256 158 256 158 308 90 c 1,28,29
 356 187 356 187 465 499 c 0,30,31
 551 748 551 748 628 848 c 1,32,33
 653 855 653 855 668 855 c 0,34,35
 702 855 702 855 702 820 c 0,0,1
EndSplineSet
Validated: 1
EndChar

StartChar: w
Encoding: 119 119 79
Width: 819
Flags: W
LayerCount: 2
Fore
SplineSet
811 774 m 0,0,1
 811 733 811 733 785 576 c 0,2,3
 751 371 751 371 707 241 c 0,4,5
 646 64 646 64 576 64 c 0,6,7
 531 64 531 64 499 121 c 0,8,9
 480 155 480 155 452 247 c 128,-1,10
 424 339 424 339 406 374 c 1,11,12
 398 363 398 363 359 250 c 1,13,14
 317 132 317 132 279 69 c 0,15,16
 222 -26 222 -26 156 -36 c 0,17,18
 47 -52 47 -52 47 283 c 0,19,20
 47 327 47 327 49 398 c 0,21,22
 51 462 51 462 51 479 c 0,23,24
 51 487 51 487 41 532.5 c 128,-1,25
 31 578 31 578 31 584 c 0,26,27
 31 640 31 640 38 666 c 0,28,29
 51 714 51 714 91 714 c 0,30,31
 141 714 141 714 141 630 c 2,32,-1
 141 378 l 2,33,34
 141 346 141 346 133.5 325.5 c 128,-1,35
 126 305 126 305 126 287 c 0,36,37
 126 241 126 241 158 94 c 1,38,39
 236 142 236 142 280 261 c 0,40,41
 310 340 310 340 334 486 c 0,42,43
 361 645 361 645 372 682 c 1,44,45
 390 700 390 700 416 704 c 0,46,47
 459 711 459 711 481 598 c 1,48,49
 497 482 497 482 513 366 c 1,50,51
 536 224 536 224 576 184 c 1,52,53
 646 293 646 293 674 475 c 0,54,55
 683 537 683 537 698 753 c 1,56,57
 706 883 706 883 733 893 c 1,58,-1
 778 893 l 1,59,60
 811 859 811 859 811 774 c 0,0,1
EndSplineSet
Validated: 33
EndChar

StartChar: x
Encoding: 120 120 80
Width: 644
Flags: W
LayerCount: 2
Fore
SplineSet
671 676 m 1,0,1
 545 549 545 549 392 426 c 1,2,3
 437 315 437 315 520 186 c 0,4,5
 582 89 582 89 582 58 c 0,6,7
 582 32 582 32 565 17.5 c 128,-1,8
 548 3 548 3 522 3 c 0,9,10
 495 3 495 3 446 85 c 0,11,12
 422 126 422 126 366 238 c 0,13,14
 325 321 325 321 317 323 c 0,15,16
 274 330 274 330 222 258 c 1,17,18
 179 189 179 189 136 119 c 1,19,20
 86 43 86 43 52 43 c 0,21,22
 17 43 17 43 2.5 63 c 128,-1,23
 -12 83 -12 83 -8 108 c 0,24,25
 -2 149 -2 149 68 232 c 0,26,27
 114 286 114 286 195 365 c 0,28,29
 262 430 262 430 262 433 c 0,30,31
 262 446 262 446 171 557 c 0,32,33
 74 675 74 675 33 694 c 1,34,35
 24 711 24 711 24 729 c 0,36,37
 24 746 24 746 33 762 c 1,38,39
 75 783 75 783 87 783 c 0,40,41
 135 783 135 783 225 666 c 1,42,43
 281 584 281 584 337 503 c 1,44,-1
 585 742 l 2,45,46
 604 760 604 760 626 760 c 0,47,48
 650 760 650 760 671 742 c 1,49,50
 681 701 681 701 671 676 c 1,0,1
EndSplineSet
Validated: 33
EndChar

StartChar: y
Encoding: 121 121 81
Width: 595
Flags: W
LayerCount: 2
Fore
SplineSet
607 711 m 1,0,1
 607 668 607 668 403 310 c 0,2,3
 196 -55 196 -55 152 -63 c 0,4,5
 117 -69 117 -69 107 -23 c 0,6,7
 106 -15 106 -15 106 -7 c 0,8,9
 106 33 106 33 147 93 c 0,10,11
 149 95 149 95 225 191 c 0,12,13
 267 244 267 244 267 267 c 0,14,15
 267 279 267 279 239 315 c 0,16,17
 200 363 200 363 190 379 c 0,18,19
 -30 750 -30 750 -23 802 c 0,20,21
 -20 819 -20 819 -7 839 c 1,22,23
 12 865 12 865 37 867 c 0,24,25
 78 869 78 869 111 799 c 1,26,27
 148 705 148 705 186 611 c 0,28,29
 246 464 246 464 322 346 c 1,30,31
 370 403 370 403 413 537 c 1,32,33
 447 639 447 639 480 740 c 1,34,35
 517 833 517 833 562 827 c 0,36,37
 576 825 576 825 589 820 c 128,-1,38
 602 815 602 815 607 815 c 1,39,40
 619 793 619 793 619 767 c 256,41,42
 619 741 619 741 607 711 c 1,0,1
EndSplineSet
Validated: 33
EndChar

StartChar: z
Encoding: 122 122 82
Width: 683
Flags: W
LayerCount: 2
Fore
SplineSet
680 126 m 0,0,1
 671 49 671 49 175 46 c 0,2,3
 133 46 133 46 83 69 c 0,4,5
 21 98 21 98 20 141 c 1,6,7
 18 176 18 176 157 302 c 1,8,9
 286 416 286 416 415 530 c 1,10,11
 552 656 552 656 550 691 c 1,12,13
 539 716 539 716 490 716 c 0,14,15
 306 716 306 716 56 577 c 1,16,17
 35 569 35 569 14 569 c 0,18,19
 -5 569 -5 569 -19 577 c 1,20,21
 -19 581 -19 581 -24.5 589 c 128,-1,22
 -30 597 -30 597 -30 611 c 0,23,24
 -30 691 -30 691 209 754 c 0,25,26
 412 808 412 808 560 806 c 0,27,28
 594 806 594 806 659 765 c 1,29,30
 662 752 662 752 662 738 c 0,31,32
 662 654 662 654 559 541 c 0,33,34
 491 465 491 465 341 342 c 0,35,36
 177 208 177 208 139 170 c 1,37,38
 158 136 158 136 180 136 c 1,39,40
 196 132 196 132 223 132 c 0,41,42
 277 132 277 132 425.5 155.5 c 128,-1,43
 574 179 574 179 620 179 c 0,44,45
 645 179 645 179 658 175 c 1,46,47
 658 176 658 176 669.5 159.5 c 128,-1,48
 681 143 681 143 680 126 c 0,0,1
EndSplineSet
Validated: 33
EndChar

StartChar: quotedblleft
Encoding: 8220 8220 83
Width: 403
Flags: W
LayerCount: 2
Fore
SplineSet
390 582 m 1,0,1
 390 554 390 554 386 544 c 0,2,3
 375 511 375 511 332 507 c 1,4,5
 330 509 330 509 272 631 c 0,6,7
 209 765 209 765 210 800 c 0,8,9
 211 850 211 850 260 850 c 0,10,11
 336 850 336 850 390 582 c 1,0,1
184 563 m 1,12,13
 186 558 186 558 186 553 c 0,14,15
 186 538 186 538 156 507 c 1,16,17
 109 523 109 523 55 636 c 0,18,19
 10 731 10 731 10 752 c 0,20,21
 10 788 10 788 29 796 c 1,22,23
 47 801 47 801 65 807 c 1,24,25
 70 811 70 811 76 810 c 1,26,27
 105 810 105 810 138 703 c 0,28,29
 179 570 179 570 184 563 c 1,12,13
EndSplineSet
Validated: 33
EndChar

StartChar: quotedblright
Encoding: 8221 8221 84
Width: 469
Flags: W
LayerCount: 2
Fore
SplineSet
453 826 m 0,0,1
 453 783 453 783 362.5 669.5 c 128,-1,2
 272 556 272 556 236 551 c 1,3,4
 213 570 213 570 213 596 c 0,5,6
 213 629 213 629 286 749 c 128,-1,7
 359 869 359 869 393 881 c 0,8,9
 398 883 398 883 403 883 c 0,10,11
 422 883 422 883 439 859 c 0,12,13
 453 839 453 839 453 826 c 0,0,1
233 846 m 1,14,15
 183 763 183 763 153 686 c 0,16,17
 126 614 126 614 118 603 c 0,18,19
 99 574 99 574 47 551 c 1,20,21
 24 572 24 572 22 574 c 0,22,23
 13 584 13 584 13 601 c 0,24,25
 13 624 13 624 71 749 c 0,26,27
 136 891 136 891 178 891 c 0,28,29
 210 891 210 891 216 884 c 1,30,31
 225 865 225 865 233 846 c 1,14,15
EndSplineSet
Validated: 1
EndChar

StartChar: fraction
Encoding: 8260 8260 85
Width: 480
Flags: W
LayerCount: 2
Fore
SplineSet
457 731 m 0,0,1
 457 719 457 719 365 536 c 0,2,3
 263 333 263 333 183 195 c 0,4,5
 77 14 77 14 50 20 c 1,6,7
 -5 21 -5 21 -5 47 c 0,8,9
 -5 58 -5 58 6 74 c 0,10,11
 94 215 94 215 190 415 c 1,12,13
 254 551 254 551 318 687 c 1,14,15
 375 799 375 799 407 804 c 0,16,17
 418 806 418 806 426 806 c 0,18,19
 463 806 463 806 463 771 c 0,20,21
 463 761 463 761 460 746.5 c 128,-1,22
 457 732 457 732 457 731 c 0,0,1
EndSplineSet
Validated: 33
EndChar

StartChar: Aacute
Encoding: 193 193 86
Width: 565
Flags: W
LayerCount: 2
Fore
SplineSet
530.104 1013.65 m 4,0,1
 511.743 979.588 511.743 979.588 398.672 944.051 c 132,-1,2
 285.599 908.514 285.599 908.514 258.477 925.584 c 5,3,4
 249.454 955.058 249.454 955.058 260.557 975.655 c 4,5,6
 274.646 1001.8 274.646 1001.8 378 1053 c 132,-1,7
 481.354 1104.2 481.354 1104.2 510.751 1093.28 c 4,8,9
 515.176 1091.86 515.176 1091.86 518.743 1088.85 c 4,10,11
 532.31 1077.44 532.31 1077.44 534.198 1048.21 c 4,12,13
 535.654 1023.95 535.654 1023.95 530.104 1013.65 c 4,0,1
563 -43 m 0,14,15
 563 -58 563 -58 541 -102 c 1,16,-1
 475 -102 l 1,17,18
 442 -56 442 -56 429 54 c 128,-1,19
 416 164 416 164 386 207 c 1,20,21
 241 163 241 163 120 104 c 1,22,23
 98 92 98 92 90 44 c 0,24,25
 81 -9 81 -9 76 -14 c 0,26,27
 68 -23 68 -23 38 -23 c 0,28,29
 7 -23 7 -23 -12 -1 c 0,30,31
 -27 17 -27 17 -27 37 c 0,32,33
 -27 79 -27 79 42 254 c 1,34,35
 81 349 81 349 119 443 c 1,36,37
 207 696 207 696 216 718 c 0,38,39
 272 851 272 851 320 851 c 0,40,41
 330 851 330 851 340 846 c 1,42,43
 376 783 376 783 472 377 c 0,44,45
 563 -7 563 -7 563 -43 c 0,14,15
372 299 m 1,46,47
 365 389 365 389 345 489 c 0,48,49
 323 603 323 603 298 657 c 1,50,51
 293 646 293 646 202 438 c 0,52,53
 143 305 143 305 144 291 c 1,54,-1
 144 238 l 1,55,56
 258 282 258 282 372 299 c 1,46,47
EndSplineSet
Validated: 33
EndChar

StartChar: Eacute
Encoding: 201 201 87
Width: 620
Flags: W
LayerCount: 2
Fore
SplineSet
530.104 1013.65 m 4,0,1
 511.743 979.588 511.743 979.588 398.672 944.051 c 132,-1,2
 285.599 908.514 285.599 908.514 258.477 925.584 c 5,3,4
 249.454 955.058 249.454 955.058 260.557 975.655 c 4,5,6
 274.646 1001.8 274.646 1001.8 378 1053 c 132,-1,7
 481.354 1104.2 481.354 1104.2 510.751 1093.28 c 4,8,9
 515.176 1091.86 515.176 1091.86 518.743 1088.85 c 4,10,11
 532.31 1077.44 532.31 1077.44 534.198 1048.21 c 4,12,13
 535.654 1023.95 535.654 1023.95 530.104 1013.65 c 4,0,1
653 813 m 1,14,15
 636 777 636 777 490 760 c 0,16,17
 315 739 315 739 244 699 c 0,18,19
 120 628 120 628 132 456 c 1,20,21
 138 450 138 450 144.5 444.5 c 128,-1,22
 151 439 151 439 168 439 c 0,23,24
 170 439 170 439 323 489 c 128,-1,25
 476 539 476 539 530 539 c 1,26,27
 546 527 546 527 543 504 c 0,28,29
 535 446 535 446 419 412 c 1,30,31
 316 386 316 386 212 360 c 1,32,33
 105 323 105 323 113 254 c 0,34,35
 126 129 126 129 203 129 c 0,36,37
 249 129 249 129 334 150 c 0,38,39
 431 174 431 174 446 199 c 1,40,-1
 516 185 l 1,41,42
 518 179 518 179 518 173 c 0,43,44
 518 118 518 118 387 70 c 0,45,46
 277 29 277 29 208 29 c 0,47,48
 116 29 116 29 60 98 c 1,49,50
 12 159 12 159 12 239 c 0,51,52
 12 261 12 261 16 280 c 0,53,54
 24 316 24 316 34.5 462 c 128,-1,55
 45 608 45 608 58 673 c 0,56,57
 80 776 80 776 123 779 c 0,58,59
 135 780 135 780 140 774.5 c 128,-1,60
 145 769 145 769 158 769 c 0,61,62
 173 769 173 769 299 814 c 128,-1,63
 425 859 425 859 488 859 c 0,64,65
 498 859 498 859 523.5 862.5 c 128,-1,66
 549 866 549 866 563 866 c 0,67,68
 622 866 622 866 653 813 c 1,14,15
EndSplineSet
Validated: 33
EndChar

StartChar: Iacute
Encoding: 205 205 88
Width: 403
Flags: W
LayerCount: 2
Fore
SplineSet
377.432 996.602 m 4,0,1
 359.071 962.537 359.071 962.537 246 927 c 132,-1,2
 132.927 891.463 132.927 891.463 105.805 908.533 c 5,3,4
 96.7822 938.007 96.7822 938.007 107.885 958.604 c 4,5,6
 121.974 984.747 121.974 984.747 225.328 1035.95 c 132,-1,7
 328.682 1087.15 328.682 1087.15 358.079 1076.23 c 4,8,9
 362.504 1074.81 362.504 1074.81 366.071 1071.8 c 4,10,11
 379.638 1060.39 379.638 1060.39 381.526 1031.16 c 4,12,13
 382.982 1006.9 382.982 1006.9 377.432 996.602 c 4,0,1
304.156 811.566 m 0,14,15
 340.886 811.762 340.886 811.762 351.125 804.578 c 0,16,17
 355.403 801.87 355.403 801.87 358.219 797.729 c 0,18,19
 369.002 781.871 369.002 781.871 361.562 750.031 c 0,20,21
 355.28 723.689 355.28 723.689 346 714.084 c 0,22,23
 326.005 693.392 326.005 693.392 218.781 686.028 c 1,24,25
 246.445 567.878 246.445 567.878 251 445.45 c 0,26,27
 257.528 270.248 257.528 270.248 253.406 134.367 c 1,28,29
 352.212 147.902 352.212 147.902 377.875 131.203 c 0,30,31
 382.596 128.416 382.596 128.416 385.844 124.146 c 0,32,33
 398.117 108.01 398.117 108.01 390.781 76.3428 c 0,34,35
 384.561 50.0967 384.561 50.0967 374.625 40.7432 c 0,36,37
 341.799 9.84277 341.799 9.84277 196.688 5.14355 c 128,-1,38
 51.584 0.438477 51.584 0.438477 25.1875 26.5586 c 1,39,40
 24.1904 60.5859 24.1904 60.5859 44.0312 79.2637 c 128,-1,41
 63.7217 97.7988 63.7217 97.7988 152.875 116.672 c 1,42,43
 148.178 235.747 148.178 235.747 135 441 c 0,44,45
 122.974 624.487 122.974 624.487 121.281 679.771 c 1,46,47
 39.0801 674.836 39.0801 674.836 25.875 689.227 c 1,48,49
 25.7617 734.646 25.7617 734.646 44.5938 754.134 c 0,50,51
 56.3408 766.29 56.3408 766.29 75.4727 772.892 c 128,-1,52
 94.6055 779.496 94.6055 779.496 157.969 793.245 c 0,53,54
 240.845 811.23 240.845 811.23 304.156 811.566 c 0,14,15
EndSplineSet
EndChar

StartChar: Oacute
Encoding: 211 211 89
Width: 671
Flags: W
LayerCount: 2
Fore
SplineSet
563.432 993.602 m 4,0,1
 545.071 959.537 545.071 959.537 432 924 c 132,-1,2
 318.927 888.463 318.927 888.463 291.805 905.533 c 5,3,4
 282.782 935.007 282.782 935.007 293.885 955.604 c 4,5,6
 307.974 981.747 307.974 981.747 411.328 1032.95 c 132,-1,7
 514.682 1084.15 514.682 1084.15 544.079 1073.23 c 4,8,9
 548.504 1071.81 548.504 1071.81 552.071 1068.8 c 4,10,11
 565.638 1057.39 565.638 1057.39 567.526 1028.16 c 4,12,13
 568.982 1003.9 568.982 1003.9 563.432 993.602 c 4,0,1
652 502 m 0,14,15
 652 424 652 424 586 303 c 128,-1,16
 520 182 520 182 429 98 c 0,17,18
 324 2 324 2 232 2 c 0,19,20
 22 2 22 2 22 307 c 0,21,22
 22 472 22 472 107 612 c 0,23,24
 211 782 211 782 382 782 c 0,25,26
 501 782 501 782 576.5 705 c 128,-1,27
 652 628 652 628 652 502 c 0,14,15
552 497 m 0,28,29
 552 544 552 544 526 599 c 0,30,31
 491 672 491 672 432 672 c 0,32,33
 420 672 420 672 407.5 662 c 128,-1,34
 395 652 395 652 382 652 c 0,35,36
 366 652 366 652 360 658.5 c 128,-1,37
 354 665 354 665 348 672 c 1,38,39
 237 672 237 672 174 543 c 0,40,41
 122 435 122 435 122 292 c 0,42,43
 122 216 122 216 130 184 c 0,44,45
 153 91 153 91 232 92 c 1,46,47
 340 95 340 95 448 237 c 0,48,49
 552 374 552 374 552 497 c 0,28,29
EndSplineSet
EndChar

StartChar: Uacute
Encoding: 218 218 90
Width: 519
Flags: W
LayerCount: 2
Fore
SplineSet
440.147 970.424 m 4,0,1
 424.679 937.891 424.679 937.891 329.416 903.954 c 132,-1,2
 234.151 870.015 234.151 870.015 211.302 886.318 c 5,3,4
 203.7 914.465 203.7 914.465 213.054 934.136 c 4,5,6
 224.924 959.102 224.924 959.102 312 1008 c 132,-1,7
 399.076 1056.9 399.076 1056.9 423.843 1046.46 c 4,8,9
 427.57 1045.11 427.57 1045.11 430.576 1042.24 c 4,10,11
 442.006 1031.34 442.006 1031.34 443.597 1003.42 c 4,12,13
 444.823 980.26 444.823 980.26 440.147 970.424 c 4,0,1
502 560 m 0,14,15
 502 484 502 484 469 374 c 0,16,17
 429 243 429 243 365 161 c 0,18,19
 286 60 286 60 187 60 c 0,20,21
 97 60 97 60 53 156 c 0,22,23
 21 226 21 226 21 318 c 0,24,25
 21 333 21 333 22 345 c 0,26,27
 28 425 28 425 34 506 c 1,28,29
 43 608 43 608 61 658 c 0,30,31
 84 724 84 724 127 720 c 0,32,33
 182 714 182 714 182 665 c 0,34,35
 182 652 182 652 152 514.5 c 128,-1,36
 122 377 122 377 122 365 c 0,37,38
 124 253 124 253 127 236 c 0,39,40
 141 165 141 165 200 164 c 0,41,42
 300 161 300 161 358 334 c 0,43,44
 398 454 398 454 398 540 c 0,45,46
 398 551 398 551 385 637 c 128,-1,47
 372 723 372 723 372 735 c 0,48,49
 372 750 372 750 388.5 765 c 128,-1,50
 405 780 405 780 422 780 c 0,51,52
 465 780 465 780 487 677 c 0,53,54
 502 611 502 611 502 560 c 0,14,15
EndSplineSet
EndChar

StartChar: aacute
Encoding: 225 225 91
Width: 565
Flags: W
LayerCount: 2
Fore
SplineSet
536.104 1013.65 m 4,0,1
 517.743 979.588 517.743 979.588 404.672 944.051 c 132,-1,2
 291.599 908.514 291.599 908.514 264.477 925.584 c 5,3,4
 255.454 955.058 255.454 955.058 266.557 975.655 c 4,5,6
 280.646 1001.8 280.646 1001.8 384 1053 c 132,-1,7
 487.354 1104.2 487.354 1104.2 516.751 1093.28 c 4,8,9
 521.176 1091.86 521.176 1091.86 524.743 1088.85 c 4,10,11
 538.31 1077.44 538.31 1077.44 540.198 1048.21 c 4,12,13
 541.654 1023.95 541.654 1023.95 536.104 1013.65 c 4,0,1
563 -43 m 0,14,15
 563 -58 563 -58 541 -102 c 1,16,-1
 475 -102 l 1,17,18
 442 -56 442 -56 429 54 c 128,-1,19
 416 164 416 164 386 207 c 1,20,21
 241 163 241 163 120 104 c 1,22,23
 98 92 98 92 90 44 c 0,24,25
 81 -9 81 -9 76 -14 c 0,26,27
 68 -23 68 -23 38 -23 c 0,28,29
 7 -23 7 -23 -12 -1 c 0,30,31
 -27 17 -27 17 -27 37 c 0,32,33
 -27 79 -27 79 42 254 c 1,34,35
 81 349 81 349 119 443 c 1,36,37
 207 696 207 696 216 718 c 0,38,39
 272 851 272 851 320 851 c 0,40,41
 330 851 330 851 340 846 c 1,42,43
 376 783 376 783 472 377 c 0,44,45
 563 -7 563 -7 563 -43 c 0,14,15
372 299 m 1,46,47
 365 389 365 389 345 489 c 0,48,49
 323 603 323 603 298 657 c 1,50,51
 293 646 293 646 202 438 c 0,52,53
 143 305 143 305 144 291 c 1,54,-1
 144 238 l 1,55,56
 258 282 258 282 372 299 c 1,46,47
EndSplineSet
Validated: 33
EndChar

StartChar: eacute
Encoding: 233 233 92
Width: 620
Flags: W
LayerCount: 2
Fore
SplineSet
483.337 1017.36 m 4,0,1
 469.536 981.204 469.536 981.204 362.012 931.341 c 132,-1,2
 254.484 881.479 254.484 881.479 225.382 894.896 c 5,3,4
 212.623 922.956 212.623 922.956 220.969 944.816 c 4,5,6
 231.558 972.562 231.558 972.562 327.422 1036.7 c 132,-1,7
 423.285 1100.84 423.285 1100.84 453.849 1093.81 c 4,8,9
 458.419 1092.98 458.419 1092.98 462.346 1090.46 c 4,10,11
 477.274 1080.89 477.274 1080.89 482.928 1052.15 c 4,12,13
 487.509 1028.29 487.509 1028.29 483.337 1017.36 c 4,0,1
653 813 m 1,14,15
 636 777 636 777 490 760 c 0,16,17
 315 739 315 739 244 699 c 0,18,19
 120 628 120 628 132 456 c 1,20,21
 138 450 138 450 144.5 444.5 c 128,-1,22
 151 439 151 439 168 439 c 0,23,24
 170 439 170 439 323 489 c 128,-1,25
 476 539 476 539 530 539 c 1,26,27
 546 527 546 527 543 504 c 0,28,29
 535 446 535 446 419 412 c 1,30,31
 316 386 316 386 212 360 c 1,32,33
 105 323 105 323 113 254 c 0,34,35
 126 129 126 129 203 129 c 0,36,37
 249 129 249 129 334 150 c 0,38,39
 431 174 431 174 446 199 c 1,40,-1
 516 185 l 1,41,42
 518 179 518 179 518 173 c 0,43,44
 518 118 518 118 387 70 c 0,45,46
 277 29 277 29 208 29 c 0,47,48
 116 29 116 29 60 98 c 1,49,50
 12 159 12 159 12 239 c 0,51,52
 12 261 12 261 16 280 c 0,53,54
 24 316 24 316 34.5 462 c 128,-1,55
 45 608 45 608 58 673 c 0,56,57
 80 776 80 776 123 779 c 0,58,59
 135 780 135 780 140 774.5 c 128,-1,60
 145 769 145 769 158 769 c 0,61,62
 173 769 173 769 299 814 c 128,-1,63
 425 859 425 859 488 859 c 0,64,65
 498 859 498 859 523.5 862.5 c 128,-1,66
 549 866 549 866 563 866 c 0,67,68
 622 866 622 866 653 813 c 1,14,15
EndSplineSet
Validated: 33
EndChar

StartChar: iacute
Encoding: 237 237 93
Width: 358
Flags: W
LayerCount: 2
Fore
SplineSet
343.432 1001.6 m 4,0,1
 325.071 967.537 325.071 967.537 212 932 c 132,-1,2
 98.9268 896.463 98.9268 896.463 71.8047 913.533 c 5,3,4
 62.7822 943.007 62.7822 943.007 73.8848 963.604 c 4,5,6
 87.9746 989.749 87.9746 989.749 191.328 1040.95 c 132,-1,7
 294.682 1092.15 294.682 1092.15 324.079 1081.23 c 4,8,9
 328.504 1079.81 328.504 1079.81 332.071 1076.8 c 4,10,11
 345.638 1065.39 345.638 1065.39 347.526 1036.16 c 4,12,13
 348.982 1011.9 348.982 1011.9 343.432 1001.6 c 4,0,1
234 191 m 0,14,15
 234 131 234 131 212 22 c 1,16,17
 188 9 188 9 172 9 c 0,18,19
 151 9 151 9 136 32 c 1,20,-1
 124 406 l 1,21,22
 119 465 119 465 100 603 c 0,23,24
 84 725 84 725 84 736 c 0,25,26
 84 748 84 748 89.5 764 c 128,-1,27
 95 780 95 780 95 790 c 1,28,29
 126 790 126 790 144 801 c 0,30,31
 152 806 152 806 158 806 c 0,32,33
 215 806 215 806 230 501 c 0,34,35
 234 421 234 421 234 191 c 0,14,15
EndSplineSet
EndChar

StartChar: oacute
Encoding: 243 243 94
Width: 644
Flags: W
LayerCount: 2
Fore
SplineSet
608.104 1012.65 m 4,0,1
 589.743 978.588 589.743 978.588 476.672 943.051 c 132,-1,2
 363.599 907.514 363.599 907.514 336.477 924.584 c 5,3,4
 327.454 954.058 327.454 954.058 338.557 974.655 c 4,5,6
 352.646 1000.8 352.646 1000.8 456 1052 c 132,-1,7
 559.354 1103.2 559.354 1103.2 588.751 1092.28 c 4,8,9
 593.176 1090.86 593.176 1090.86 596.743 1087.85 c 4,10,11
 610.31 1076.44 610.31 1076.44 612.198 1047.21 c 4,12,13
 613.654 1022.95 613.654 1022.95 608.104 1012.65 c 4,0,1
650 497 m 0,14,15
 650 402 650 402 602 293 c 0,16,17
 550 175 550 175 465 102 c 0,18,19
 367 17 367 17 250 17 c 0,20,21
 130 17 130 17 63 119 c 0,22,23
 10 201 10 201 10 302 c 0,24,25
 10 386 10 386 47 496 c 1,26,27
 91 631 91 631 167 714 c 0,28,29
 260 817 260 817 385 817 c 0,30,31
 529 817 529 817 598 707 c 0,32,33
 650 623 650 623 650 497 c 0,14,15
550 487 m 0,34,35
 550 593 550 593 534 631 c 0,36,37
 500 707 500 707 385 707 c 0,38,39
 297 707 297 707 226 621 c 0,40,41
 169 551 169 551 135 442 c 0,42,43
 105 347 105 347 110 287 c 0,44,45
 115 228 115 228 142 181 c 0,46,47
 185 107 185 107 270 107 c 0,48,49
 401 107 401 107 484 256 c 0,50,51
 550 374 550 374 550 487 c 0,34,35
EndSplineSet
EndChar

StartChar: Ntilde
Encoding: 209 209 95
Width: 662
Flags: HW
LayerCount: 2
Fore
SplineSet
374.986 1009.81 m 4,0,1
 401.873 1010.68 401.873 1010.68 425.982 996.715 c 4,2,3
 449.236 983.155 449.236 983.155 445.562 967.495 c 5,4,5
 430.968 931.005 430.968 931.005 405 906 c 4,6,7
 384.955 887.282 384.955 887.282 357.303 876.818 c 132,-1,8
 329.649 866.354 329.649 866.354 301.031 868.222 c 5,9,10
 281.981 870.412 281.981 870.412 250.401 883.69 c 132,-1,11
 218.822 896.967 218.822 896.967 204.092 900.105 c 5,12,13
 202.556 898.292 202.556 898.292 192.861 887.832 c 132,-1,14
 183.167 877.37 183.167 877.37 179.08 871.244 c 4,15,16
 178.055 868.779 178.055 868.779 174.616 865.156 c 132,-1,17
 171.178 861.533 171.178 861.533 170.182 860 c 4,18,19
 167.932 857.094 167.932 857.094 165.329 849.634 c 132,-1,20
 162.726 842.174 162.726 842.174 159.519 838.969 c 4,21,22
 141.934 826.333 141.934 826.333 110.82 831.976 c 4,23,24
 83.5557 837.022 83.5557 837.022 76.9287 850.604 c 5,25,26
 74.2031 860.486 74.2031 860.486 74.5068 868.506 c 4,27,28
 76.3047 916.004 76.3047 916.004 130.348 956.196 c 4,29,30
 163.961 981.581 163.961 981.581 204.803 981.926 c 4,31,32
 223.122 982.027 223.122 982.027 253.754 971.024 c 132,-1,33
 284.384 960.021 284.384 960.021 291.448 958.38 c 4,34,35
 315.559 952.048 315.559 952.048 325.41 959.089 c 5,36,37
 331.52 965.125 331.52 965.125 338.648 978.711 c 132,-1,38
 345.777 992.298 345.777 992.298 347.157 994.432 c 4,39,40
 349.577 1001.44 349.577 1001.44 357.606 1005.53 c 132,-1,41
 365.637 1009.62 365.637 1009.62 374.986 1009.81 c 4,0,1
628 331 m 0,42,43
 628 213 628 213 621 170 c 0,44,45
 602 42 602 42 533 51 c 1,46,47
 455 60 455 60 326 245 c 1,48,49
 245 370 245 370 164 496 c 1,50,51
 166 457 166 457 166 413 c 0,52,53
 166 254 166 254 147 118 c 0,54,55
 127 -33 127 -33 96 -58 c 1,56,57
 54 -67 54 -67 40 -58 c 1,58,59
 23 -58 23 -58 23 -4 c 256,60,61
 23 50 23 50 47.5 220 c 128,-1,62
 72 390 72 390 72 438 c 0,63,64
 72 502 72 502 45 586 c 128,-1,65
 18 670 18 670 18 676 c 0,66,67
 18 716 18 716 73 721 c 1,68,69
 126 724 126 724 216 603 c 0,70,71
 252 555 252 555 375 361 c 0,72,73
 466 217 466 217 504 190 c 1,74,75
 525 202 525 202 529 255 c 1,76,77
 528 245 528 245 528 346 c 0,78,79
 528 486 528 486 512 578 c 0,80,81
 505 624 505 624 484 691 c 0,82,83
 468 741 468 741 468 781 c 0,84,85
 468 800 468 800 483.5 820.5 c 128,-1,86
 499 841 499 841 523 841 c 0,87,88
 578 841 578 841 608 586 c 0,89,90
 628 423 628 423 628 331 c 0,42,43
EndSplineSet
EndChar

StartChar: ntilde
Encoding: 241 241 96
Width: 685
Flags: HW
LayerCount: 2
Fore
SplineSet
386.744 1057.74 m 4,0,1
 414.706 1058.68 414.706 1058.68 439.78 1043.6 c 4,2,3
 463.964 1028.96 463.964 1028.96 460.143 1012.04 c 5,4,5
 444.965 972.633 444.965 972.633 417.958 945.628 c 4,6,7
 397.111 925.413 397.111 925.413 368.354 914.111 c 132,-1,8
 339.594 902.811 339.594 902.811 309.831 904.827 c 5,9,10
 290.02 907.193 290.02 907.193 257.176 921.533 c 132,-1,11
 224.334 935.872 224.334 935.872 209.014 939.262 c 5,12,13
 207.416 937.304 207.416 937.304 197.334 926.007 c 132,-1,14
 187.252 914.708 187.252 914.708 183.002 908.092 c 4,15,16
 181.936 905.43 181.936 905.43 178.359 901.517 c 132,-1,17
 174.783 897.604 174.783 897.604 173.747 895.948 c 4,18,19
 171.407 892.81 171.407 892.81 168.701 884.753 c 132,-1,20
 165.993 876.695 165.993 876.695 162.658 873.234 c 4,21,22
 144.369 859.588 144.369 859.588 112.012 865.682 c 4,23,24
 83.6562 871.132 83.6562 871.132 76.7646 885.801 c 5,25,26
 73.9297 896.474 73.9297 896.474 74.2451 905.135 c 4,27,28
 76.1152 956.433 76.1152 956.433 132.32 999.84 c 4,29,30
 167.277 1027.26 167.277 1027.26 209.753 1027.63 c 4,31,32
 228.806 1027.74 228.806 1027.74 260.662 1015.85 c 132,-1,33
 292.518 1003.97 292.518 1003.97 299.864 1002.2 c 4,34,35
 324.939 995.359 324.939 995.359 335.185 1002.96 c 5,36,37
 341.539 1009.48 341.539 1009.48 348.953 1024.16 c 132,-1,38
 356.367 1038.83 356.367 1038.83 357.802 1041.13 c 4,39,40
 360.318 1048.7 360.318 1048.7 368.669 1053.12 c 132,-1,41
 377.021 1057.53 377.021 1057.53 386.744 1057.74 c 4,0,1
656 406 m 0,42,43
 656 249 656 249 644 180 c 0,44,45
 620 46 620 46 546 46 c 0,46,47
 482 46 482 46 329 275 c 1,48,49
 251 400 251 400 172 526 c 1,50,51
 166 420 166 420 159 314 c 0,52,53
 152 204 152 204 133 154 c 0,54,55
 108 88 108 88 50 76 c 1,56,57
 26 95 26 95 26 116 c 0,58,59
 26 125 26 125 49.5 230.5 c 128,-1,60
 73 336 73 336 73 397 c 0,61,62
 73 497 73 497 61 563 c 0,63,64
 53 602 53 602 38 639 c 0,65,66
 26 668 26 668 26 681 c 0,67,68
 26 700 26 700 58 727 c 0,69,70
 87 751 87 751 106 756 c 0,71,72
 150 767 150 767 238 625 c 1,73,74
 317 486 317 486 397 346 c 1,75,76
 490 186 490 186 540 166 c 1,77,78
 556 209 556 209 556 272 c 1,79,80
 564 328 564 328 564 399 c 0,81,82
 564 468 564 468 556 520 c 1,83,84
 556 532 556 532 521 652.5 c 128,-1,85
 486 773 486 773 486 786 c 0,86,87
 486 819 486 819 491 825 c 0,88,89
 499 836 499 836 541 836 c 0,90,91
 609 836 609 836 639 623 c 0,92,93
 656 506 656 506 656 406 c 0,42,43
EndSplineSet
EndChar

StartChar: uacute
Encoding: 250 250 97
Width: 596
Flags: W
LayerCount: 2
Fore
SplineSet
530.913 939.403 m 4,0,1
 515.865 903.75 515.865 903.75 406.673 857.653 c 132,-1,2
 297.478 811.556 297.478 811.556 268.859 825.978 c 5,3,4
 257.083 854.463 257.083 854.463 266.183 876.021 c 4,5,6
 277.729 903.381 277.729 903.381 375.765 964.151 c 132,-1,7
 473.799 1024.92 473.799 1024.92 504.099 1016.83 c 4,8,9
 508.638 1015.84 508.638 1015.84 512.475 1013.19 c 4,10,11
 527.062 1003.11 527.062 1003.11 531.713 974.19 c 4,12,13
 535.463 950.182 535.463 950.182 530.913 939.403 c 4,0,1
581 644 m 0,14,15
 581 460 581 460 506 297 c 0,16,17
 407 81 407 81 226 89 c 0,18,19
 118 94 118 94 63 215 c 0,20,21
 21 309 21 309 21 434 c 0,22,23
 21 441 21 441 18 479 c 128,-1,24
 15 517 15 517 15 543 c 0,25,26
 15 672 15 672 81 679 c 0,27,28
 138 686 138 686 138 594 c 0,29,30
 138 567 138 567 131.5 495.5 c 128,-1,31
 125 424 125 424 125 385 c 0,32,33
 125 214 125 214 236 179 c 0,34,35
 248 176 248 176 260 176 c 0,36,37
 347 176 347 176 421 344 c 0,38,39
 489 498 489 498 489 638 c 0,40,41
 489 708 489 708 467 736 c 1,42,43
 465 746 465 746 465 754 c 0,44,45
 465 782 465 782 483 799 c 0,46,47
 485 801 485 801 515 819 c 1,48,49
 563 807 563 807 576 739 c 0,50,51
 581 714 581 714 581 644 c 0,14,15
EndSplineSet
Validated: 33
EndChar

StartChar: Udieresis
Encoding: 220 220 98
Width: 519
Flags: HW
LayerCount: 2
Fore
SplineSet
427.614 874.318 m 5,0,1
 417.495 885.333 417.495 885.333 408.45 907.068 c 4,2,3
 401.157 925.603 401.157 925.603 400.796 932.975 c 4,4,5
 398.277 984.572 398.277 984.572 437.311 986.422 c 4,6,7
 453.243 987.177 453.243 987.177 475.353 975.912 c 4,8,9
 500.727 963.159 500.727 963.159 501.607 945.142 c 4,10,11
 503.208 912.381 503.208 912.381 472.226 876.436 c 5,12,13
 448.091 863.797 448.091 863.797 427.614 874.318 c 5,0,1
189.829 838.42 m 4,14,15
 138.846 836.003 138.846 836.003 135.525 903.98 c 4,16,17
 134.366 927.731 134.366 927.731 143.086 945.383 c 4,18,19
 153.277 965.568 153.277 965.568 171.6 966.438 c 4,20,21
 199.481 967.759 199.481 967.759 220 940 c 4,22,23
 237.093 917.005 237.093 917.005 238.294 892.435 c 4,24,25
 239.013 877.691 239.013 877.691 221.591 858.396 c 132,-1,26
 204.169 839.099 204.169 839.099 189.829 838.42 c 4,14,15
502 560 m 0,27,28
 502 484 502 484 469 374 c 0,29,30
 429 243 429 243 365 161 c 0,31,32
 286 60 286 60 187 60 c 0,33,34
 97 60 97 60 53 156 c 0,35,36
 21 226 21 226 21 318 c 0,37,38
 21 333 21 333 22 345 c 0,39,40
 28 425 28 425 34 506 c 1,41,42
 43 608 43 608 61 658 c 0,43,44
 84 724 84 724 127 720 c 0,45,46
 182 714 182 714 182 665 c 0,47,48
 182 652 182 652 152 514.5 c 128,-1,49
 122 377 122 377 122 365 c 0,50,51
 124 253 124 253 127 236 c 0,52,53
 141 165 141 165 200 164 c 0,54,55
 300 161 300 161 358 334 c 0,56,57
 398 454 398 454 398 540 c 0,58,59
 398 551 398 551 385 637 c 128,-1,60
 372 723 372 723 372 735 c 0,61,62
 372 750 372 750 388.5 765 c 128,-1,63
 405 780 405 780 422 780 c 0,64,65
 465 780 465 780 487 677 c 0,66,67
 502 611 502 611 502 560 c 0,27,28
EndSplineSet
EndChar

StartChar: udieresis
Encoding: 252 252 99
Width: 596
Flags: W
LayerCount: 2
Fore
SplineSet
405.904 888.863 m 5,0,1
 396.624 900.593 396.624 900.593 389.204 922.936 c 4,2,3
 383.296 941.957 383.296 941.957 383.479 949.335 c 4,4,5
 384.768 1000.98 384.768 1000.98 423.832 999.948 c 4,6,7
 439.777 999.527 439.777 999.527 460.996 986.664 c 4,8,9
 485.362 972.077 485.362 972.077 484.913 954.043 c 4,10,11
 484.096 921.254 484.096 921.254 450.55 887.688 c 5,12,13
 425.55 876.862 425.55 876.862 405.904 888.863 c 5,0,1
166.12 870.578 m 4,14,15
 115.097 871.923 115.097 871.923 116.794 939.961 c 4,16,17
 117.387 963.732 117.387 963.732 127.383 980.694 c 4,18,19
 139.034 1000.07 139.034 1000.07 157.371 999.591 c 4,20,21
 185.274 998.854 185.274 998.854 203.692 969.66 c 4,22,23
 219.044 945.468 219.044 945.468 218.432 920.876 c 4,24,25
 218.063 906.12 218.063 906.12 199.267 888.16 c 132,-1,26
 180.471 870.199 180.471 870.199 166.12 870.578 c 4,14,15
581 644 m 0,27,28
 581 460 581 460 506 297 c 0,29,30
 407 81 407 81 226 89 c 0,31,32
 118 94 118 94 63 215 c 0,33,34
 21 309 21 309 21 434 c 0,35,36
 21 441 21 441 18 479 c 128,-1,37
 15 517 15 517 15 543 c 0,38,39
 15 672 15 672 81 679 c 0,40,41
 138 686 138 686 138 594 c 0,42,43
 138 567 138 567 131.5 495.5 c 128,-1,44
 125 424 125 424 125 385 c 0,45,46
 125 214 125 214 236 179 c 0,47,48
 248 176 248 176 260 176 c 0,49,50
 347 176 347 176 421 344 c 0,51,52
 489 498 489 498 489 638 c 0,53,54
 489 708 489 708 467 736 c 1,55,56
 465 746 465 746 465 754 c 0,57,58
 465 782 465 782 483 799 c 0,59,60
 485 801 485 801 515 819 c 1,61,62
 563 807 563 807 576 739 c 0,63,64
 581 714 581 714 581 644 c 0,27,28
EndSplineSet
Validated: 33
EndChar

StartChar: questiondown
Encoding: 191 191 100
Width: 588
Flags: W
LayerCount: 2
Fore
SplineSet
-52.5537 173.395 m 4,0,1
 -40.5381 229.854 -40.5381 229.854 43.5654 273.747 c 4,2,3
 103.895 304.463 103.895 304.463 202.113 329.005 c 5,4,5
 254.812 341.008 254.812 341.008 307.512 353.01 c 5,6,7
 361.526 405.46 361.526 405.46 398.703 425.918 c 5,8,9
 412.354 430.088 412.354 430.088 425.341 435.42 c 5,10,-1
 465.432 426.733 l 5,11,12
 464.811 423.812 464.811 423.812 465.563 403.792 c 132,-1,13
 466.316 383.771 466.316 383.771 463.831 372.091 c 4,14,15
 449.95 306.871 449.95 306.871 345.966 272.376 c 5,16,17
 250.982 250.188 250.982 250.188 156 228 c 4,18,19
 54.0879 203.24 54.0879 203.24 44.3506 157.488 c 4,20,21
 29.4336 87.4014 29.4336 87.4014 158.927 31.8477 c 5,22,23
 188.56 25.4268 188.56 25.4268 312.132 57.7129 c 4,24,25
 431.803 88.8086 431.803 88.8086 451.227 81.5449 c 4,26,27
 481.565 69.8789 481.565 69.8789 485.474 49.6846 c 4,28,29
 485.517 45.6016 485.517 45.6016 481.58 27.1064 c 4,30,31
 466.041 -45.9014 466.041 -45.9014 309.594 -52.7344 c 4,32,33
 190.951 -57.5762 190.951 -57.5762 99.6045 -32.6904 c 4,34,35
 47.0625 -18.251 47.0625 -18.251 -5.94922 41.0977 c 4,36,37
 -66.2275 109.148 -66.2275 109.148 -52.5537 173.395 c 4,0,1
410.241 672.906 m 5,38,39
 460.24 693.641 460.24 693.641 494.23 686.275 c 4,40,41
 508.175 683.254 508.175 683.254 515.318 665.413 c 132,-1,42
 522.461 647.571 522.461 647.571 518.732 630.05 c 4,43,44
 512.311 599.873 512.311 599.873 489.7 579.314 c 132,-1,45
 467.091 558.756 467.091 558.756 452.274 561.966 c 4,46,47
 410.44 571.031 410.44 571.031 388.767 606.277 c 5,48,-1
 410.241 672.906 l 5,38,39
EndSplineSet
Validated: 33
EndChar

StartChar: exclamdown
Encoding: 161 161 101
Width: 504
Flags: W
LayerCount: 2
Fore
SplineSet
26.1543 -39.5 m 4,0,1
 25.665 -25.5 25.665 -25.5 78.1484 46.5 c 4,2,3
 151.55 149.5 151.55 149.5 157.235 158.5 c 4,4,5
 173.396 182.5 173.396 182.5 216.937 281.5 c 4,6,7
 263.303 385.5 263.303 385.5 288.73 430.5 c 4,8,9
 331.215 502.5 331.215 502.5 361.215 502.5 c 4,10,11
 374.215 502.5 374.215 502.5 385.669 489.5 c 5,12,13
 388.704 488.5 388.704 488.5 388.983 480.5 c 4,14,15
 390.381 440.5 390.381 440.5 330 294 c 132,-1,16
 269.619 147.5 269.619 147.5 202.603 33.5 c 4,17,18
 125.251 -99.5 125.251 -99.5 88.251 -99.5 c 4,19,20
 59.251 -99.5 59.251 -99.5 41.4463 -76.5 c 4,21,22
 26.8174 -58.5 26.8174 -58.5 26.1543 -39.5 c 4,0,1
360.296 700.5 m 4,23,24
 358.933 739.5 358.933 739.5 392.583 749.5 c 5,25,-1
 467.583 749.5 l 5,26,27
 467.688 746.5 467.688 746.5 473.765 730 c 132,-1,28
 479.841 713.5 479.841 713.5 480.296 700.5 c 4,29,30
 482.393 640.5 482.393 640.5 427.393 640.5 c 4,31,32
 402.393 640.5 402.393 640.5 381.641 662 c 132,-1,33
 360.89 683.5 360.89 683.5 360.296 700.5 c 4,23,24
EndSplineSet
Validated: 33
EndChar

StartChar: emdash
Encoding: 8212 8212 102
Width: 726
Flags: W
LayerCount: 2
Fore
SplineSet
556.856 295.492 m 4,0,1
 512.03 296.854 512.03 296.854 452.996 302.562 c 4,2,3
 408.831 306.834 408.831 306.834 337.646 302.825 c 4,4,-1
 246.649 297.752 l 4,5,6
 173.954 293.756 173.954 293.756 164.305 290.87 c 4,7,8
 140.521 283.757 140.521 283.757 120.25 284.372 c 4,9,10
 81.8428 285.538 81.8428 285.538 57.0049 305.443 c 4,11,12
 29.002 326.314 29.002 326.314 30.3623 360.225 c 4,13,14
 30.7803 370.658 30.7803 370.658 34.4697 382.733 c 4,15,16
 70.2285 427.981 70.2285 427.981 240 424.27 c 4,17,-1
 492.356 418.454 l 4,18,19
 587.447 416.47 587.447 416.47 660.697 381.136 c 4,20,21
 672.663 359.88 672.663 359.88 672 343.36 c 4,22,23
 669.942 292.061 669.942 292.061 556.856 295.492 c 4,0,1
EndSplineSet
Validated: 33
EndChar

StartChar: endash
Encoding: 8211 8211 103
Width: 490
Flags: W
LayerCount: 2
Fore
SplineSet
35 334 m 1,0,1
 58 364 58 364 80 364 c 0,2,3
 99 364 99 364 193 368.5 c 128,-1,4
 287 373 287 373 311 373 c 0,5,6
 319 373 319 373 358 382 c 128,-1,7
 397 391 397 391 405 391 c 0,8,9
 443 391 443 391 452 377 c 0,10,11
 454 374 454 374 454 342 c 0,12,13
 454 342 454 342 454 341 c 128,-1,14
 454 340 454 340 454 340 c 128,-1,15
 454 340 454 340 454 339 c 0,16,17
 454 339 454 339 454 338 c 0,18,19
 454.01 337.695 454.01 337.695 454.01 337.391 c 0,20,21
 454.01 305.8 454.01 305.8 351 285 c 1,22,23
 262 266 262 266 153 266 c 0,24,25
 48 266 48 266 35 284 c 1,26,-1
 35 334 l 1,0,1
EndSplineSet
Validated: 1
EndChar

StartChar: ellipsis
Encoding: 8230 8230 104
Width: 717
Flags: W
LayerCount: 2
Fore
SplineSet
554.828 48.4258 m 4,0,1
 568.146 111.024 568.146 111.024 649.329 93.752 c 4,2,3
 677.694 87.7168 677.694 87.7168 695.737 71.6094 c 4,4,5
 716.299 52.9209 716.299 52.9209 711.512 30.4248 c 4,6,7
 704.229 -3.80957 704.229 -3.80957 665 -20 c 4,8,9
 632.473 -33.5273 632.473 -33.5273 603.13 -27.2842 c 4,10,11
 585.523 -23.5381 585.523 -23.5381 568.303 3.64062 c 132,-1,12
 551.082 30.8203 551.082 30.8203 554.828 48.4258 c 4,0,1
447 33 m 5,13,14
 433 21 433 21 406 11 c 4,15,16
 383 3 383 3 374 3 c 4,17,18
 311 3 311 3 311 52 c 4,19,20
 311 72 311 72 326 99 c 4,21,22
 343 130 343 130 365 130 c 4,23,24
 405 130 405 130 447 89 c 5,25,26
 461 58 461 58 447 33 c 5,13,14
212 52 m 4,27,28
 212 -12 212 -12 129 -12 c 4,29,30
 100 -12 100 -12 79 0 c 4,31,32
 55 14 55 14 55 37 c 4,33,34
 55 72 55 72 90 96 c 4,35,36
 119 116 119 116 149 116 c 4,37,38
 167 116 167 116 189.5 93 c 132,-1,39
 212 70 212 70 212 52 c 4,27,28
EndSplineSet
EndChar

StartChar: twodotenleader
Encoding: 8229 8229 105
Width: 486
Flags: W
LayerCount: 2
Fore
SplineSet
447 33 m 1,0,1
 433 21 433 21 406 11 c 0,2,3
 383 3 383 3 374 3 c 0,4,5
 311 3 311 3 311 52 c 0,6,7
 311 72 311 72 326 99 c 0,8,9
 343 130 343 130 365 130 c 0,10,11
 405 130 405 130 447 89 c 1,12,13
 461 58 461 58 447 33 c 1,0,1
212 52 m 0,14,15
 212 -12 212 -12 129 -12 c 0,16,17
 100 -12 100 -12 79 0 c 0,18,19
 55 14 55 14 55 37 c 0,20,21
 55 72 55 72 90 96 c 0,22,23
 119 116 119 116 149 116 c 0,24,25
 167 116 167 116 189.5 93 c 128,-1,26
 212 70 212 70 212 52 c 0,14,15
EndSplineSet
EndChar

StartChar: onedotenleader
Encoding: 8228 8228 106
Width: 500
Flags: HW
LayerCount: 2
Fore
SplineSet
371.403 -36.8428 m 1,0,1
 334.479 -30.6172 334.479 -30.6172 299.113 -19.1182 c 1,2,3
 276.215 -7.98828 276.215 -7.98828 183.001 -22.1514 c 0,4,5
 183.072 -22.5684 183.072 -22.5684 121.291 -39.1436 c 0,6,7
 103.988 -43.7852 103.988 -43.7852 77.2676 -39.3008 c 0,8,9
 73.8564 -38.7275 73.8564 -38.7275 54 -16 c 128,-1,10
 34.1455 6.72559 34.1455 6.72559 35.7158 22.0693 c 0,11,12
 39.8271 56.9219 39.8271 56.9219 91.2744 84.0117 c 0,13,14
 125.771 103.08 125.771 103.08 196.363 96.8379 c 0,15,16
 313.305 87.6104 313.305 87.6104 315.419 87.2744 c 0,17,18
 410.557 72.1797 410.557 72.1797 439.26 42.3105 c 1,19,20
 455.715 23.8682 455.715 23.8682 449.626 7.78906 c 0,21,22
 430.027 -43.958 430.027 -43.958 371.403 -36.8428 c 1,0,1
EndSplineSet
EndChar

StartChar: asterisk
Encoding: 42 42 107
Width: 517
VWidth: 0
Flags: W
LayerCount: 2
Fore
SplineSet
12.0234 326.301 m 1,0,1
 38.292 350.814 38.292 350.814 63.3369 350.733 c 0,2,3
 82.752 350.671 82.752 350.671 170.343 353.333 c 1,4,-1
 139.969 386.466 l 2,5,6
 85.7383 445.622 85.7383 445.622 78.2832 457.224 c 0,7,8
 64.9473 477.977 64.9473 477.977 66.8701 528.805 c 5,9,-1
 90.0664 554.941 l 5,10,11
 171.975 475.283 171.975 475.283 176 470 c 2,12,-1
 208 428 l 2,13,14
 222 410 222 410 235.374 390.999 c 1,15,16
 246.028 403.004 246.028 403.004 270.177 446.673 c 128,-1,17
 294.325 490.341 294.325 490.341 310 508 c 0,18,19
 362.664 567.335 362.664 567.335 386.19 550.909 c 1,20,-1
 411.264 511.894 l 1,21,22
 401.777 471.15 401.777 471.15 375.446 441.481 c 0,23,24
 364.161 428.767 364.161 428.767 343.63 401.339 c 0,25,26
 324.873 376.281 324.873 376.281 311.188 360.489 c 2,27,-1
 308.241 357.09 l 1,28,29
 319.677 357.272 319.677 357.272 326.354 357.251 c 0,30,31
 335.461 357.222 335.461 357.222 379.888 364.453 c 128,-1,32
 424.312 371.687 424.312 371.687 433.421 371.658 c 0,33,34
 477.821 371.513 477.821 371.513 486.893 360.003 c 0,35,36
 488.108 358.682 488.108 358.682 489.074 331.296 c 0,37,38
 489.593 316.597 489.593 316.597 460.352 305.116 c 128,-1,39
 431.11 293.637 431.11 293.637 371.656 284.941 c 0,40,41
 340.881 280.44 340.881 280.44 308.532 277.3 c 1,42,-1
 322.706 261.833 l 2,43,44
 346.785 235.557 346.785 235.557 400.01 188.637 c 0,45,46
 404.998 184.239 404.998 184.239 409.267 177.599 c 0,47,48
 417.269 165.146 417.269 165.146 423.963 131.183 c 1,49,50
 421.427 118.309 421.427 118.309 413.276 109.125 c 1,51,52
 417.665 114.07 417.665 114.07 388.854 91.625 c 1,53,54
 323.58 131.252 323.58 131.252 306 160 c 0,55,56
 249.112 253.028 249.112 253.028 244 262 c 1,57,58
 225.192 240.809 225.192 240.809 187.561 174.696 c 128,-1,59
 149.929 108.583 149.929 108.583 120.464 75.3828 c 1,60,61
 111.62 74.0059 111.62 74.0059 103.403 73.3359 c 1,62,63
 89.4785 74.8203 89.4785 74.8203 70.5264 99.2656 c 1,64,65
 65.8096 142.608 65.8096 142.608 104.424 186.12 c 0,66,67
 107.558 189.651 107.558 189.651 172.413 267.02 c 1,68,-1
 175.036 270.23 l 1,69,70
 160.727 270.052 160.727 270.052 146.185 270.1 c 0,71,72
 26.6416 270.492 26.6416 270.492 11.8896 285.301 c 1,73,-1
 12.0234 326.301 l 1,0,1
EndSplineSet
EndChar

StartChar: Agrave
Encoding: 192 192 108
Width: 531
Flags: HW
LayerCount: 2
Fore
SplineSet
123.896 1004.65 m 4,0,1
 142.257 970.588 142.257 970.588 255.328 935.051 c 132,-1,2
 368.401 899.514 368.401 899.514 395.523 916.584 c 5,3,4
 404.546 946.058 404.546 946.058 393.443 966.655 c 4,5,6
 379.354 992.8 379.354 992.8 276 1044 c 132,-1,7
 172.646 1095.2 172.646 1095.2 143.249 1084.28 c 4,8,9
 138.824 1082.86 138.824 1082.86 135.257 1079.85 c 4,10,11
 121.69 1068.44 121.69 1068.44 119.802 1039.21 c 4,12,13
 118.346 1014.95 118.346 1014.95 123.896 1004.65 c 4,0,1
492 318 m 0,14,15
 521 169 521 169 521 110 c 0,16,17
 521 22 521 22 471 22 c 0,18,19
 457 22 457 22 439 29 c 1,20,21
 411 35 411 35 405 104 c 0,22,23
 404 117 404 117 404 242 c 1,24,25
 398 249 398 249 392 249 c 1,26,27
 395 249 395 249 369 249 c 0,28,29
 357 249 357 249 276 214 c 1,30,31
 166 168 166 168 145 160 c 1,32,33
 140 146 140 146 119 42 c 0,34,35
 105 -31 105 -31 71 -71 c 1,36,37
 51 -75 51 -75 36 -75 c 0,38,39
 -4 -75 -4 -75 -17 -45 c 1,40,41
 -26 -27 -26 -27 -26 14 c 0,42,43
 -26 23 -26 23 42 232 c 0,44,45
 120 470 120 470 179 627 c 0,46,47
 259 839 259 839 282 839 c 0,48,49
 389 839 389 839 492 318 c 0,14,15
394 373 m 1,50,51
 361 521 361 521 337 570 c 1,52,53
 313 609 313 609 289 649 c 1,54,55
 184 386 184 386 185 353 c 1,56,-1
 185 310 l 1,57,58
 226 323 226 323 317 344 c 0,59,60
 374 357 374 357 394 373 c 1,50,51
EndSplineSet
EndChar

StartChar: Acircumflex
Encoding: 194 194 109
Width: 531
Flags: HW
LayerCount: 2
Fore
SplineSet
287.178 1067.41 m 4,0,1
 290.636 1067.47 290.636 1067.47 298.311 1067.06 c 4,2,3
 322.479 1066.56 322.479 1066.56 333.473 1050.07 c 5,4,-1
 373.688 983.101 l 6,5,6
 412.307 918.785 412.307 918.785 426.772 892.43 c 5,7,8
 433.566 883.885 433.566 883.885 433.365 872.264 c 132,-1,9
 433.163 860.641 433.163 860.641 425.918 852.455 c 4,10,11
 412.817 837.802 412.817 837.802 375.448 837.492 c 5,12,13
 370.596 839.764 370.596 839.764 358.084 850.89 c 4,14,15
 342.522 866.065 342.522 866.065 330 885 c 132,-1,16
 317.478 903.936 317.478 903.936 302.309 932.704 c 132,-1,17
 287.139 961.473 287.139 961.473 281.147 971.599 c 5,18,19
 274.502 959.72 274.502 959.72 268.605 946.489 c 132,-1,20
 262.709 933.26 262.709 933.26 255.287 914.587 c 6,21,-1
 244.749 888.561 l 5,22,-1
 239.32 876.261 l 6,23,24
 235.251 866.914 235.251 866.914 233.034 862.536 c 132,-1,25
 230.817 858.158 230.817 858.158 226.771 851.085 c 132,-1,26
 222.724 844.013 222.724 844.013 218.164 838.974 c 132,-1,27
 213.604 833.935 213.604 833.935 208.096 829.901 c 4,28,29
 193.058 818.054 193.058 818.054 171.508 825.047 c 5,30,31
 151.764 827.654 151.764 827.654 144.871 842.135 c 4,32,33
 137.685 855.334 137.685 855.334 148.9 877.946 c 4,34,35
 199.169 985.56 199.169 985.56 234.991 1030.05 c 5,36,37
 264.003 1064.58 264.003 1064.58 287.178 1067.41 c 4,0,1
492 318 m 0,38,39
 521 169 521 169 521 110 c 0,40,41
 521 22 521 22 471 22 c 0,42,43
 457 22 457 22 439 29 c 1,44,45
 411 35 411 35 405 104 c 0,46,47
 404 117 404 117 404 242 c 1,48,49
 398 249 398 249 392 249 c 1,50,51
 395 249 395 249 369 249 c 0,52,53
 357 249 357 249 276 214 c 1,54,55
 166 168 166 168 145 160 c 1,56,57
 140 146 140 146 119 42 c 0,58,59
 105 -31 105 -31 71 -71 c 1,60,61
 51 -75 51 -75 36 -75 c 0,62,63
 -4 -75 -4 -75 -17 -45 c 1,64,65
 -26 -27 -26 -27 -26 14 c 0,66,67
 -26 23 -26 23 42 232 c 0,68,69
 120 470 120 470 179 627 c 0,70,71
 259 839 259 839 282 839 c 0,72,73
 389 839 389 839 492 318 c 0,38,39
394 373 m 1,74,75
 361 521 361 521 337 570 c 1,76,77
 313 609 313 609 289 649 c 1,78,79
 184 386 184 386 185 353 c 1,80,-1
 185 310 l 1,81,82
 226 323 226 323 317 344 c 0,83,84
 374 357 374 357 394 373 c 1,74,75
EndSplineSet
EndChar

StartChar: Atilde
Encoding: 195 195 110
Width: 531
Flags: HW
LayerCount: 2
Fore
SplineSet
425.684 1035.99 m 4,0,1
 452.57 1036.86 452.57 1036.86 476.68 1022.9 c 4,2,3
 499.934 1009.34 499.934 1009.34 496.259 993.677 c 5,4,5
 481.665 957.187 481.665 957.187 455.697 932.182 c 4,6,7
 435.652 913.464 435.652 913.464 408 903 c 132,-1,8
 380.347 892.536 380.347 892.536 351.729 894.403 c 5,9,10
 332.679 896.594 332.679 896.594 301.099 909.872 c 132,-1,11
 269.52 923.148 269.52 923.148 254.789 926.287 c 5,12,13
 253.253 924.474 253.253 924.474 243.559 914.014 c 132,-1,14
 233.864 903.552 233.864 903.552 229.777 897.426 c 4,15,16
 228.752 894.961 228.752 894.961 225.313 891.338 c 132,-1,17
 221.875 887.715 221.875 887.715 220.879 886.182 c 4,18,19
 218.629 883.275 218.629 883.275 216.026 875.815 c 132,-1,20
 213.423 868.355 213.423 868.355 210.216 865.15 c 4,21,22
 192.631 852.515 192.631 852.515 161.518 858.157 c 4,23,24
 134.253 863.204 134.253 863.204 127.626 876.786 c 5,25,26
 124.9 886.668 124.9 886.668 125.204 894.688 c 4,27,28
 127.002 942.186 127.002 942.186 181.045 982.378 c 4,29,30
 214.658 1007.76 214.658 1007.76 255.5 1008.11 c 4,31,32
 273.819 1008.21 273.819 1008.21 304.451 997.206 c 132,-1,33
 335.081 986.203 335.081 986.203 342.146 984.562 c 4,34,35
 366.256 978.229 366.256 978.229 376.107 985.271 c 5,36,37
 382.217 991.307 382.217 991.307 389.346 1004.89 c 132,-1,38
 396.475 1018.48 396.475 1018.48 397.854 1020.61 c 4,39,40
 400.274 1027.62 400.274 1027.62 408.304 1031.71 c 132,-1,41
 416.334 1035.8 416.334 1035.8 425.684 1035.99 c 4,0,1
492 318 m 0,42,43
 521 169 521 169 521 110 c 0,44,45
 521 22 521 22 471 22 c 0,46,47
 457 22 457 22 439 29 c 1,48,49
 411 35 411 35 405 104 c 0,50,51
 404 117 404 117 404 242 c 1,52,53
 398 249 398 249 392 249 c 1,54,55
 395 249 395 249 369 249 c 0,56,57
 357 249 357 249 276 214 c 1,58,59
 166 168 166 168 145 160 c 1,60,61
 140 146 140 146 119 42 c 0,62,63
 105 -31 105 -31 71 -71 c 1,64,65
 51 -75 51 -75 36 -75 c 0,66,67
 -4 -75 -4 -75 -17 -45 c 1,68,69
 -26 -27 -26 -27 -26 14 c 0,70,71
 -26 23 -26 23 42 232 c 0,72,73
 120 470 120 470 179 627 c 0,74,75
 259 839 259 839 282 839 c 0,76,77
 389 839 389 839 492 318 c 0,42,43
394 373 m 1,78,79
 361 521 361 521 337 570 c 1,80,81
 313 609 313 609 289 649 c 1,82,83
 184 386 184 386 185 353 c 1,84,-1
 185 310 l 1,85,86
 226 323 226 323 317 344 c 0,87,88
 374 357 374 357 394 373 c 1,78,79
EndSplineSet
EndChar

StartChar: Adieresis
Encoding: 196 196 111
Width: 531
Flags: HW
LayerCount: 2
Fore
SplineSet
366.262 900.406 m 5,0,1
 356.143 911.421 356.143 911.421 347.098 933.156 c 4,2,3
 339.805 951.69 339.805 951.69 339.443 959.062 c 4,4,5
 336.925 1010.66 336.925 1010.66 375.958 1012.51 c 4,6,7
 391.891 1013.26 391.891 1013.26 414 1002 c 4,8,9
 439.374 989.247 439.374 989.247 440.255 971.229 c 4,10,11
 441.855 938.469 441.855 938.469 410.873 902.523 c 5,12,13
 386.738 889.885 386.738 889.885 366.262 900.406 c 5,0,1
176.477 879.508 m 4,14,15
 125.493 877.091 125.493 877.091 122.173 945.068 c 4,16,17
 121.014 968.819 121.014 968.819 129.733 986.471 c 4,18,19
 139.925 1006.66 139.925 1006.66 158.247 1007.53 c 4,20,21
 186.129 1008.85 186.129 1008.85 206.647 981.088 c 4,22,23
 223.74 958.093 223.74 958.093 224.941 933.522 c 4,24,25
 225.66 918.779 225.66 918.779 208.238 899.483 c 132,-1,26
 190.816 880.187 190.816 880.187 176.477 879.508 c 4,14,15
492 318 m 0,27,28
 521 169 521 169 521 110 c 0,29,30
 521 22 521 22 471 22 c 0,31,32
 457 22 457 22 439 29 c 1,33,34
 411 35 411 35 405 104 c 0,35,36
 404 117 404 117 404 242 c 1,37,38
 398 249 398 249 392 249 c 1,39,40
 395 249 395 249 369 249 c 0,41,42
 357 249 357 249 276 214 c 1,43,44
 166 168 166 168 145 160 c 1,45,46
 140 146 140 146 119 42 c 0,47,48
 105 -31 105 -31 71 -71 c 1,49,50
 51 -75 51 -75 36 -75 c 0,51,52
 -4 -75 -4 -75 -17 -45 c 1,53,54
 -26 -27 -26 -27 -26 14 c 0,55,56
 -26 23 -26 23 42 232 c 0,57,58
 120 470 120 470 179 627 c 0,59,60
 259 839 259 839 282 839 c 0,61,62
 389 839 389 839 492 318 c 0,27,28
394 373 m 1,63,64
 361 521 361 521 337 570 c 1,65,66
 313 609 313 609 289 649 c 1,67,68
 184 386 184 386 185 353 c 1,69,-1
 185 310 l 1,70,71
 226 323 226 323 317 344 c 0,72,73
 374 357 374 357 394 373 c 1,63,64
EndSplineSet
EndChar

StartChar: Aring
Encoding: 197 197 112
Width: 531
Flags: HW
LayerCount: 2
Fore
SplineSet
451.168 1030.2 m 5,0,1
 457.264 992.198 457.264 992.198 402 933 c 132,-1,2
 346.735 873.803 346.735 873.803 302.792 873.803 c 4,3,4
 260.39 873.803 260.39 873.803 224.142 897.92 c 4,5,6
 182.916 924.23 182.916 924.23 176.352 965.157 c 4,7,8
 168.498 1014.12 168.498 1014.12 201.304 1083.55 c 4,9,10
 239.711 1166.14 239.711 1166.14 302.158 1166.14 c 4,11,12
 304.471 1166.14 304.471 1166.14 315.532 1166.87 c 132,-1,13
 326.593 1167.6 326.593 1167.6 335.074 1167.6 c 4,14,15
 407.542 1167.6 407.542 1167.6 436.631 1120.83 c 5,16,17
 449.467 1103.29 449.467 1103.29 453.102 1080.63 c 4,18,19
 456.97 1056.51 456.97 1056.51 451.168 1030.2 c 5,0,1
370.893 1062.53 m 4,20,21
 357.798 1092.08 357.798 1092.08 346.116 1092.08 c 4,22,23
 343.042 1092.08 343.042 1092.08 336.746 1089 c 132,-1,24
 330.45 1085.93 330.45 1085.93 326.146 1085.93 c 4,25,26
 298.356 1085.93 298.356 1085.93 274.871 1055.14 c 4,27,28
 248.3 1020.31 248.3 1020.31 251.339 987.409 c 4,29,30
 256.014 956.622 256.014 956.622 286.756 956.622 c 4,31,32
 307.045 956.622 307.045 956.622 341.439 989.256 c 4,33,34
 377.825 1024.97 377.825 1024.97 373.432 1053.91 c 4,35,36
 372.777 1058.22 372.777 1058.22 370.893 1062.53 c 4,20,21
492 318 m 0,37,38
 521 169 521 169 521 110 c 0,39,40
 521 22 521 22 471 22 c 0,41,42
 457 22 457 22 439 29 c 1,43,44
 411 35 411 35 405 104 c 0,45,46
 404 117 404 117 404 242 c 1,47,48
 398 249 398 249 392 249 c 1,49,50
 395 249 395 249 369 249 c 0,51,52
 357 249 357 249 276 214 c 1,53,54
 166 168 166 168 145 160 c 1,55,56
 140 146 140 146 119 42 c 0,57,58
 105 -31 105 -31 71 -71 c 1,59,60
 51 -75 51 -75 36 -75 c 0,61,62
 -4 -75 -4 -75 -17 -45 c 1,63,64
 -26 -27 -26 -27 -26 14 c 0,65,66
 -26 23 -26 23 42 232 c 0,67,68
 120 470 120 470 179 627 c 0,69,70
 259 839 259 839 282 839 c 0,71,72
 389 839 389 839 492 318 c 0,37,38
394 373 m 1,73,74
 361 521 361 521 337 570 c 1,75,76
 313 609 313 609 289 649 c 1,77,78
 184 386 184 386 185 353 c 1,79,-1
 185 310 l 1,80,81
 226 323 226 323 317 344 c 0,82,83
 374 357 374 357 394 373 c 1,73,74
EndSplineSet
EndChar

StartChar: Ccedilla
Encoding: 199 199 113
Width: 500
Flags: HW
LayerCount: 2
Fore
SplineSet
313.221 89.0947 m 1,0,1
 316.86 140.13 316.86 140.13 359.63 140.13 c 0,2,3
 392.391 140.13 392.391 140.13 420.601 101.205 c 1,4,5
 446.392 62.2158 446.392 62.2158 447.9 49.3047 c 0,6,7
 453.36 2.59473 453.36 2.59473 450.63 -28.5449 c 0,8,9
 443.483 -67.708 443.483 -67.708 412.41 -90.8252 c 0,10,11
 370.55 -121.965 370.55 -121.965 325.05 -121.965 c 0,12,13
 271.187 -121.965 271.187 -121.965 253.16 -66.6055 c 1,14,15
 255.743 -45.7354 255.743 -45.7354 315.04 -23.3555 c 0,16,17
 378.614 0.639648 378.614 0.639648 338.7 51.9004 c 0,18,19
 310.929 87.5674 310.929 87.5674 313.221 89.0947 c 1,0,1
491.387 286.462 m 0,20,21
 491.387 208.132 491.387 208.132 395.592 159.643 c 0,22,23
 317.392 120.478 317.392 120.478 242.125 123.274 c 0,24,25
 122.869 127.938 122.869 127.938 53.4668 284.597 c 1,26,27
 -1.27246 404.89 -1.27246 404.89 2.63672 505.6 c 0,28,29
 8.50195 659.462 8.50195 659.462 82.792 772.295 c 1,30,31
 169.79 906.574 169.79 906.574 315.438 906.574 c 0,32,33
 388.75 906.574 388.75 906.574 435.67 825.447 c 0,34,35
 471.837 763.902 471.837 763.902 471.837 710.75 c 0,36,37
 471.837 665.058 471.837 665.058 456.197 617.5 c 0,38,39
 436.647 561.55 436.647 561.55 408.3 561.55 c 0,40,41
 339.875 561.55 339.875 561.55 339.875 618.433 c 0,42,43
 339.875 638.015 339.875 638.015 350.139 682.774 c 128,-1,44
 360.402 727.534 360.402 727.534 360.402 747.117 c 0,45,46
 360.402 804 360.402 804 291 804 c 0,47,48
 191.739 804 191.739 804 136.555 665.989 c 0,49,50
 100.387 575.537 100.387 575.537 100.387 505.6 c 0,51,52
 100.387 421.675 100.387 421.675 133.622 334.952 c 0,53,54
 179.564 216.524 179.564 216.524 261.675 216.524 c 0,55,56
 327.726 216.524 327.726 216.524 366.267 238.904 c 0,57,58
 388.75 251.96 388.75 251.96 421.984 287.395 c 1,59,60
 453.265 318.167 453.265 318.167 477.702 328.425 c 1,61,62
 491.387 315.37 491.387 315.37 491.387 286.462 c 0,20,21
EndSplineSet
EndChar

StartChar: Egrave
Encoding: 200 200 114
Width: 602
Flags: HW
LayerCount: 2
Fore
SplineSet
141.568 924.6 m 4,0,1
 159.929 890.537 159.929 890.537 273 855 c 132,-1,2
 386.073 819.463 386.073 819.463 413.195 836.533 c 5,3,4
 422.218 866.007 422.218 866.007 411.115 886.604 c 4,5,6
 397.025 912.749 397.025 912.749 293.672 963.949 c 132,-1,7
 190.318 1015.15 190.318 1015.15 160.921 1004.23 c 4,8,9
 156.496 1002.81 156.496 1002.81 152.929 999.799 c 4,10,11
 139.362 988.389 139.362 988.389 137.474 959.159 c 4,12,13
 136.018 934.899 136.018 934.899 141.568 924.6 c 4,0,1
636 773 m 1,14,15
 576 694 576 694 445 659 c 0,16,17
 268 613 268 613 249 603 c 0,18,19
 159 554 159 554 159 424 c 0,20,21
 159 402 159 402 162 377 c 1,22,23
 162 380 162 380 185 380 c 0,24,25
 197 380 197 380 328 430 c 128,-1,26
 459 480 459 480 471 479 c 1,27,-1
 544 479 l 1,28,-1
 544 423 l 1,29,30
 449 352 449 352 335 314 c 1,31,32
 244 288 244 288 153 261 c 1,33,34
 145 247 145 247 145 190 c 0,35,36
 145 112 145 112 169 78 c 1,37,38
 194 40 194 40 255 40 c 0,39,40
 313 40 313 40 409 80 c 0,41,42
 550 138 550 138 553 139 c 1,43,44
 553 136 553 136 559 125 c 128,-1,45
 565 114 565 114 565 100 c 0,46,47
 565 57 565 57 492 13 c 0,48,49
 437 -20 437 -20 352 -47 c 1,50,51
 283 -70 283 -70 265 -70 c 0,52,53
 122 -70 122 -70 74 38 c 0,54,55
 45 102 45 102 45 245 c 0,56,57
 45 360 45 360 68 498 c 0,58,59
 105 720 105 720 180 720 c 0,60,61
 191 720 191 720 206.5 715 c 128,-1,62
 222 710 222 710 235 710 c 0,63,64
 272 710 272 710 407.5 760 c 128,-1,65
 543 810 543 810 600 810 c 0,66,67
 617 810 617 810 628 798.5 c 128,-1,68
 639 787 639 787 639 778 c 0,69,70
 639 773 639 773 636 773 c 1,14,15
EndSplineSet
EndChar

StartChar: Ecircumflex
Encoding: 202 202 115
Width: 602
Flags: HW
LayerCount: 2
Fore
SplineSet
335.099 1050.69 m 4,0,1
 331.607 1050.21 331.607 1050.21 323.856 1048.57 c 4,2,3
 299.45 1044.22 299.45 1044.22 288.286 1026.13 c 5,4,-1
 247.422 953.351 l 6,5,6
 208.178 883.459 208.178 883.459 193.472 855.035 c 5,7,8
 186.579 845.483 186.579 845.483 186.736 834 c 132,-1,9
 186.896 822.515 186.896 822.515 194.181 815.56 c 4,10,11
 207.354 803.128 207.354 803.128 245.086 808.78 c 5,12,13
 249.994 811.805 249.994 811.805 262.671 824.825 c 4,14,15
 278.442 842.346 278.442 842.346 291.159 863.106 c 132,-1,16
 303.877 883.868 303.877 883.868 319.304 914.795 c 132,-1,17
 334.732 945.722 334.732 945.722 340.821 956.712 c 5,18,19
 347.486 946.001 347.486 946.001 353.39 933.83 c 132,-1,20
 359.292 921.66 359.292 921.66 366.715 904.341 c 6,21,-1
 377.256 880.23 l 5,22,-1
 382.691 868.909 l 6,23,24
 386.764 860.295 386.764 860.295 388.985 856.311 c 132,-1,25
 391.207 852.326 391.207 852.326 395.266 845.962 c 132,-1,26
 399.325 839.6 399.325 839.6 403.91 835.333 c 132,-1,27
 408.495 831.066 408.495 831.066 414.042 827.948 c 4,28,29
 429.182 818.606 429.182 818.606 450.968 828.974 c 5,30,31
 470.915 834.706 470.915 834.706 477.931 850.154 c 4,32,33
 485.238 864.381 485.238 864.381 474 885 c 4,34,35
 423.653 983.62 423.653 983.62 387.651 1021.99 c 5,36,37
 358.489 1051.58 358.489 1051.58 335.099 1050.69 c 4,0,1
636 773 m 1,38,39
 576 694 576 694 445 659 c 0,40,41
 268 613 268 613 249 603 c 0,42,43
 159 554 159 554 159 424 c 0,44,45
 159 402 159 402 162 377 c 1,46,47
 162 380 162 380 185 380 c 0,48,49
 197 380 197 380 328 430 c 128,-1,50
 459 480 459 480 471 479 c 1,51,-1
 544 479 l 1,52,-1
 544 423 l 1,53,54
 449 352 449 352 335 314 c 1,55,56
 244 288 244 288 153 261 c 1,57,58
 145 247 145 247 145 190 c 0,59,60
 145 112 145 112 169 78 c 1,61,62
 194 40 194 40 255 40 c 0,63,64
 313 40 313 40 409 80 c 0,65,66
 550 138 550 138 553 139 c 1,67,68
 553 136 553 136 559 125 c 128,-1,69
 565 114 565 114 565 100 c 0,70,71
 565 57 565 57 492 13 c 0,72,73
 437 -20 437 -20 352 -47 c 1,74,75
 283 -70 283 -70 265 -70 c 0,76,77
 122 -70 122 -70 74 38 c 0,78,79
 45 102 45 102 45 245 c 0,80,81
 45 360 45 360 68 498 c 0,82,83
 105 720 105 720 180 720 c 0,84,85
 191 720 191 720 206.5 715 c 128,-1,86
 222 710 222 710 235 710 c 0,87,88
 272 710 272 710 407.5 760 c 128,-1,89
 543 810 543 810 600 810 c 0,90,91
 617 810 617 810 628 798.5 c 128,-1,92
 639 787 639 787 639 778 c 0,93,94
 639 773 639 773 636 773 c 1,38,39
EndSplineSet
EndChar

StartChar: Edieresis
Encoding: 203 203 116
Width: 602
Flags: HW
LayerCount: 2
Fore
SplineSet
439.211 889.777 m 5,0,1
 428.111 899.803 428.111 899.803 417.083 920.602 c 4,2,3
 408.097 938.377 408.097 938.377 407.051 945.684 c 4,4,5
 399.742 996.823 399.742 996.823 438.434 1002.3 c 4,6,7
 454.228 1004.53 454.228 1004.53 477.289 995.372 c 4,8,9
 503.739 985.036 503.739 985.036 506.293 967.179 c 4,10,11
 510.936 934.709 510.936 934.709 483.432 896.036 c 5,12,13
 460.578 881.207 460.578 881.207 439.211 889.777 c 5,0,1
252.194 851.31 m 4,14,15
 201.657 844.159 201.657 844.159 192.025 911.532 c 4,16,17
 188.661 935.072 188.661 935.072 195.701 953.459 c 4,18,19
 203.97 974.505 203.97 974.505 222.132 977.075 c 4,20,21
 249.77 980.985 249.77 980.985 272.782 955.256 c 4,22,23
 291.94 933.951 291.94 933.951 295.423 909.6 c 4,24,25
 297.51 894.987 297.51 894.987 281.959 874.154 c 132,-1,26
 266.409 853.319 266.409 853.319 252.194 851.31 c 4,14,15
636 773 m 1,27,28
 576 694 576 694 445 659 c 0,29,30
 268 613 268 613 249 603 c 0,31,32
 159 554 159 554 159 424 c 0,33,34
 159 402 159 402 162 377 c 1,35,36
 162 380 162 380 185 380 c 0,37,38
 197 380 197 380 328 430 c 128,-1,39
 459 480 459 480 471 479 c 1,40,-1
 544 479 l 1,41,-1
 544 423 l 1,42,43
 449 352 449 352 335 314 c 1,44,45
 244 288 244 288 153 261 c 1,46,47
 145 247 145 247 145 190 c 0,48,49
 145 112 145 112 169 78 c 1,50,51
 194 40 194 40 255 40 c 0,52,53
 313 40 313 40 409 80 c 0,54,55
 550 138 550 138 553 139 c 1,56,57
 553 136 553 136 559 125 c 128,-1,58
 565 114 565 114 565 100 c 0,59,60
 565 57 565 57 492 13 c 0,61,62
 437 -20 437 -20 352 -47 c 1,63,64
 283 -70 283 -70 265 -70 c 0,65,66
 122 -70 122 -70 74 38 c 0,67,68
 45 102 45 102 45 245 c 0,69,70
 45 360 45 360 68 498 c 0,71,72
 105 720 105 720 180 720 c 0,73,74
 191 720 191 720 206.5 715 c 128,-1,75
 222 710 222 710 235 710 c 0,76,77
 272 710 272 710 407.5 760 c 128,-1,78
 543 810 543 810 600 810 c 0,79,80
 617 810 617 810 628 798.5 c 128,-1,81
 639 787 639 787 639 778 c 0,82,83
 639 773 639 773 636 773 c 1,27,28
EndSplineSet
EndChar

StartChar: Igrave
Encoding: 204 204 117
Width: 403
Flags: HW
LayerCount: 2
Fore
SplineSet
18.5684 960.6 m 4,0,1
 36.9287 926.537 36.9287 926.537 150 891 c 132,-1,2
 263.073 855.463 263.073 855.463 290.195 872.533 c 5,3,4
 299.218 902.007 299.218 902.007 288.115 922.604 c 4,5,6
 274.025 948.749 274.025 948.749 170.672 999.949 c 132,-1,7
 67.3184 1051.15 67.3184 1051.15 37.9209 1040.23 c 4,8,9
 33.4961 1038.81 33.4961 1038.81 29.9287 1035.8 c 4,10,11
 16.3623 1024.39 16.3623 1024.39 14.4736 995.159 c 4,12,13
 13.0176 970.899 13.0176 970.899 18.5684 960.6 c 4,0,1
304.156 811.566 m 0,14,15
 340.886 811.762 340.886 811.762 351.125 804.578 c 0,16,17
 355.403 801.87 355.403 801.87 358.219 797.729 c 0,18,19
 369.002 781.871 369.002 781.871 361.562 750.031 c 0,20,21
 355.28 723.689 355.28 723.689 346 714.084 c 0,22,23
 326.005 693.392 326.005 693.392 218.781 686.028 c 1,24,25
 246.445 567.878 246.445 567.878 251 445.45 c 0,26,27
 257.528 270.248 257.528 270.248 253.406 134.367 c 1,28,29
 352.212 147.902 352.212 147.902 377.875 131.203 c 0,30,31
 382.596 128.416 382.596 128.416 385.844 124.146 c 0,32,33
 398.117 108.01 398.117 108.01 390.781 76.3428 c 0,34,35
 384.561 50.0967 384.561 50.0967 374.625 40.7432 c 0,36,37
 341.799 9.84277 341.799 9.84277 196.688 5.14355 c 128,-1,38
 51.584 0.438477 51.584 0.438477 25.1875 26.5586 c 1,39,40
 24.1904 60.5859 24.1904 60.5859 44.0312 79.2637 c 128,-1,41
 63.7217 97.7988 63.7217 97.7988 152.875 116.672 c 1,42,43
 148.178 235.747 148.178 235.747 135 441 c 0,44,45
 122.974 624.487 122.974 624.487 121.281 679.771 c 1,46,47
 39.0801 674.836 39.0801 674.836 25.875 689.227 c 1,48,49
 25.7617 734.646 25.7617 734.646 44.5938 754.134 c 0,50,51
 56.3408 766.29 56.3408 766.29 75.4727 772.892 c 128,-1,52
 94.6055 779.496 94.6055 779.496 157.969 793.245 c 0,53,54
 240.845 811.23 240.845 811.23 304.156 811.566 c 0,14,15
EndSplineSet
EndChar

StartChar: Icircumflex
Encoding: 206 206 118
Width: 403
Flags: HW
LayerCount: 2
Fore
SplineSet
191.869 1088.7 m 4,0,1
 195.327 1088.77 195.327 1088.77 203.002 1088.36 c 4,2,3
 227.171 1087.86 227.171 1087.86 238.164 1071.37 c 5,4,-1
 278.379 1004.4 l 6,5,6
 316.999 940.081 316.999 940.081 331.464 913.726 c 5,7,8
 338.258 905.181 338.258 905.181 338.057 893.56 c 132,-1,9
 337.854 881.937 337.854 881.937 330.609 873.751 c 4,10,11
 317.509 859.098 317.509 859.098 280.14 858.788 c 5,12,13
 275.287 861.06 275.287 861.06 262.775 872.186 c 4,14,15
 247.214 887.361 247.214 887.361 234.691 906.296 c 132,-1,16
 222.169 925.231 222.169 925.231 207 954 c 132,-1,17
 191.83 982.769 191.83 982.769 185.839 992.895 c 5,18,19
 179.193 981.016 179.193 981.016 173.297 967.785 c 132,-1,20
 167.4 954.556 167.4 954.556 159.979 935.883 c 6,21,-1
 149.44 909.856 l 5,22,-1
 144.012 897.557 l 6,23,24
 139.942 888.21 139.942 888.21 137.726 883.832 c 132,-1,25
 135.509 879.454 135.509 879.454 131.462 872.381 c 132,-1,26
 127.415 865.309 127.415 865.309 122.855 860.27 c 132,-1,27
 118.296 855.23 118.296 855.23 112.787 851.197 c 4,28,29
 97.749 839.35 97.749 839.35 76.1992 846.343 c 5,30,31
 56.4551 848.95 56.4551 848.95 49.5625 863.431 c 4,32,33
 42.376 876.63 42.376 876.63 53.5918 899.242 c 4,34,35
 103.86 1006.86 103.86 1006.86 139.683 1051.34 c 5,36,37
 168.694 1085.87 168.694 1085.87 191.869 1088.7 c 4,0,1
304.156 811.566 m 0,38,39
 340.886 811.762 340.886 811.762 351.125 804.578 c 0,40,41
 355.403 801.87 355.403 801.87 358.219 797.729 c 0,42,43
 369.002 781.871 369.002 781.871 361.562 750.031 c 0,44,45
 355.28 723.689 355.28 723.689 346 714.084 c 0,46,47
 326.005 693.392 326.005 693.392 218.781 686.028 c 1,48,49
 246.445 567.878 246.445 567.878 251 445.45 c 0,50,51
 257.528 270.248 257.528 270.248 253.406 134.367 c 1,52,53
 352.212 147.902 352.212 147.902 377.875 131.203 c 0,54,55
 382.596 128.416 382.596 128.416 385.844 124.146 c 0,56,57
 398.117 108.01 398.117 108.01 390.781 76.3428 c 0,58,59
 384.561 50.0967 384.561 50.0967 374.625 40.7432 c 0,60,61
 341.799 9.84277 341.799 9.84277 196.688 5.14355 c 128,-1,62
 51.584 0.438477 51.584 0.438477 25.1875 26.5586 c 1,63,64
 24.1904 60.5859 24.1904 60.5859 44.0312 79.2637 c 128,-1,65
 63.7217 97.7988 63.7217 97.7988 152.875 116.672 c 1,66,67
 148.178 235.747 148.178 235.747 135 441 c 0,68,69
 122.974 624.487 122.974 624.487 121.281 679.771 c 1,70,71
 39.0801 674.836 39.0801 674.836 25.875 689.227 c 1,72,73
 25.7617 734.646 25.7617 734.646 44.5938 754.134 c 0,74,75
 56.3408 766.29 56.3408 766.29 75.4727 772.892 c 128,-1,76
 94.6055 779.496 94.6055 779.496 157.969 793.245 c 0,77,78
 240.845 811.23 240.845 811.23 304.156 811.566 c 0,38,39
EndSplineSet
EndChar

StartChar: Idieresis
Encoding: 207 207 119
Width: 403
Flags: HW
LayerCount: 2
Fore
SplineSet
309.614 888.318 m 5,0,1
 299.495 899.333 299.495 899.333 290.45 921.068 c 4,2,3
 283.157 939.603 283.157 939.603 282.796 946.975 c 4,4,5
 280.277 998.572 280.277 998.572 319.311 1000.42 c 4,6,7
 335.243 1001.18 335.243 1001.18 357.353 989.912 c 4,8,9
 382.727 977.159 382.727 977.159 383.607 959.142 c 4,10,11
 385.208 926.381 385.208 926.381 354.226 890.436 c 5,12,13
 330.091 877.797 330.091 877.797 309.614 888.318 c 5,0,1
119.829 867.42 m 4,14,15
 68.8457 865.003 68.8457 865.003 65.5254 932.98 c 4,16,17
 64.3662 956.731 64.3662 956.731 73.0859 974.383 c 4,18,19
 83.2773 994.568 83.2773 994.568 101.6 995.438 c 4,20,21
 129.481 996.759 129.481 996.759 150 969 c 4,22,23
 167.093 946.005 167.093 946.005 168.294 921.435 c 4,24,25
 169.013 906.691 169.013 906.691 151.591 887.396 c 132,-1,26
 134.169 868.099 134.169 868.099 119.829 867.42 c 4,14,15
304.156 811.566 m 0,27,28
 340.886 811.762 340.886 811.762 351.125 804.578 c 0,29,30
 355.403 801.87 355.403 801.87 358.219 797.729 c 0,31,32
 369.002 781.871 369.002 781.871 361.562 750.031 c 0,33,34
 355.28 723.689 355.28 723.689 346 714.084 c 0,35,36
 326.005 693.392 326.005 693.392 218.781 686.028 c 1,37,38
 246.445 567.878 246.445 567.878 251 445.45 c 0,39,40
 257.528 270.248 257.528 270.248 253.406 134.367 c 1,41,42
 352.212 147.902 352.212 147.902 377.875 131.203 c 0,43,44
 382.596 128.416 382.596 128.416 385.844 124.146 c 0,45,46
 398.117 108.01 398.117 108.01 390.781 76.3428 c 0,47,48
 384.561 50.0967 384.561 50.0967 374.625 40.7432 c 0,49,50
 341.799 9.84277 341.799 9.84277 196.688 5.14355 c 128,-1,51
 51.584 0.438477 51.584 0.438477 25.1875 26.5586 c 1,52,53
 24.1904 60.5859 24.1904 60.5859 44.0312 79.2637 c 128,-1,54
 63.7217 97.7988 63.7217 97.7988 152.875 116.672 c 1,55,56
 148.178 235.747 148.178 235.747 135 441 c 0,57,58
 122.974 624.487 122.974 624.487 121.281 679.771 c 1,59,60
 39.0801 674.836 39.0801 674.836 25.875 689.227 c 1,61,62
 25.7617 734.646 25.7617 734.646 44.5938 754.134 c 0,63,64
 56.3408 766.29 56.3408 766.29 75.4727 772.892 c 128,-1,65
 94.6055 779.496 94.6055 779.496 157.969 793.245 c 0,66,67
 240.845 811.23 240.845 811.23 304.156 811.566 c 0,27,28
EndSplineSet
EndChar

StartChar: Eth
Encoding: 208 208 120
Width: 611
Flags: HW
LayerCount: 2
Fore
SplineSet
495 451 m 0,0,1
 491 574 491 574 401 644 c 0,2,3
 315 711 315 711 185 711 c 0,4,5
 153 711 153 711 142 688 c 0,6,7
 135 673 135 673 135 636 c 0,8,9
 135 615.445 135 615.445 154.848 458.462 c 1,10,11
 222.686 472.721 222.686 472.721 242.152 475.905 c 0,12,13
 249.804 477.157 249.804 477.157 287.705 492.144 c 128,-1,14
 325.606 507.13 325.606 507.13 333.257 508.382 c 0,15,16
 369.599 514.327 369.599 514.327 377.265 501.916 c 0,17,18
 378.955 499.301 378.955 499.301 376.828 467.681 c 2,19,-1
 376.762 466.693 l 1,20,-1
 376.694 465.706 l 1,21,-1
 376.627 464.719 l 1,22,-1
 376.56 463.731 l 2,23,24
 376.549 463.433 376.549 463.433 376.529 463.132 c 0,25,26
 374.408 431.948 374.408 431.948 274.498 395.299 c 0,27,28
 223.917 376.164 223.917 376.164 167.216 362.386 c 1,29,30
 190.121 188.211 190.121 188.211 207 92 c 1,31,32
 298 114 298 114 395 227 c 0,33,34
 498 347 498 347 495 451 c 0,0,1
595 481 m 0,35,36
 604 385 604 385 509 243 c 0,37,38
 421 111 421 111 298 15 c 0,39,40
 168 -87 168 -87 85 -79 c 0,41,42
 71 -78 71 -78 55.5 -73 c 128,-1,43
 40 -68 40 -68 36 -68 c 1,44,-1
 36 -2 l 1,45,46
 37 0 37 0 83 29 c 1,47,48
 118 53 118 53 118 72 c 0,49,50
 118 78 118 78 115 84 c 1,51,-1
 79.4499 344.849 l 1,52,53
 -16.8001 329.483 -16.8001 329.483 -27.7754 344.867 c 1,54,-1
 -24.418 394.223 l 1,55,56
 -0.408203 427.435 -0.408203 427.435 20.6318 430.877 c 0,57,58
 31.2548 432.615 31.2548 432.615 66.4981 439.883 c 1,59,-1
 35 671 l 1,60,61
 20 724 20 724 20 753 c 0,62,63
 20 801 20 801 65 813 c 0,64,65
 91 819 91 819 205 821 c 0,66,67
 317 822 317 822 444 724 c 1,68,69
 582 616 582 616 595 481 c 0,35,36
EndSplineSet
EndChar

StartChar: Ograve
Encoding: 210 210 121
Width: 671
Flags: HW
LayerCount: 2
Fore
SplineSet
235.896 976.65 m 4,0,1
 254.257 942.588 254.257 942.588 367.328 907.051 c 132,-1,2
 480.401 871.514 480.401 871.514 507.523 888.584 c 5,3,4
 516.546 918.058 516.546 918.058 505.443 938.655 c 4,5,6
 491.354 964.8 491.354 964.8 388 1016 c 132,-1,7
 284.646 1067.2 284.646 1067.2 255.249 1056.28 c 4,8,9
 250.824 1054.86 250.824 1054.86 247.257 1051.85 c 4,10,11
 233.69 1040.44 233.69 1040.44 231.802 1011.21 c 4,12,13
 230.346 986.95 230.346 986.95 235.896 976.65 c 4,0,1
652 502 m 0,14,15
 652 424 652 424 586 303 c 128,-1,16
 520 182 520 182 429 98 c 0,17,18
 324 2 324 2 232 2 c 0,19,20
 22 2 22 2 22 307 c 0,21,22
 22 472 22 472 107 612 c 0,23,24
 211 782 211 782 382 782 c 0,25,26
 501 782 501 782 576.5 705 c 128,-1,27
 652 628 652 628 652 502 c 0,14,15
552 497 m 0,28,29
 552 544 552 544 526 599 c 0,30,31
 491 672 491 672 432 672 c 0,32,33
 420 672 420 672 407.5 662 c 128,-1,34
 395 652 395 652 382 652 c 0,35,36
 366 652 366 652 360 658.5 c 128,-1,37
 354 665 354 665 348 672 c 1,38,39
 237 672 237 672 174 543 c 0,40,41
 122 435 122 435 122 292 c 0,42,43
 122 216 122 216 130 184 c 0,44,45
 153 91 153 91 232 92 c 1,46,47
 340 95 340 95 448 237 c 0,48,49
 552 374 552 374 552 497 c 0,28,29
EndSplineSet
EndChar

StartChar: Ocircumflex
Encoding: 212 212 122
Width: 671
Flags: HW
LayerCount: 2
Fore
SplineSet
395.869 1076.7 m 4,0,1
 399.327 1076.77 399.327 1076.77 407.002 1076.36 c 4,2,3
 431.171 1075.86 431.171 1075.86 442.164 1059.37 c 5,4,-1
 482.379 992.396 l 6,5,6
 520.999 928.081 520.999 928.081 535.464 901.726 c 5,7,8
 542.258 893.181 542.258 893.181 542.057 881.56 c 132,-1,9
 541.854 869.937 541.854 869.937 534.609 861.751 c 4,10,11
 521.509 847.098 521.509 847.098 484.14 846.788 c 5,12,13
 479.287 849.06 479.287 849.06 466.775 860.186 c 4,14,15
 451.214 875.361 451.214 875.361 438.691 894.296 c 132,-1,16
 426.169 913.231 426.169 913.231 411 942 c 132,-1,17
 395.83 970.769 395.83 970.769 389.839 980.895 c 5,18,19
 383.193 969.016 383.193 969.016 377.297 955.785 c 132,-1,20
 371.4 942.556 371.4 942.556 363.979 923.883 c 6,21,-1
 353.44 897.856 l 5,22,-1
 348.012 885.557 l 6,23,24
 343.942 876.21 343.942 876.21 341.726 871.832 c 132,-1,25
 339.509 867.454 339.509 867.454 335.462 860.381 c 132,-1,26
 331.415 853.309 331.415 853.309 326.855 848.27 c 132,-1,27
 322.296 843.23 322.296 843.23 316.787 839.197 c 4,28,29
 301.749 827.35 301.749 827.35 280.199 834.343 c 5,30,31
 260.455 836.95 260.455 836.95 253.562 851.431 c 4,32,33
 246.376 864.63 246.376 864.63 257.592 887.242 c 4,34,35
 307.86 994.855 307.86 994.855 343.683 1039.34 c 5,36,37
 372.694 1073.87 372.694 1073.87 395.869 1076.7 c 4,0,1
652 502 m 0,38,39
 652 424 652 424 586 303 c 128,-1,40
 520 182 520 182 429 98 c 0,41,42
 324 2 324 2 232 2 c 0,43,44
 22 2 22 2 22 307 c 0,45,46
 22 472 22 472 107 612 c 0,47,48
 211 782 211 782 382 782 c 0,49,50
 501 782 501 782 576.5 705 c 128,-1,51
 652 628 652 628 652 502 c 0,38,39
552 497 m 0,52,53
 552 544 552 544 526 599 c 0,54,55
 491 672 491 672 432 672 c 0,56,57
 420 672 420 672 407.5 662 c 128,-1,58
 395 652 395 652 382 652 c 0,59,60
 366 652 366 652 360 658.5 c 128,-1,61
 354 665 354 665 348 672 c 1,62,63
 237 672 237 672 174 543 c 0,64,65
 122 435 122 435 122 292 c 0,66,67
 122 216 122 216 130 184 c 0,68,69
 153 91 153 91 232 92 c 1,70,71
 340 95 340 95 448 237 c 0,72,73
 552 374 552 374 552 497 c 0,52,53
EndSplineSet
EndChar

StartChar: Otilde
Encoding: 213 213 123
Width: 671
Flags: HW
LayerCount: 2
Fore
SplineSet
443.986 1021.81 m 4,0,1
 470.873 1022.68 470.873 1022.68 494.982 1008.71 c 4,2,3
 518.236 995.155 518.236 995.155 514.562 979.495 c 5,4,5
 499.968 943.005 499.968 943.005 474 918 c 4,6,7
 453.955 899.282 453.955 899.282 426.303 888.818 c 132,-1,8
 398.649 878.354 398.649 878.354 370.031 880.222 c 5,9,10
 350.981 882.412 350.981 882.412 319.401 895.69 c 132,-1,11
 287.822 908.967 287.822 908.967 273.092 912.105 c 5,12,13
 271.556 910.292 271.556 910.292 261.861 899.832 c 132,-1,14
 252.167 889.37 252.167 889.37 248.08 883.244 c 4,15,16
 247.055 880.779 247.055 880.779 243.616 877.156 c 132,-1,17
 240.178 873.533 240.178 873.533 239.182 872 c 4,18,19
 236.932 869.094 236.932 869.094 234.329 861.634 c 132,-1,20
 231.726 854.174 231.726 854.174 228.519 850.969 c 4,21,22
 210.934 838.333 210.934 838.333 179.82 843.976 c 4,23,24
 152.556 849.022 152.556 849.022 145.929 862.604 c 5,25,26
 143.203 872.486 143.203 872.486 143.507 880.506 c 4,27,28
 145.305 928.004 145.305 928.004 199.348 968.196 c 4,29,30
 232.961 993.581 232.961 993.581 273.803 993.926 c 4,31,32
 292.122 994.027 292.122 994.027 322.754 983.024 c 132,-1,33
 353.384 972.021 353.384 972.021 360.448 970.38 c 4,34,35
 384.559 964.048 384.559 964.048 394.41 971.089 c 5,36,37
 400.52 977.125 400.52 977.125 407.648 990.711 c 132,-1,38
 414.777 1004.3 414.777 1004.3 416.157 1006.43 c 4,39,40
 418.577 1013.44 418.577 1013.44 426.606 1017.53 c 132,-1,41
 434.637 1021.62 434.637 1021.62 443.986 1021.81 c 4,0,1
652 502 m 0,42,43
 652 424 652 424 586 303 c 128,-1,44
 520 182 520 182 429 98 c 0,45,46
 324 2 324 2 232 2 c 0,47,48
 22 2 22 2 22 307 c 0,49,50
 22 472 22 472 107 612 c 0,51,52
 211 782 211 782 382 782 c 0,53,54
 501 782 501 782 576.5 705 c 128,-1,55
 652 628 652 628 652 502 c 0,42,43
552 497 m 0,56,57
 552 544 552 544 526 599 c 0,58,59
 491 672 491 672 432 672 c 0,60,61
 420 672 420 672 407.5 662 c 128,-1,62
 395 652 395 652 382 652 c 0,63,64
 366 652 366 652 360 658.5 c 128,-1,65
 354 665 354 665 348 672 c 1,66,67
 237 672 237 672 174 543 c 0,68,69
 122 435 122 435 122 292 c 0,70,71
 122 216 122 216 130 184 c 0,72,73
 153 91 153 91 232 92 c 1,74,75
 340 95 340 95 448 237 c 0,76,77
 552 374 552 374 552 497 c 0,56,57
EndSplineSet
EndChar

StartChar: Odieresis
Encoding: 214 214 124
Width: 671
Flags: HW
LayerCount: 2
Fore
SplineSet
499.007 856.177 m 5,0,1
 488.888 867.191 488.888 867.191 479.843 888.927 c 4,2,3
 472.55 907.461 472.55 907.461 472.188 914.833 c 4,4,5
 469.67 966.431 469.67 966.431 508.703 968.28 c 4,6,7
 524.636 969.035 524.636 969.035 546.745 957.771 c 4,8,9
 572.119 945.018 572.119 945.018 573 927 c 4,10,11
 574.601 894.239 574.601 894.239 543.618 858.294 c 5,12,13
 519.483 845.655 519.483 845.655 499.007 856.177 c 5,0,1
309.222 835.278 m 4,14,15
 258.238 832.861 258.238 832.861 254.918 900.839 c 4,16,17
 253.759 924.59 253.759 924.59 262.479 942.241 c 4,18,19
 272.67 962.427 272.67 962.427 290.992 963.296 c 4,20,21
 318.874 964.617 318.874 964.617 339.393 936.858 c 4,22,23
 356.485 913.863 356.485 913.863 357.687 889.293 c 4,24,25
 358.405 874.55 358.405 874.55 340.983 855.254 c 132,-1,26
 323.562 835.957 323.562 835.957 309.222 835.278 c 4,14,15
652 502 m 0,27,28
 652 424 652 424 586 303 c 128,-1,29
 520 182 520 182 429 98 c 0,30,31
 324 2 324 2 232 2 c 0,32,33
 22 2 22 2 22 307 c 0,34,35
 22 472 22 472 107 612 c 0,36,37
 211 782 211 782 382 782 c 0,38,39
 501 782 501 782 576.5 705 c 128,-1,40
 652 628 652 628 652 502 c 0,27,28
552 497 m 0,41,42
 552 544 552 544 526 599 c 0,43,44
 491 672 491 672 432 672 c 0,45,46
 420 672 420 672 407.5 662 c 128,-1,47
 395 652 395 652 382 652 c 0,48,49
 366 652 366 652 360 658.5 c 128,-1,50
 354 665 354 665 348 672 c 1,51,52
 237 672 237 672 174 543 c 0,53,54
 122 435 122 435 122 292 c 0,55,56
 122 216 122 216 130 184 c 0,57,58
 153 91 153 91 232 92 c 1,59,60
 340 95 340 95 448 237 c 0,61,62
 552 374 552 374 552 497 c 0,41,42
EndSplineSet
EndChar

StartChar: Oslash
Encoding: 216 216 125
Width: 671
Flags: HW
LayerCount: 2
Fore
SplineSet
552 497 m 0,0,1
 552 544 552 544 526 599 c 0,2,3
 515.826 620.22 515.826 620.22 503.624 635.272 c 1,4,-1
 423 477 l 1,5,-1
 221.754 92.2821 l 1,6,7
 226.753 91.9336 226.753 91.9336 232 92 c 0,8,9
 340 95 340 95 448 237 c 0,10,11
 552 374 552 374 552 497 c 0,0,1
652 502 m 0,12,13
 652 424 652 424 586 303 c 128,-1,14
 520 182 520 182 429 98 c 0,15,16
 324 2 324 2 232 2 c 0,17,18
 202.775 2 202.775 2 177.618 7.90694 c 1,19,-1
 163.419 -19.2363 l 1,20,21
 157.036 -22.8945 157.036 -22.8945 145.83 -21.9521 c 0,22,23
 124.281 -20.1408 124.281 -20.1408 104.906 -2.7832 c 128,-1,24
 85.5312 14.5752 85.5312 14.5752 87.3691 36.4434 c 0,25,26
 88.1693 45.9644 88.1693 45.9644 93.2938 55.1222 c 1,27,28
 22 129.288 22 129.288 22 307 c 0,29,30
 22 472 22 472 107 612 c 0,31,32
 211 782 211 782 382 782 c 0,33,34
 422.798 782 422.798 782 458.483 772.95 c 1,35,36
 478.639 797.416 478.639 797.416 491.501 796.335 c 0,37,38
 498.396 795.756 498.396 795.756 503.817 787.96 c 1,39,40
 533.545 785.462 533.545 785.462 537.501 737.697 c 1,41,42
 558.269 723.593 558.269 723.593 576.5 705 c 0,43,44
 652 628 652 628 652 502 c 0,12,13
387.067 652.383 m 1,45,46
 384.543 652 384.543 652 382 652 c 0,47,48
 366 652 366 652 360 658.5 c 2,49,-1
 348 672 l 1,50,51
 237 672 237 672 174 543 c 0,52,53
 122 435 122 435 122 292 c 0,54,55
 122 216 122 216 130 184 c 0,56,57
 135.19 163.128 135.19 163.128 143.181 146.989 c 1,58,59
 195.322 246.945 195.322 246.945 261.944 388.812 c 2,60,-1
 387.067 652.383 l 1,45,46
EndSplineSet
EndChar

StartChar: Ugrave
Encoding: 217 217 126
Width: 519
Flags: HW
LayerCount: 2
Fore
SplineSet
54.5684 891.6 m 4,0,1
 72.9287 857.537 72.9287 857.537 186 822 c 132,-1,2
 299.073 786.463 299.073 786.463 326.195 803.533 c 5,3,4
 335.218 833.007 335.218 833.007 324.115 853.604 c 4,5,6
 310.025 879.749 310.025 879.749 206.672 930.949 c 132,-1,7
 103.318 982.149 103.318 982.149 73.9209 971.229 c 4,8,9
 69.4961 969.81 69.4961 969.81 65.9287 966.799 c 4,10,11
 52.3623 955.389 52.3623 955.389 50.4736 926.159 c 4,12,13
 49.0176 901.899 49.0176 901.899 54.5684 891.6 c 4,0,1
502 560 m 0,14,15
 502 484 502 484 469 374 c 0,16,17
 429 243 429 243 365 161 c 0,18,19
 286 60 286 60 187 60 c 0,20,21
 97 60 97 60 53 156 c 0,22,23
 21 226 21 226 21 318 c 0,24,25
 21 333 21 333 22 345 c 0,26,27
 28 425 28 425 34 506 c 1,28,29
 43 608 43 608 61 658 c 0,30,31
 84 724 84 724 127 720 c 0,32,33
 182 714 182 714 182 665 c 0,34,35
 182 652 182 652 152 514.5 c 128,-1,36
 122 377 122 377 122 365 c 0,37,38
 124 253 124 253 127 236 c 0,39,40
 141 165 141 165 200 164 c 0,41,42
 300 161 300 161 358 334 c 0,43,44
 398 454 398 454 398 540 c 0,45,46
 398 551 398 551 385 637 c 128,-1,47
 372 723 372 723 372 735 c 0,48,49
 372 750 372 750 388.5 765 c 128,-1,50
 405 780 405 780 422 780 c 0,51,52
 465 780 465 780 487 677 c 0,53,54
 502 611 502 611 502 560 c 0,14,15
EndSplineSet
EndChar

StartChar: Ucircumflex
Encoding: 219 219 127
Width: 519
Flags: HW
LayerCount: 2
Fore
SplineSet
309.277 1062.46 m 4,0,1
 312.735 1062.53 312.735 1062.53 320.41 1062.12 c 4,2,3
 344.579 1061.62 344.579 1061.62 355.572 1045.13 c 5,4,-1
 395.787 978.154 l 6,5,6
 434.407 913.839 434.407 913.839 448.872 887.483 c 5,7,8
 455.666 878.938 455.666 878.938 455.465 867.317 c 132,-1,9
 455.263 855.694 455.263 855.694 448.018 847.509 c 4,10,11
 434.917 832.855 434.917 832.855 397.548 832.546 c 5,12,13
 392.695 834.817 392.695 834.817 380.184 845.943 c 4,14,15
 364.622 861.119 364.622 861.119 352.1 880.054 c 132,-1,16
 339.577 898.989 339.577 898.989 324.408 927.758 c 132,-1,17
 309.238 956.526 309.238 956.526 303.247 966.652 c 5,18,19
 296.602 954.773 296.602 954.773 290.705 941.543 c 132,-1,20
 284.809 928.313 284.809 928.313 277.387 909.641 c 6,21,-1
 266.849 883.614 l 5,22,-1
 261.42 871.314 l 6,23,24
 257.351 861.968 257.351 861.968 255.134 857.59 c 132,-1,25
 252.917 853.212 252.917 853.212 248.87 846.139 c 132,-1,26
 244.823 839.066 244.823 839.066 240.264 834.027 c 132,-1,27
 235.704 828.988 235.704 828.988 230.195 824.955 c 4,28,29
 215.157 813.107 215.157 813.107 193.607 820.101 c 5,30,31
 173.863 822.708 173.863 822.708 166.971 837.188 c 4,32,33
 159.784 850.388 159.784 850.388 171 873 c 4,34,35
 221.269 980.613 221.269 980.613 257.091 1025.1 c 5,36,37
 286.103 1059.63 286.103 1059.63 309.277 1062.46 c 4,0,1
502 560 m 0,38,39
 502 484 502 484 469 374 c 0,40,41
 429 243 429 243 365 161 c 0,42,43
 286 60 286 60 187 60 c 0,44,45
 97 60 97 60 53 156 c 0,46,47
 21 226 21 226 21 318 c 0,48,49
 21 333 21 333 22 345 c 0,50,51
 28 425 28 425 34 506 c 1,52,53
 43 608 43 608 61 658 c 0,54,55
 84 724 84 724 127 720 c 0,56,57
 182 714 182 714 182 665 c 0,58,59
 182 652 182 652 152 514.5 c 128,-1,60
 122 377 122 377 122 365 c 0,61,62
 124 253 124 253 127 236 c 0,63,64
 141 165 141 165 200 164 c 0,65,66
 300 161 300 161 358 334 c 0,67,68
 398 454 398 454 398 540 c 0,69,70
 398 551 398 551 385 637 c 128,-1,71
 372 723 372 723 372 735 c 0,72,73
 372 750 372 750 388.5 765 c 128,-1,74
 405 780 405 780 422 780 c 0,75,76
 465 780 465 780 487 677 c 0,77,78
 502 611 502 611 502 560 c 0,38,39
EndSplineSet
EndChar

StartChar: Yacute
Encoding: 221 221 128
Width: 623
Flags: HW
LayerCount: 2
Fore
SplineSet
474.875 857.621 m 4,0,1
 467.706 819.596 467.706 819.596 370.732 751.447 c 132,-1,2
 273.758 683.299 273.758 683.299 242.736 691.343 c 5,3,4
 225.202 716.693 225.202 716.693 229.537 739.687 c 4,5,6
 235.035 768.873 235.035 768.873 318 849 c 132,-1,7
 400.965 929.127 400.965 929.127 432.289 927.635 c 4,8,9
 436.937 927.623 436.937 927.623 441.248 925.836 c 4,10,11
 457.636 919.077 457.636 919.077 468.298 891.796 c 4,12,13
 477.041 869.119 477.041 869.119 474.875 857.621 c 4,0,1
618 712 m 0,14,15
 618 651 618 651 521 454 c 1,16,17
 432 276 432 276 324 105 c 0,18,19
 212 -74 212 -74 173 -93 c 1,20,21
 137 -85 137 -85 132.5 -78.5 c 128,-1,22
 128 -72 128 -72 128 -23 c 0,23,24
 128 5 128 5 172 77 c 128,-1,25
 216 149 216 149 216 162 c 0,26,27
 216 165 216 165 215 167 c 0,28,29
 167 238 167 238 100 412 c 0,30,31
 20 621 20 621 20 733 c 0,32,33
 20 749 20 749 22 762 c 1,34,35
 55 797 55 797 77 797 c 1,36,37
 112 774 112 774 141 665 c 128,-1,38
 170 556 170 556 199 446 c 1,39,40
 239 308 239 308 294 233 c 1,41,42
 340 298 340 298 430 523 c 0,43,44
 511 723 511 723 551 756 c 1,45,-1
 605 756 l 1,46,47
 618 744 618 744 618 712 c 0,14,15
EndSplineSet
EndChar

StartChar: agrave
Encoding: 224 224 129
Width: 565
Flags: HW
LayerCount: 2
Fore
SplineSet
117.896 998.65 m 4,0,1
 136.257 964.588 136.257 964.588 249.328 929.051 c 132,-1,2
 362.401 893.514 362.401 893.514 389.523 910.584 c 5,3,4
 398.546 940.058 398.546 940.058 387.443 960.655 c 4,5,6
 373.354 986.8 373.354 986.8 270 1038 c 132,-1,7
 166.646 1089.2 166.646 1089.2 137.249 1078.28 c 4,8,9
 132.824 1076.86 132.824 1076.86 129.257 1073.85 c 4,10,11
 115.69 1062.44 115.69 1062.44 113.802 1033.21 c 4,12,13
 112.346 1008.95 112.346 1008.95 117.896 998.65 c 4,0,1
563 -43 m 0,14,15
 563 -58 563 -58 541 -102 c 1,16,-1
 475 -102 l 1,17,18
 442 -56 442 -56 429 54 c 128,-1,19
 416 164 416 164 386 207 c 1,20,21
 241 163 241 163 120 104 c 1,22,23
 98 92 98 92 90 44 c 0,24,25
 81 -9 81 -9 76 -14 c 0,26,27
 68 -23 68 -23 38 -23 c 0,28,29
 7 -23 7 -23 -12 -1 c 0,30,31
 -27 17 -27 17 -27 37 c 0,32,33
 -27 79 -27 79 42 254 c 1,34,35
 81 349 81 349 119 443 c 1,36,37
 207 696 207 696 216 718 c 0,38,39
 272 851 272 851 320 851 c 0,40,41
 330 851 330 851 340 846 c 1,42,43
 376 783 376 783 472 377 c 0,44,45
 563 -7 563 -7 563 -43 c 0,14,15
372 299 m 1,46,47
 365 389 365 389 345 489 c 0,48,49
 323 603 323 603 298 657 c 1,50,51
 293 646 293 646 202 438 c 0,52,53
 143 305 143 305 144 291 c 1,54,-1
 144 238 l 1,55,56
 258 282 258 282 372 299 c 1,46,47
EndSplineSet
EndChar

StartChar: acircumflex
Encoding: 226 226 130
Width: 565
Flags: HW
LayerCount: 2
Fore
SplineSet
315.277 1104.46 m 4,0,1
 318.735 1104.53 318.735 1104.53 326.41 1104.12 c 4,2,3
 350.579 1103.62 350.579 1103.62 361.572 1087.13 c 5,4,-1
 401.787 1020.15 l 6,5,6
 440.407 955.839 440.407 955.839 454.872 929.483 c 5,7,8
 461.666 920.938 461.666 920.938 461.465 909.317 c 132,-1,9
 461.263 897.694 461.263 897.694 454.018 889.509 c 4,10,11
 440.917 874.855 440.917 874.855 403.548 874.546 c 5,12,13
 398.695 876.817 398.695 876.817 386.184 887.943 c 4,14,15
 370.622 903.119 370.622 903.119 358.1 922.054 c 132,-1,16
 345.577 940.989 345.577 940.989 330.408 969.758 c 132,-1,17
 315.238 998.526 315.238 998.526 309.247 1008.65 c 5,18,19
 302.602 996.773 302.602 996.773 296.705 983.543 c 132,-1,20
 290.809 970.313 290.809 970.313 283.387 951.641 c 6,21,-1
 272.849 925.614 l 5,22,-1
 267.42 913.314 l 6,23,24
 263.351 903.968 263.351 903.968 261.134 899.59 c 132,-1,25
 258.917 895.212 258.917 895.212 254.87 888.139 c 132,-1,26
 250.823 881.066 250.823 881.066 246.264 876.027 c 132,-1,27
 241.704 870.988 241.704 870.988 236.195 866.955 c 4,28,29
 221.157 855.107 221.157 855.107 199.607 862.101 c 5,30,31
 179.863 864.708 179.863 864.708 172.971 879.188 c 4,32,33
 165.784 892.388 165.784 892.388 177 915 c 4,34,35
 227.269 1022.61 227.269 1022.61 263.091 1067.1 c 5,36,37
 292.103 1101.63 292.103 1101.63 315.277 1104.46 c 4,0,1
563 -43 m 0,38,39
 563 -58 563 -58 541 -102 c 1,40,-1
 475 -102 l 1,41,42
 442 -56 442 -56 429 54 c 128,-1,43
 416 164 416 164 386 207 c 1,44,45
 241 163 241 163 120 104 c 1,46,47
 98 92 98 92 90 44 c 0,48,49
 81 -9 81 -9 76 -14 c 0,50,51
 68 -23 68 -23 38 -23 c 0,52,53
 7 -23 7 -23 -12 -1 c 0,54,55
 -27 17 -27 17 -27 37 c 0,56,57
 -27 79 -27 79 42 254 c 1,58,59
 81 349 81 349 119 443 c 1,60,61
 207 696 207 696 216 718 c 0,62,63
 272 851 272 851 320 851 c 0,64,65
 330 851 330 851 340 846 c 1,66,67
 376 783 376 783 472 377 c 0,68,69
 563 -7 563 -7 563 -43 c 0,38,39
372 299 m 1,70,71
 365 389 365 389 345 489 c 0,72,73
 323 603 323 603 298 657 c 1,74,75
 293 646 293 646 202 438 c 0,76,77
 143 305 143 305 144 291 c 1,78,-1
 144 238 l 1,79,80
 258 282 258 282 372 299 c 1,70,71
EndSplineSet
EndChar

StartChar: atilde
Encoding: 227 227 131
Width: 565
Flags: HW
LayerCount: 2
Fore
SplineSet
452.986 1051.81 m 4,0,1
 479.873 1052.68 479.873 1052.68 503.982 1038.71 c 4,2,3
 527.236 1025.16 527.236 1025.16 523.562 1009.5 c 5,4,5
 508.968 973.005 508.968 973.005 483 948 c 4,6,7
 462.955 929.282 462.955 929.282 435.303 918.818 c 132,-1,8
 407.649 908.354 407.649 908.354 379.031 910.222 c 5,9,10
 359.981 912.412 359.981 912.412 328.401 925.69 c 132,-1,11
 296.822 938.967 296.822 938.967 282.092 942.105 c 5,12,13
 280.556 940.292 280.556 940.292 270.861 929.832 c 132,-1,14
 261.167 919.37 261.167 919.37 257.08 913.244 c 4,15,16
 256.055 910.779 256.055 910.779 252.616 907.156 c 132,-1,17
 249.178 903.533 249.178 903.533 248.182 902 c 4,18,19
 245.932 899.094 245.932 899.094 243.329 891.634 c 132,-1,20
 240.726 884.174 240.726 884.174 237.519 880.969 c 4,21,22
 219.934 868.333 219.934 868.333 188.82 873.976 c 4,23,24
 161.556 879.022 161.556 879.022 154.929 892.604 c 5,25,26
 152.203 902.486 152.203 902.486 152.507 910.506 c 4,27,28
 154.305 958.004 154.305 958.004 208.348 998.196 c 4,29,30
 241.961 1023.58 241.961 1023.58 282.803 1023.93 c 4,31,32
 301.122 1024.03 301.122 1024.03 331.754 1013.02 c 132,-1,33
 362.384 1002.02 362.384 1002.02 369.448 1000.38 c 4,34,35
 393.559 994.048 393.559 994.048 403.41 1001.09 c 5,36,37
 409.52 1007.12 409.52 1007.12 416.648 1020.71 c 132,-1,38
 423.777 1034.3 423.777 1034.3 425.157 1036.43 c 4,39,40
 427.577 1043.44 427.577 1043.44 435.606 1047.53 c 132,-1,41
 443.637 1051.62 443.637 1051.62 452.986 1051.81 c 4,0,1
563 -43 m 0,42,43
 563 -58 563 -58 541 -102 c 1,44,-1
 475 -102 l 1,45,46
 442 -56 442 -56 429 54 c 128,-1,47
 416 164 416 164 386 207 c 1,48,49
 241 163 241 163 120 104 c 1,50,51
 98 92 98 92 90 44 c 0,52,53
 81 -9 81 -9 76 -14 c 0,54,55
 68 -23 68 -23 38 -23 c 0,56,57
 7 -23 7 -23 -12 -1 c 0,58,59
 -27 17 -27 17 -27 37 c 0,60,61
 -27 79 -27 79 42 254 c 1,62,63
 81 349 81 349 119 443 c 1,64,65
 207 696 207 696 216 718 c 0,66,67
 272 851 272 851 320 851 c 0,68,69
 330 851 330 851 340 846 c 1,70,71
 376 783 376 783 472 377 c 0,72,73
 563 -7 563 -7 563 -43 c 0,42,43
372 299 m 1,74,75
 365 389 365 389 345 489 c 0,76,77
 323 603 323 603 298 657 c 1,78,79
 293 646 293 646 202 438 c 0,80,81
 143 305 143 305 144 291 c 1,82,-1
 144 238 l 1,83,84
 258 282 258 282 372 299 c 1,74,75
EndSplineSet
EndChar

StartChar: adieresis
Encoding: 228 228 132
Width: 565
Flags: HW
LayerCount: 2
Fore
SplineSet
385.918 882.599 m 5,0,1
 374.818 892.624 374.818 892.624 363.79 913.423 c 4,2,3
 354.804 931.198 354.804 931.198 353.758 938.505 c 4,4,5
 346.449 989.645 346.449 989.645 385.141 995.118 c 4,6,7
 400.935 997.353 400.935 997.353 423.996 988.193 c 4,8,9
 450.446 977.857 450.446 977.857 453 960 c 4,10,11
 457.643 927.53 457.643 927.53 430.139 888.857 c 5,12,13
 407.285 874.028 407.285 874.028 385.918 882.599 c 5,0,1
237.169 878.777 m 0,14,15
 186.632 871.627 186.632 871.627 177 939 c 0,16,17
 173.636 962.54 173.636 962.54 180.676 980.927 c 0,18,19
 188.944 1001.97 188.944 1001.97 207.106 1004.54 c 0,20,21
 234.744 1008.45 234.744 1008.45 257.757 982.724 c 0,22,23
 276.915 961.419 276.915 961.419 280.397 937.067 c 0,24,25
 282.484 922.455 282.484 922.455 266.934 901.622 c 128,-1,26
 251.384 880.787 251.384 880.787 237.169 878.777 c 0,14,15
563 -43 m 0,27,28
 563 -58 563 -58 541 -102 c 1,29,-1
 475 -102 l 1,30,31
 442 -56 442 -56 429 54 c 128,-1,32
 416 164 416 164 386 207 c 1,33,34
 241 163 241 163 120 104 c 1,35,36
 98 92 98 92 90 44 c 0,37,38
 81 -9 81 -9 76 -14 c 0,39,40
 68 -23 68 -23 38 -23 c 0,41,42
 7 -23 7 -23 -12 -1 c 0,43,44
 -27 17 -27 17 -27 37 c 0,45,46
 -27 79 -27 79 42 254 c 1,47,48
 81 349 81 349 119 443 c 1,49,50
 207 696 207 696 216 718 c 0,51,52
 272 851 272 851 320 851 c 0,53,54
 330 851 330 851 340 846 c 1,55,56
 376 783 376 783 472 377 c 0,57,58
 563 -7 563 -7 563 -43 c 0,27,28
372 299 m 1,59,60
 365 389 365 389 345 489 c 0,61,62
 323 603 323 603 298 657 c 1,63,64
 293 646 293 646 202 438 c 0,65,66
 143 305 143 305 144 291 c 1,67,-1
 144 238 l 1,68,69
 258 282 258 282 372 299 c 1,59,60
EndSplineSet
EndChar

StartChar: aring
Encoding: 229 229 133
Width: 565
Flags: HW
LayerCount: 2
Fore
SplineSet
445.168 985.202 m 5,0,1
 451.264 947.198 451.264 947.198 396 888 c 132,-1,2
 340.735 828.803 340.735 828.803 296.792 828.803 c 4,3,4
 254.39 828.803 254.39 828.803 218.142 852.92 c 4,5,6
 176.916 879.23 176.916 879.23 170.352 920.157 c 4,7,8
 162.498 969.123 162.498 969.123 195.304 1038.55 c 4,9,10
 233.711 1121.14 233.711 1121.14 296.158 1121.14 c 4,11,12
 298.471 1121.14 298.471 1121.14 309.532 1121.87 c 132,-1,13
 320.593 1122.6 320.593 1122.6 329.074 1122.6 c 4,14,15
 401.542 1122.6 401.542 1122.6 430.631 1075.83 c 5,16,17
 443.467 1058.29 443.467 1058.29 447.102 1035.63 c 4,18,19
 450.97 1011.51 450.97 1011.51 445.168 985.202 c 5,0,1
364.893 1017.53 m 4,20,21
 351.798 1047.08 351.798 1047.08 340.116 1047.08 c 4,22,23
 337.042 1047.08 337.042 1047.08 330.746 1044 c 132,-1,24
 324.45 1040.93 324.45 1040.93 320.146 1040.93 c 4,25,26
 292.356 1040.93 292.356 1040.93 268.871 1010.14 c 4,27,28
 242.3 975.307 242.3 975.307 245.339 942.409 c 4,29,30
 250.014 911.622 250.014 911.622 280.756 911.622 c 4,31,32
 301.045 911.622 301.045 911.622 335.439 944.256 c 4,33,34
 371.825 979.969 371.825 979.969 367.432 1008.91 c 4,35,36
 366.777 1013.22 366.777 1013.22 364.893 1017.53 c 4,20,21
563 -43 m 0,37,38
 563 -58 563 -58 541 -102 c 1,39,-1
 475 -102 l 1,40,41
 442 -56 442 -56 429 54 c 128,-1,42
 416 164 416 164 386 207 c 1,43,44
 241 163 241 163 120 104 c 1,45,46
 98 92 98 92 90 44 c 0,47,48
 81 -9 81 -9 76 -14 c 0,49,50
 68 -23 68 -23 38 -23 c 0,51,52
 7 -23 7 -23 -12 -1 c 0,53,54
 -27 17 -27 17 -27 37 c 0,55,56
 -27 79 -27 79 42 254 c 1,57,58
 81 349 81 349 119 443 c 1,59,60
 208.183 695.552 208.183 695.552 216 718 c 0,61,62
 244.571 813 244.571 813 312 813 c 0,63,64
 322 813 322 813 332 808 c 1,65,66
 382.331 759.125 382.331 759.125 472 377 c 0,67,68
 563 -7 563 -7 563 -43 c 0,37,38
372 299 m 1,69,70
 365 389 365 389 345 489 c 0,71,72
 323 603 323 603 298 657 c 1,73,74
 293 646 293 646 202 438 c 0,75,76
 143 305 143 305 144 291 c 1,77,-1
 144 238 l 1,78,79
 258 282 258 282 372 299 c 1,69,70
EndSplineSet
EndChar

StartChar: ccedilla
Encoding: 231 231 134
Width: 553
Flags: HW
LayerCount: 2
Fore
SplineSet
340.521 37.1943 m 5,0,1
 344.16 88.2295 344.16 88.2295 386.93 88.2295 c 4,2,3
 419.69 88.2295 419.69 88.2295 447.9 49.3047 c 5,4,5
 473.691 10.3154 473.691 10.3154 475.2 -2.5957 c 4,6,7
 480.66 -49.3057 480.66 -49.3057 477.93 -80.4453 c 4,8,9
 470.783 -119.608 470.783 -119.608 439.71 -142.726 c 4,10,11
 397.85 -173.865 397.85 -173.865 352.35 -173.865 c 4,12,13
 298.486 -173.865 298.486 -173.865 280.46 -118.506 c 5,14,15
 283.043 -97.6357 283.043 -97.6357 342.34 -75.2559 c 4,16,17
 405.914 -51.2607 405.914 -51.2607 366 0 c 4,18,19
 338.229 35.667 338.229 35.667 340.521 37.1943 c 5,0,1
540 247 m 0,20,21
 519 175 519 175 431 123 c 0,22,23
 356 78 356 78 295 77 c 0,24,25
 139 75 139 75 62 263 c 0,26,27
 10 390 10 390 10 527 c 0,28,29
 10 638 10 638 73 750 c 0,30,31
 150 887 150 887 270 887 c 0,32,33
 353 887 353 887 402 805 c 0,34,35
 440 742 440 742 440 677 c 0,36,37
 440 652 440 652 419 601 c 0,38,39
 393 540 393 540 365 537 c 0,40,41
 281 530 281 530 281 589 c 0,42,43
 281 608 281 608 290 632 c 0,44,45
 293 640 293 640 313 658 c 0,46,47
 330 673 330 673 330 687 c 0,48,49
 330 719 330 719 303.5 748 c 128,-1,50
 277 777 277 777 250 777 c 0,51,52
 185 777 185 777 138 666 c 0,53,54
 99 573 99 573 100 497 c 0,55,56
 101 391 101 391 155 291 c 1,57,58
 215 177 215 177 300 177 c 0,59,60
 363 177 363 177 422 216.5 c 128,-1,61
 481 256 481 256 509 317 c 1,62,63
 523 325 523 325 532 325 c 0,64,65
 549 325 549 325 549 299 c 0,66,67
 549 280 549 280 540 247 c 0,20,21
EndSplineSet
EndChar

StartChar: egrave
Encoding: 232 232 135
Width: 620
Flags: HW
LayerCount: 2
Fore
SplineSet
105.568 981.6 m 4,0,1
 123.929 947.537 123.929 947.537 237 912 c 132,-1,2
 350.073 876.463 350.073 876.463 377.195 893.533 c 5,3,4
 386.218 923.007 386.218 923.007 375.115 943.604 c 4,5,6
 361.025 969.749 361.025 969.749 257.672 1020.95 c 132,-1,7
 154.318 1072.15 154.318 1072.15 124.921 1061.23 c 4,8,9
 120.496 1059.81 120.496 1059.81 116.929 1056.8 c 4,10,11
 103.362 1045.39 103.362 1045.39 101.474 1016.16 c 4,12,13
 100.018 991.899 100.018 991.899 105.568 981.6 c 4,0,1
653 813 m 1,14,15
 636 777 636 777 490 760 c 0,16,17
 315 739 315 739 244 699 c 0,18,19
 120 628 120 628 132 456 c 1,20,21
 138 450 138 450 144.5 444.5 c 128,-1,22
 151 439 151 439 168 439 c 0,23,24
 170 439 170 439 323 489 c 128,-1,25
 476 539 476 539 530 539 c 1,26,27
 546 527 546 527 543 504 c 0,28,29
 535 446 535 446 419 412 c 1,30,31
 316 386 316 386 212 360 c 1,32,33
 105 323 105 323 113 254 c 0,34,35
 126 129 126 129 203 129 c 0,36,37
 249 129 249 129 334 150 c 0,38,39
 431 174 431 174 446 199 c 1,40,-1
 516 185 l 1,41,42
 518 179 518 179 518 173 c 0,43,44
 518 118 518 118 387 70 c 0,45,46
 277 29 277 29 208 29 c 0,47,48
 116 29 116 29 60 98 c 1,49,50
 12 159 12 159 12 239 c 0,51,52
 12 261 12 261 16 280 c 0,53,54
 24 316 24 316 34.5 462 c 128,-1,55
 45 608 45 608 58 673 c 0,56,57
 80 776 80 776 123 779 c 0,58,59
 135 780 135 780 140 774.5 c 128,-1,60
 145 769 145 769 158 769 c 0,61,62
 173 769 173 769 299 814 c 128,-1,63
 425 859 425 859 488 859 c 0,64,65
 498 859 498 859 523.5 862.5 c 128,-1,66
 549 866 549 866 563 866 c 0,67,68
 622 866 622 866 653 813 c 1,14,15
EndSplineSet
EndChar

StartChar: ecircumflex
Encoding: 234 234 136
Width: 620
Flags: HW
LayerCount: 2
Fore
SplineSet
293.613 1131.37 m 4,0,1
 297.028 1131.92 297.028 1131.92 304.686 1132.58 c 4,2,3
 328.688 1135.45 328.688 1135.45 341.872 1120.65 c 5,4,-1
 391.028 1059.94 l 6,5,6
 438.234 1001.63 438.234 1001.63 456.231 977.552 c 5,7,8
 464.15 970.037 464.15 970.037 465.57 958.502 c 132,-1,9
 466.99 946.964 466.99 946.964 460.957 937.849 c 4,10,11
 450.026 921.513 450.026 921.513 413.064 915.998 c 5,12,13
 407.943 917.57 407.943 917.57 394.003 926.845 c 4,14,15
 376.479 939.703 376.479 939.703 361.439 956.708 c 132,-1,16
 346.399 973.714 346.399 973.714 327.369 1000.09 c 132,-1,17
 308.338 1026.46 308.338 1026.46 300.994 1035.65 c 5,18,19
 296.069 1022.96 296.069 1022.96 292.074 1009.04 c 132,-1,20
 288.079 995.118 288.079 995.118 283.332 975.594 c 6,21,-1
 276.523 948.353 l 5,22,-1
 272.862 935.416 l 6,23,24
 270.135 925.594 270.135 925.594 268.55 920.949 c 132,-1,25
 266.965 916.306 266.965 916.306 263.943 908.737 c 132,-1,26
 260.922 901.17 260.922 901.17 257.109 895.545 c 132,-1,27
 253.296 889.919 253.296 889.919 248.403 885.157 c 4,28,29
 235.163 871.33 235.163 871.33 212.849 875.251 c 5,30,31
 192.935 875.082 192.935 875.082 184.091 888.46 c 4,32,33
 175.135 900.529 175.135 900.529 183.09 924.483 c 4,34,35
 217.87 1038.05 217.87 1038.05 247.143 1087.1 c 5,36,37
 271.059 1125.33 271.059 1125.33 293.613 1131.37 c 4,0,1
653 813 m 1,38,39
 636 777 636 777 490 760 c 0,40,41
 315 739 315 739 244 699 c 0,42,43
 120 628 120 628 132 456 c 1,44,45
 138 450 138 450 144.5 444.5 c 128,-1,46
 151 439 151 439 168 439 c 0,47,48
 170 439 170 439 323 489 c 128,-1,49
 476 539 476 539 530 539 c 1,50,51
 546 527 546 527 543 504 c 0,52,53
 535 446 535 446 419 412 c 1,54,55
 316 386 316 386 212 360 c 1,56,57
 105 323 105 323 113 254 c 0,58,59
 126 129 126 129 203 129 c 0,60,61
 249 129 249 129 334 150 c 0,62,63
 431 174 431 174 446 199 c 1,64,-1
 516 185 l 1,65,66
 518 179 518 179 518 173 c 0,67,68
 518 118 518 118 387 70 c 0,69,70
 277 29 277 29 208 29 c 0,71,72
 116 29 116 29 60 98 c 1,73,74
 12 159 12 159 12 239 c 0,75,76
 12 261 12 261 16 280 c 0,77,78
 24 316 24 316 34.5 462 c 128,-1,79
 45 608 45 608 58 673 c 0,80,81
 80 776 80 776 123 779 c 0,82,83
 135 780 135 780 140 774.5 c 128,-1,84
 145 769 145 769 158 769 c 0,85,86
 173 769 173 769 299 814 c 128,-1,87
 425 859 425 859 488 859 c 0,88,89
 498 859 498 859 523.5 862.5 c 128,-1,90
 549 866 549 866 563 866 c 0,91,92
 622 866 622 866 653 813 c 1,38,39
EndSplineSet
EndChar

StartChar: edieresis
Encoding: 235 235 137
Width: 620
Flags: HW
LayerCount: 2
Fore
SplineSet
410.242 927.32 m 1,0,1
 399.101 937.299 399.101 937.299 387.984 958.053 c 0,2,3
 378.925 975.79 378.925 975.79 377.849 983.092 c 0,4,5
 370.326 1034.2 370.326 1034.2 408.996 1039.84 c 0,6,7
 424.779 1042.14 424.779 1042.14 447.879 1033.07 c 0,8,9
 474.372 1022.85 474.372 1022.85 477 1005 c 0,10,11
 481.777 972.551 481.777 972.551 454.437 933.764 c 1,12,13
 431.645 918.839 431.645 918.839 410.242 927.32 c 1,0,1
228.992 886.531 m 0,14,15
 178.485 879.17 178.485 879.17 168.573 946.503 c 0,16,17
 165.111 970.028 165.111 970.028 172.073 988.445 c 0,18,19
 180.255 1009.52 180.255 1009.52 198.405 1012.17 c 0,20,21
 226.027 1016.2 226.027 1016.2 249.146 990.563 c 0,22,23
 268.393 969.338 268.393 969.338 271.978 945.001 c 0,24,25
 274.126 930.397 274.126 930.397 258.662 909.5 c 128,-1,26
 243.198 888.602 243.198 888.602 228.992 886.531 c 0,14,15
653 813 m 1,27,28
 636 777 636 777 490 760 c 0,29,30
 315 739 315 739 244 699 c 0,31,32
 120 628 120 628 132 456 c 1,33,34
 138 450 138 450 144.5 444.5 c 128,-1,35
 151 439 151 439 168 439 c 0,36,37
 170 439 170 439 323 489 c 128,-1,38
 476 539 476 539 530 539 c 1,39,40
 546 527 546 527 543 504 c 0,41,42
 535 446 535 446 419 412 c 1,43,44
 316 386 316 386 212 360 c 1,45,46
 105 323 105 323 113 254 c 0,47,48
 126 129 126 129 203 129 c 0,49,50
 249 129 249 129 334 150 c 0,51,52
 431 174 431 174 446 199 c 1,53,-1
 516 185 l 1,54,55
 518 179 518 179 518 173 c 0,56,57
 518 118 518 118 387 70 c 0,58,59
 277 29 277 29 208 29 c 0,60,61
 116 29 116 29 60 98 c 1,62,63
 12 159 12 159 12 239 c 0,64,65
 12 261 12 261 16 280 c 0,66,67
 24 316 24 316 34.5 462 c 128,-1,68
 45 608 45 608 58 673 c 0,69,70
 80 776 80 776 123 779 c 0,71,72
 135 780 135 780 140 774.5 c 128,-1,73
 145 769 145 769 158 769 c 0,74,75
 173 769 173 769 299 814 c 128,-1,76
 425 859 425 859 488 859 c 0,77,78
 498 859 498 859 523.5 862.5 c 128,-1,79
 549 866 549 866 563 866 c 0,80,81
 622 866 622 866 653 813 c 1,27,28
EndSplineSet
EndChar

StartChar: igrave
Encoding: 236 236 138
Width: 331
Flags: HW
LayerCount: 2
Fore
SplineSet
-10.0791 1034.62 m 4,0,1
 -2.41699 996.691 -2.41699 996.691 95.4346 929.811 c 132,-1,2
 193.288 862.929 193.288 862.929 224.202 871.374 c 5,3,4
 241.405 896.951 241.405 896.951 236.771 919.887 c 4,5,6
 230.894 948.999 230.894 948.999 146.895 1028.04 c 132,-1,7
 62.8955 1107.08 62.8955 1107.08 31.5928 1105.18 c 4,8,9
 26.9463 1105.11 26.9463 1105.11 22.6582 1103.27 c 4,10,11
 6.35938 1096.29 6.35938 1096.29 -3.94727 1068.88 c 4,12,13
 -12.3945 1046.09 -12.3945 1046.09 -10.0791 1034.62 c 4,0,1
234 191 m 0,14,15
 234 131 234 131 212 22 c 1,16,17
 188 9 188 9 172 9 c 0,18,19
 151 9 151 9 136 32 c 1,20,-1
 124 406 l 1,21,22
 119 465 119 465 100 603 c 0,23,24
 84 725 84 725 84 736 c 0,25,26
 84 748 84 748 89.5 764 c 128,-1,27
 95 780 95 780 95 790 c 1,28,29
 126 790 126 790 144 801 c 0,30,31
 152 806 152 806 158 806 c 0,32,33
 215 806 215 806 230 501 c 0,34,35
 234 421 234 421 234 191 c 0,14,15
EndSplineSet
EndChar

StartChar: icircumflex
Encoding: 238 238 139
Width: 331
Flags: HW
LayerCount: 2
Fore
SplineSet
151.968 1072.84 m 4,0,1
 154.881 1072.9 154.881 1072.9 161.347 1072.52 c 4,2,3
 181.709 1072.05 181.709 1072.05 190.971 1056.67 c 5,4,-1
 224.853 994.224 l 6,5,6
 257.39 934.249 257.39 934.249 269.576 909.673 c 5,7,8
 275.3 901.704 275.3 901.704 275.131 890.868 c 132,-1,9
 274.96 880.029 274.96 880.029 268.856 872.396 c 4,10,11
 257.819 858.732 257.819 858.732 226.336 858.443 c 5,12,13
 222.247 860.562 222.247 860.562 211.706 870.937 c 4,14,15
 198.596 885.088 198.596 885.088 188.045 902.744 c 132,-1,16
 177.495 920.401 177.495 920.401 164.716 947.229 c 132,-1,17
 151.935 974.056 151.935 974.056 146.887 983.498 c 5,18,19
 141.288 972.421 141.288 972.421 136.32 960.083 c 132,-1,20
 131.353 947.747 131.353 947.747 125.1 930.334 c 6,21,-1
 116.222 906.064 l 5,22,-1
 111.647 894.595 l 6,23,24
 108.22 885.879 108.22 885.879 106.352 881.797 c 132,-1,25
 104.484 877.715 104.484 877.715 101.074 871.118 c 132,-1,26
 97.665 864.523 97.665 864.523 93.8232 859.825 c 132,-1,27
 89.9824 855.126 89.9824 855.126 85.3408 851.365 c 4,28,29
 72.6719 840.317 72.6719 840.317 54.5156 846.838 c 5,30,31
 37.8809 849.27 37.8809 849.27 32.0742 862.772 c 4,32,33
 26.0195 875.081 26.0195 875.081 35.4688 896.167 c 4,34,35
 77.8203 996.517 77.8203 996.517 108 1038 c 5,36,37
 132.442 1070.2 132.442 1070.2 151.968 1072.84 c 4,0,1
234 191 m 0,38,39
 234 131 234 131 212 22 c 1,40,41
 188 9 188 9 172 9 c 0,42,43
 151 9 151 9 136 32 c 1,44,-1
 124 406 l 1,45,46
 119 465 119 465 100 603 c 0,47,48
 84 725 84 725 84 736 c 0,49,50
 84 748 84 748 89.5 764 c 128,-1,51
 95 780 95 780 95 790 c 1,52,53
 126 790 126 790 144 801 c 0,54,55
 152 806 152 806 158 806 c 0,56,57
 215 806 215 806 230 501 c 0,58,59
 234 421 234 421 234 191 c 0,38,39
EndSplineSet
EndChar

StartChar: idieresis
Encoding: 239 239 140
Width: 331
Flags: HW
LayerCount: 2
Fore
SplineSet
207.389 882.883 m 5,0,1
 197.27 893.897 197.27 893.897 188.225 915.633 c 4,2,3
 180.932 934.167 180.932 934.167 180.57 941.539 c 4,4,5
 178.052 993.137 178.052 993.137 217.085 994.986 c 4,6,7
 233.018 995.741 233.018 995.741 255.127 984.477 c 4,8,9
 280.501 971.724 280.501 971.724 281.382 953.706 c 4,10,11
 282.982 920.945 282.982 920.945 252 885 c 5,12,13
 227.865 872.361 227.865 872.361 207.389 882.883 c 5,0,1
59.8291 843.42 m 0,14,15
 8.8457 841.003 8.8457 841.003 5.52539 908.98 c 0,16,17
 4.36621 932.731 4.36621 932.731 13.0859 950.383 c 0,18,19
 23.2773 970.568 23.2773 970.568 41.5996 971.438 c 0,20,21
 69.4814 972.759 69.4814 972.759 90 945 c 0,22,23
 107.093 922.005 107.093 922.005 108.294 897.435 c 0,24,25
 109.013 882.691 109.013 882.691 91.5908 863.396 c 128,-1,26
 74.1689 844.099 74.1689 844.099 59.8291 843.42 c 0,14,15
234 191 m 0,27,28
 234 131 234 131 212 22 c 1,29,30
 188 9 188 9 172 9 c 0,31,32
 151 9 151 9 136 32 c 1,33,-1
 124 406 l 1,34,35
 119 465 119 465 100 603 c 0,36,37
 84 725 84 725 84 736 c 0,38,39
 84 748 84 748 89.5 764 c 128,-1,40
 95 780 95 780 95 790 c 1,41,42
 126 790 126 790 144 801 c 0,43,44
 152 806 152 806 158 806 c 0,45,46
 215 806 215 806 230 501 c 0,47,48
 234 421 234 421 234 191 c 0,27,28
EndSplineSet
EndChar

StartChar: ograve
Encoding: 242 242 141
Width: 644
Flags: HW
LayerCount: 2
Fore
SplineSet
249.896 989.65 m 4,0,1
 268.257 955.588 268.257 955.588 381.328 920.051 c 132,-1,2
 494.401 884.514 494.401 884.514 521.523 901.584 c 5,3,4
 530.546 931.058 530.546 931.058 519.443 951.655 c 4,5,6
 505.354 977.8 505.354 977.8 402 1029 c 132,-1,7
 298.646 1080.2 298.646 1080.2 269.249 1069.28 c 4,8,9
 264.824 1067.86 264.824 1067.86 261.257 1064.85 c 4,10,11
 247.69 1053.44 247.69 1053.44 245.802 1024.21 c 4,12,13
 244.346 999.95 244.346 999.95 249.896 989.65 c 4,0,1
650 497 m 0,14,15
 650 402 650 402 602 293 c 0,16,17
 550 175 550 175 465 102 c 0,18,19
 367 17 367 17 250 17 c 0,20,21
 130 17 130 17 63 119 c 0,22,23
 10 201 10 201 10 302 c 0,24,25
 10 386 10 386 47 496 c 1,26,27
 91 631 91 631 167 714 c 0,28,29
 260 817 260 817 385 817 c 0,30,31
 529 817 529 817 598 707 c 0,32,33
 650 623 650 623 650 497 c 0,14,15
550 487 m 0,34,35
 550 593 550 593 534 631 c 0,36,37
 500 707 500 707 385 707 c 0,38,39
 297 707 297 707 226 621 c 0,40,41
 169 551 169 551 135 442 c 0,42,43
 105 347 105 347 110 287 c 0,44,45
 115 228 115 228 142 181 c 0,46,47
 185 107 185 107 270 107 c 0,48,49
 401 107 401 107 484 256 c 0,50,51
 550 374 550 374 550 487 c 0,34,35
EndSplineSet
EndChar

StartChar: ocircumflex
Encoding: 244 244 142
Width: 644
Flags: HW
LayerCount: 2
Fore
SplineSet
389.869 1103.7 m 4,0,1
 393.327 1103.77 393.327 1103.77 401.002 1103.36 c 4,2,3
 425.171 1102.86 425.171 1102.86 436.164 1086.37 c 5,4,-1
 476.379 1019.4 l 6,5,6
 514.999 955.081 514.999 955.081 529.464 928.726 c 5,7,8
 536.258 920.181 536.258 920.181 536.057 908.56 c 132,-1,9
 535.854 896.937 535.854 896.937 528.609 888.751 c 4,10,11
 515.509 874.098 515.509 874.098 478.14 873.788 c 5,12,13
 473.287 876.06 473.287 876.06 460.775 887.186 c 4,14,15
 445.214 902.361 445.214 902.361 432.691 921.296 c 132,-1,16
 420.169 940.231 420.169 940.231 405 969 c 132,-1,17
 389.83 997.769 389.83 997.769 383.839 1007.89 c 5,18,19
 377.193 996.016 377.193 996.016 371.297 982.785 c 132,-1,20
 365.4 969.556 365.4 969.556 357.979 950.883 c 6,21,-1
 347.44 924.856 l 5,22,-1
 342.012 912.557 l 6,23,24
 337.942 903.21 337.942 903.21 335.726 898.832 c 132,-1,25
 333.509 894.454 333.509 894.454 329.462 887.381 c 132,-1,26
 325.415 880.309 325.415 880.309 320.855 875.27 c 132,-1,27
 316.296 870.23 316.296 870.23 310.787 866.197 c 4,28,29
 295.749 854.35 295.749 854.35 274.199 861.343 c 5,30,31
 254.455 863.95 254.455 863.95 247.562 878.431 c 4,32,33
 240.376 891.63 240.376 891.63 251.592 914.242 c 4,34,35
 301.86 1021.86 301.86 1021.86 337.683 1066.34 c 5,36,37
 366.694 1100.87 366.694 1100.87 389.869 1103.7 c 4,0,1
650 497 m 0,38,39
 650 402 650 402 602 293 c 0,40,41
 550 175 550 175 465 102 c 0,42,43
 367 17 367 17 250 17 c 0,44,45
 130 17 130 17 63 119 c 0,46,47
 10 201 10 201 10 302 c 0,48,49
 10 386 10 386 47 496 c 1,50,51
 91 631 91 631 167 714 c 0,52,53
 260 817 260 817 385 817 c 0,54,55
 529 817 529 817 598 707 c 0,56,57
 650 623 650 623 650 497 c 0,38,39
550 487 m 0,58,59
 550 593 550 593 534 631 c 0,60,61
 500 707 500 707 385 707 c 0,62,63
 297 707 297 707 226 621 c 0,64,65
 169 551 169 551 135 442 c 0,66,67
 105 347 105 347 110 287 c 0,68,69
 115 228 115 228 142 181 c 0,70,71
 185 107 185 107 270 107 c 0,72,73
 401 107 401 107 484 256 c 0,74,75
 550 374 550 374 550 487 c 0,58,59
EndSplineSet
EndChar

StartChar: otilde
Encoding: 245 245 143
Width: 644
Flags: HW
LayerCount: 2
Fore
SplineSet
506.986 1051.81 m 4,0,1
 533.873 1052.68 533.873 1052.68 557.982 1038.71 c 4,2,3
 581.236 1025.16 581.236 1025.16 577.562 1009.5 c 5,4,5
 562.968 973.005 562.968 973.005 537 948 c 4,6,7
 516.955 929.282 516.955 929.282 489.303 918.818 c 132,-1,8
 461.649 908.354 461.649 908.354 433.031 910.222 c 5,9,10
 413.981 912.412 413.981 912.412 382.401 925.69 c 132,-1,11
 350.822 938.967 350.822 938.967 336.092 942.105 c 5,12,13
 334.556 940.292 334.556 940.292 324.861 929.832 c 132,-1,14
 315.167 919.37 315.167 919.37 311.08 913.244 c 4,15,16
 310.055 910.779 310.055 910.779 306.616 907.156 c 132,-1,17
 303.178 903.533 303.178 903.533 302.182 902 c 4,18,19
 299.932 899.094 299.932 899.094 297.329 891.634 c 132,-1,20
 294.726 884.174 294.726 884.174 291.519 880.969 c 4,21,22
 273.934 868.333 273.934 868.333 242.82 873.976 c 4,23,24
 215.556 879.022 215.556 879.022 208.929 892.604 c 5,25,26
 206.203 902.486 206.203 902.486 206.507 910.506 c 4,27,28
 208.305 958.004 208.305 958.004 262.348 998.196 c 4,29,30
 295.961 1023.58 295.961 1023.58 336.803 1023.93 c 4,31,32
 355.122 1024.03 355.122 1024.03 385.754 1013.02 c 132,-1,33
 416.384 1002.02 416.384 1002.02 423.448 1000.38 c 4,34,35
 447.559 994.048 447.559 994.048 457.41 1001.09 c 5,36,37
 463.52 1007.12 463.52 1007.12 470.648 1020.71 c 132,-1,38
 477.777 1034.3 477.777 1034.3 479.157 1036.43 c 4,39,40
 481.577 1043.44 481.577 1043.44 489.606 1047.53 c 132,-1,41
 497.637 1051.62 497.637 1051.62 506.986 1051.81 c 4,0,1
650 497 m 0,42,43
 650 402 650 402 602 293 c 0,44,45
 550 175 550 175 465 102 c 0,46,47
 367 17 367 17 250 17 c 0,48,49
 130 17 130 17 63 119 c 0,50,51
 10 201 10 201 10 302 c 0,52,53
 10 386 10 386 47 496 c 1,54,55
 91 631 91 631 167 714 c 0,56,57
 260 817 260 817 385 817 c 0,58,59
 529 817 529 817 598 707 c 0,60,61
 650 623 650 623 650 497 c 0,42,43
550 487 m 0,62,63
 550 593 550 593 534 631 c 0,64,65
 500 707 500 707 385 707 c 0,66,67
 297 707 297 707 226 621 c 0,68,69
 169 551 169 551 135 442 c 0,70,71
 105 347 105 347 110 287 c 0,72,73
 115 228 115 228 142 181 c 0,74,75
 185 107 185 107 270 107 c 0,76,77
 401 107 401 107 484 256 c 0,78,79
 550 374 550 374 550 487 c 0,62,63
EndSplineSet
EndChar

StartChar: odieresis
Encoding: 246 246 144
Width: 644
Flags: HW
LayerCount: 2
Fore
SplineSet
502.007 889.177 m 5,0,1
 491.888 900.191 491.888 900.191 482.843 921.927 c 4,2,3
 475.55 940.461 475.55 940.461 475.188 947.833 c 4,4,5
 472.67 999.431 472.67 999.431 511.703 1001.28 c 4,6,7
 527.636 1002.04 527.636 1002.04 549.745 990.771 c 4,8,9
 575.119 978.018 575.119 978.018 576 960 c 4,10,11
 577.601 927.239 577.601 927.239 546.618 891.294 c 5,12,13
 522.483 878.655 522.483 878.655 502.007 889.177 c 5,0,1
312.222 868.278 m 4,14,15
 261.238 865.861 261.238 865.861 257.918 933.839 c 4,16,17
 256.759 957.59 256.759 957.59 265.479 975.241 c 4,18,19
 275.67 995.427 275.67 995.427 293.992 996.296 c 4,20,21
 321.874 997.617 321.874 997.617 342.393 969.858 c 4,22,23
 359.485 946.863 359.485 946.863 360.687 922.293 c 4,24,25
 361.405 907.55 361.405 907.55 343.983 888.254 c 132,-1,26
 326.562 868.957 326.562 868.957 312.222 868.278 c 4,14,15
650 497 m 0,27,28
 650 402 650 402 602 293 c 0,29,30
 550 175 550 175 465 102 c 0,31,32
 367 17 367 17 250 17 c 0,33,34
 130 17 130 17 63 119 c 0,35,36
 10 201 10 201 10 302 c 0,37,38
 10 386 10 386 47 496 c 1,39,40
 91 631 91 631 167 714 c 0,41,42
 260 817 260 817 385 817 c 0,43,44
 529 817 529 817 598 707 c 0,45,46
 650 623 650 623 650 497 c 0,27,28
550 487 m 0,47,48
 550 593 550 593 534 631 c 0,49,50
 500 707 500 707 385 707 c 0,51,52
 297 707 297 707 226 621 c 0,53,54
 169 551 169 551 135 442 c 0,55,56
 105 347 105 347 110 287 c 0,57,58
 115 228 115 228 142 181 c 0,59,60
 185 107 185 107 270 107 c 0,61,62
 401 107 401 107 484 256 c 0,63,64
 550 374 550 374 550 487 c 0,47,48
EndSplineSet
EndChar

StartChar: oslash
Encoding: 248 248 145
Width: 644
Flags: HW
LayerCount: 2
Fore
SplineSet
550 487 m 0,0,1
 550 593 550 593 534 631 c 0,2,3
 524.294 652.695 524.294 652.695 507.988 668.198 c 1,4,-1
 435 516 l 1,5,-1
 234.936 110.517 l 1,6,7
 251.47 107 251.47 107 270 107 c 0,8,9
 401 107 401 107 484 256 c 0,10,11
 550 374 550 374 550 487 c 0,0,1
650 497 m 0,12,13
 650 402 650 402 602 293 c 0,14,15
 550 176 550 176 465 102 c 0,16,17
 367 17 367 17 250 17 c 0,18,19
 219.31 17 219.31 17 192.086 23.6717 c 1,20,-1
 172.688 -15.6455 l 1,21,22
 166.107 -19.623 166.107 -19.623 154.443 -18.7646 c 0,23,24
 132.016 -17.1142 132.016 -17.1142 111.612 1.11426 c 128,-1,25
 91.208 19.3447 91.208 19.3447 92.7861 42.6494 c 0,26,27
 93.5381 53.7461 93.5381 53.7461 99.6729 64.4473 c 2,28,-1
 103.261 71.1571 l 1,29,30
 81.1795 91.3238 81.1795 91.3238 63 119 c 0,31,32
 10 201 10 201 10 302 c 0,33,34
 10 384 10 384 47 496 c 0,35,36
 92 631 92 631 167 714 c 0,37,38
 261 817 261 817 385 817 c 0,39,40
 421.011 817 421.011 817 452.332 810.121 c 1,41,42
 483.357 858.176 483.357 858.176 501.365 856.851 c 0,43,44
 508.541 856.322 508.541 856.322 514.296 848.093 c 1,45,46
 553.996 845.173 553.996 845.173 550.719 762.365 c 1,47,48
 577.628 739.477 577.628 739.477 598 707 c 0,49,50
 650 623 650 623 650 497 c 0,12,13
397.081 706.782 m 1,51,52
 391.156 707 391.156 707 385 707 c 0,53,54
 297 707 297 707 226 621 c 0,55,56
 169 551 169 551 135 442 c 0,57,58
 105 347 105 347 110 287 c 0,59,60
 115 228 115 228 142 181 c 0,61,62
 146.568 173.139 146.568 173.139 151.61 166.113 c 1,63,64
 203.379 271.692 203.379 271.692 268.916 420.037 c 2,65,-1
 397.081 706.782 l 1,51,52
EndSplineSet
EndChar

StartChar: ugrave
Encoding: 249 249 146
Width: 596
Flags: HW
LayerCount: 2
Fore
SplineSet
54.8965 872.65 m 4,0,1
 73.2568 838.588 73.2568 838.588 186.328 803.051 c 132,-1,2
 299.401 767.514 299.401 767.514 326.523 784.584 c 5,3,4
 335.546 814.058 335.546 814.058 324.443 834.655 c 4,5,6
 310.354 860.8 310.354 860.8 207 912 c 132,-1,7
 103.646 963.2 103.646 963.2 74.249 952.28 c 4,8,9
 69.8242 950.86 69.8242 950.86 66.2568 947.85 c 4,10,11
 52.6904 936.439 52.6904 936.439 50.8018 907.21 c 4,12,13
 49.3457 882.95 49.3457 882.95 54.8965 872.65 c 4,0,1
581 644 m 0,14,15
 581 460 581 460 506 297 c 0,16,17
 407 81 407 81 226 89 c 0,18,19
 118 94 118 94 63 215 c 0,20,21
 21 309 21 309 21 434 c 0,22,23
 21 441 21 441 18 479 c 128,-1,24
 15 517 15 517 15 543 c 0,25,26
 15 672 15 672 81 679 c 0,27,28
 138 686 138 686 138 594 c 0,29,30
 138 567 138 567 131.5 495.5 c 128,-1,31
 125 424 125 424 125 385 c 0,32,33
 125 214 125 214 236 179 c 0,34,35
 248 176 248 176 260 176 c 0,36,37
 347 176 347 176 421 344 c 0,38,39
 489 498 489 498 489 638 c 0,40,41
 489 708 489 708 467 736 c 1,42,43
 465 746 465 746 465 754 c 0,44,45
 465 782 465 782 483 799 c 0,46,47
 485 801 485 801 515 819 c 1,48,49
 563 807 563 807 576 739 c 0,50,51
 581 714 581 714 581 644 c 0,14,15
EndSplineSet
EndChar

StartChar: ucircumflex
Encoding: 251 251 147
Width: 596
Flags: HW
LayerCount: 2
Fore
SplineSet
214.647 1016.44 m 4,0,1
 218.062 1016.99 218.062 1016.99 225.72 1017.65 c 4,2,3
 249.723 1020.52 249.723 1020.52 262.906 1005.72 c 5,4,-1
 312.062 945.01 l 6,5,6
 359.269 886.705 359.269 886.705 377.266 862.622 c 5,7,8
 385.185 855.107 385.185 855.107 386.604 843.572 c 132,-1,9
 388.024 832.034 388.024 832.034 381.991 822.919 c 4,10,11
 371.061 806.583 371.061 806.583 334.099 801.068 c 5,12,13
 328.978 802.641 328.978 802.641 315.037 811.915 c 4,14,15
 297.513 824.773 297.513 824.773 282.474 841.778 c 132,-1,16
 267.434 858.784 267.434 858.784 248.403 885.157 c 132,-1,17
 229.372 911.531 229.372 911.531 222.028 920.724 c 5,18,19
 217.104 908.034 217.104 908.034 213.108 894.111 c 132,-1,20
 209.113 880.188 209.113 880.188 204.366 860.664 c 6,21,-1
 197.558 833.423 l 5,22,-1
 193.896 820.486 l 6,23,24
 191.169 810.664 191.169 810.664 189.584 806.02 c 132,-1,25
 187.999 801.376 187.999 801.376 184.978 793.808 c 132,-1,26
 181.956 786.24 181.956 786.24 178.144 780.615 c 132,-1,27
 174.33 774.989 174.33 774.989 169.438 770.228 c 4,28,29
 156.197 756.4 156.197 756.4 133.883 760.321 c 5,30,31
 113.969 760.152 113.969 760.152 105.125 773.53 c 4,32,33
 96.1689 785.6 96.1689 785.6 104.124 809.554 c 4,34,35
 138.904 923.123 138.904 923.123 168.177 972.168 c 5,36,37
 192.093 1010.41 192.093 1010.41 214.647 1016.44 c 4,0,1
581 644 m 0,38,39
 581 460 581 460 506 297 c 0,40,41
 407 81 407 81 226 89 c 0,42,43
 118 94 118 94 63 215 c 0,44,45
 21 309 21 309 21 434 c 0,46,47
 21 441 21 441 18 479 c 128,-1,48
 15 517 15 517 15 543 c 0,49,50
 15 672 15 672 81 679 c 0,51,52
 138 686 138 686 138 594 c 0,53,54
 138 567 138 567 131.5 495.5 c 128,-1,55
 125 424 125 424 125 385 c 0,56,57
 125 214 125 214 236 179 c 0,58,59
 248 176 248 176 260 176 c 0,60,61
 347 176 347 176 421 344 c 0,62,63
 489 498 489 498 489 638 c 0,64,65
 489 708 489 708 467 736 c 1,66,67
 465 746 465 746 465 754 c 0,68,69
 465 782 465 782 483 799 c 0,70,71
 485 801 485 801 515 819 c 1,72,73
 563 807 563 807 576 739 c 0,74,75
 581 714 581 714 581 644 c 0,38,39
EndSplineSet
EndChar

StartChar: yacute
Encoding: 253 253 148
Width: 595
Flags: HW
LayerCount: 2
Fore
SplineSet
492.671 975.211 m 4,0,1
 493.909 936.535 493.909 936.535 414 849 c 132,-1,2
 334.088 761.464 334.088 761.464 302.062 762.597 c 5,3,4
 279.452 783.547 279.452 783.547 278.703 806.935 c 4,5,6
 277.75 836.618 277.75 836.618 341.389 932.814 c 132,-1,7
 405.027 1029.01 405.027 1029.01 435.931 1034.34 c 4,8,9
 440.471 1035.33 440.471 1035.33 445.066 1034.52 c 4,10,11
 462.529 1031.47 462.529 1031.47 478.848 1007.15 c 4,12,13
 492.295 986.904 492.295 986.904 492.671 975.211 c 4,0,1
607 711 m 1,14,15
 607 668 607 668 403 310 c 0,16,17
 196 -55 196 -55 152 -63 c 0,18,19
 117 -69 117 -69 107 -23 c 0,20,21
 106 -15 106 -15 106 -7 c 0,22,23
 106 33 106 33 147 93 c 0,24,25
 149 95 149 95 225 191 c 0,26,27
 267 244 267 244 267 267 c 0,28,29
 267 279 267 279 239 315 c 0,30,31
 200 363 200 363 190 379 c 0,32,33
 -30 750 -30 750 -23 802 c 0,34,35
 -20 819 -20 819 -7 839 c 1,36,37
 12 865 12 865 37 867 c 0,38,39
 78 869 78 869 111 799 c 1,40,41
 148 705 148 705 186 611 c 0,42,43
 246 464 246 464 322 346 c 1,44,45
 370 403 370 403 413 537 c 1,46,47
 447 639 447 639 480 740 c 1,48,49
 517 833 517 833 562 827 c 0,50,51
 576 825 576 825 589 820 c 128,-1,52
 602 815 602 815 607 815 c 1,53,54
 619 793 619 793 619 767 c 256,55,56
 619 741 619 741 607 711 c 1,14,15
EndSplineSet
EndChar

StartChar: ydieresis
Encoding: 255 255 149
Width: 595
Flags: HW
LayerCount: 2
Fore
SplineSet
451.991 924.82 m 5,0,1
 442.711 936.55 442.711 936.55 435.291 958.893 c 4,2,3
 429.383 977.914 429.383 977.914 429.566 985.292 c 4,4,5
 430.855 1036.94 430.855 1036.94 469.919 1035.91 c 4,6,7
 485.864 1035.48 485.864 1035.48 507.083 1022.62 c 4,8,9
 531.449 1008.03 531.449 1008.03 531 990 c 4,10,11
 530.183 957.211 530.183 957.211 496.637 923.645 c 5,12,13
 471.637 912.819 471.637 912.819 451.991 924.82 c 5,0,1
212.207 906.535 m 4,14,15
 161.184 907.88 161.184 907.88 162.881 975.918 c 4,16,17
 163.474 999.689 163.474 999.689 173.47 1016.65 c 4,18,19
 185.121 1036.03 185.121 1036.03 203.458 1035.55 c 4,20,21
 231.361 1034.81 231.361 1034.81 249.779 1005.62 c 4,22,23
 265.131 981.425 265.131 981.425 264.519 956.833 c 4,24,25
 264.15 942.077 264.15 942.077 245.354 924.117 c 132,-1,26
 226.558 906.156 226.558 906.156 212.207 906.535 c 4,14,15
607 711 m 1,27,28
 607 668 607 668 403 310 c 0,29,30
 196 -55 196 -55 152 -63 c 0,31,32
 117 -69 117 -69 107 -23 c 0,33,34
 106 -15 106 -15 106 -7 c 0,35,36
 106 33 106 33 147 93 c 0,37,38
 149 95 149 95 225 191 c 0,39,40
 267 244 267 244 267 267 c 0,41,42
 267 279 267 279 239 315 c 0,43,44
 200 363 200 363 190 379 c 0,45,46
 -30 750 -30 750 -23 802 c 0,47,48
 -20 819 -20 819 -7 839 c 1,49,50
 12 865 12 865 37 867 c 0,51,52
 78 869 78 869 111 799 c 1,53,54
 148 705 148 705 186 611 c 0,55,56
 246 464 246 464 322 346 c 1,57,58
 370 403 370 403 413 537 c 1,59,60
 447 639 447 639 480 740 c 1,61,62
 517 833 517 833 562 827 c 0,63,64
 576 825 576 825 589 820 c 128,-1,65
 602 815 602 815 607 815 c 1,66,67
 619 793 619 793 619 767 c 256,68,69
 619 741 619 741 607 711 c 1,27,28
EndSplineSet
EndChar

